<svg width="447" height="312" viewBox="0 0 447 312" fill="none" xmlns="http://www.w3.org/2000/svg">
<path d="M446.147 278.143H0V278.355H446.147V278.143Z" fill="#EBEBEB"/>
<path d="M76.3625 286.229H46.8098V286.442H76.3625V286.229Z" fill="#EBEBEB"/>
<path d="M160.461 283.927H121.647V284.14H160.461V283.927Z" fill="#EBEBEB"/>
<path d="M107.37 290.621H72.7933V290.833H107.37V290.621Z" fill="#EBEBEB"/>
<path d="M401.443 292.693H362.905V292.906H401.443V292.693Z" fill="#EBEBEB"/>
<path d="M354.955 292.693H338.179V292.906H354.955V292.693Z" fill="#EBEBEB"/>
<path d="M245.381 289.109H212.759V289.321H245.381V289.109Z" fill="#EBEBEB"/>
<path d="M211.474 240.26H39.1807C37.8309 240.258 36.5373 239.746 35.5837 238.836C34.6301 237.927 34.0946 236.695 34.0946 235.41V4.85005C34.0969 3.56589 34.6332 2.33485 35.5863 1.42602C36.5394 0.517187 37.8316 0.00448811 39.1807 0H211.474C212.826 -1.96692e-06 214.123 0.510714 215.08 1.42003C216.037 2.32935 216.575 3.56295 216.578 4.85005V235.41C216.578 236.048 216.446 236.679 216.189 237.268C215.932 237.857 215.556 238.392 215.082 238.842C214.608 239.293 214.045 239.65 213.426 239.893C212.807 240.137 212.144 240.261 211.474 240.26ZM39.1807 0.220845C37.8916 0.22309 36.6561 0.711525 35.7446 1.57918C34.8331 2.44684 34.32 3.623 34.3176 4.85005V235.41C34.3176 236.638 34.8297 237.817 35.7414 238.686C36.6532 239.556 37.8901 240.045 39.1807 240.048H211.474C212.765 240.045 214.003 239.556 214.916 238.687C215.829 237.818 216.343 236.639 216.346 235.41V4.85005C216.341 3.62222 215.826 2.44608 214.913 1.57866C214 0.711247 212.764 0.223081 211.474 0.220845H39.1807Z" fill="#EBEBEB"/>
<path d="M404.486 240.26H232.184C230.833 240.258 229.539 239.746 228.584 238.837C227.629 237.928 227.091 236.696 227.089 235.41V4.85005C227.094 3.56511 227.632 2.33409 228.586 1.42549C229.541 0.516902 230.834 0.00447717 232.184 0H404.486C405.833 0.00672548 407.123 0.52041 408.074 1.429C409.026 2.33759 409.561 3.56736 409.563 4.85005V235.41C409.563 236.693 409.029 237.924 408.077 238.833C407.125 239.743 405.834 240.255 404.486 240.26ZM232.184 0.220845C230.894 0.223081 229.658 0.711247 228.745 1.57866C227.832 2.44608 227.317 3.62222 227.312 4.85005V235.41C227.314 236.639 227.828 237.818 228.741 238.687C229.655 239.556 230.892 240.045 232.184 240.048H404.486C405.777 240.045 407.015 239.556 407.928 238.687C408.841 237.818 409.355 236.639 409.358 235.41V4.85005C409.355 3.62074 408.841 2.44243 407.928 1.57318C407.015 0.703931 405.777 0.214594 404.486 0.212349L232.184 0.220845Z" fill="#EBEBEB"/>
<path d="M382.723 212.103L383.472 213.555C383.517 213.64 383.583 213.713 383.664 213.769C383.744 213.825 383.838 213.863 383.936 213.878L385.623 214.107C385.735 214.124 385.84 214.17 385.927 214.24C386.013 214.31 386.077 214.402 386.113 214.505C386.148 214.608 386.152 214.718 386.126 214.823C386.099 214.928 386.042 215.024 385.962 215.101L384.739 216.231C384.669 216.295 384.615 216.376 384.584 216.464C384.553 216.553 384.545 216.648 384.561 216.74L384.846 218.346C384.868 218.454 384.857 218.565 384.814 218.667C384.771 218.769 384.699 218.858 384.605 218.922C384.511 218.986 384.4 219.023 384.285 219.03C384.17 219.036 384.055 219.011 383.954 218.957L382.446 218.201C382.36 218.155 382.264 218.131 382.165 218.131C382.067 218.131 381.97 218.155 381.884 218.201L380.376 218.957C380.275 219.007 380.161 219.03 380.048 219.022C379.934 219.014 379.825 218.976 379.732 218.913C379.64 218.849 379.567 218.763 379.524 218.663C379.48 218.563 379.466 218.453 379.484 218.346L379.778 216.74C379.794 216.648 379.786 216.553 379.755 216.464C379.724 216.376 379.671 216.295 379.6 216.231L378.377 215.101C378.297 215.024 378.24 214.928 378.214 214.823C378.187 214.718 378.192 214.608 378.227 214.505C378.262 214.402 378.326 214.31 378.413 214.24C378.499 214.17 378.604 214.124 378.716 214.107L380.403 213.878C380.501 213.861 380.594 213.824 380.674 213.768C380.755 213.712 380.821 213.639 380.867 213.555L381.616 212.103C381.667 212.004 381.746 211.921 381.843 211.863C381.941 211.805 382.054 211.774 382.17 211.774C382.285 211.774 382.398 211.805 382.496 211.863C382.594 211.921 382.672 212.004 382.723 212.103Z" fill="#EBEBEB"/>
<path d="M54.1712 217.853L54.9296 219.314C54.9732 219.397 55.0374 219.47 55.1166 219.524C55.1959 219.579 55.2878 219.615 55.3847 219.628L57.0711 219.857C57.1834 219.874 57.2886 219.92 57.375 219.991C57.4614 220.061 57.5258 220.153 57.5609 220.255C57.596 220.358 57.6005 220.468 57.5739 220.574C57.5473 220.679 57.4906 220.775 57.4102 220.851L56.2145 221.981C56.1445 222.048 56.0925 222.13 56.063 222.22C56.0334 222.31 56.0273 222.406 56.045 222.499L56.3305 224.096C56.352 224.204 56.3407 224.315 56.2979 224.418C56.2551 224.52 56.1826 224.608 56.0889 224.672C55.9952 224.736 55.8842 224.774 55.769 224.78C55.6537 224.786 55.539 224.761 55.4382 224.708L53.9124 223.994C53.8237 223.952 53.7259 223.93 53.6269 223.93C53.5278 223.93 53.4301 223.952 53.3413 223.994L51.8334 224.75C51.7326 224.804 51.6179 224.829 51.5026 224.823C51.3874 224.816 51.2764 224.779 51.1827 224.715C51.089 224.65 51.0165 224.562 50.9737 224.46C50.9309 224.358 50.9196 224.246 50.9411 224.138L51.2266 222.542C51.2443 222.449 51.2381 222.353 51.2086 222.263C51.1791 222.172 51.1271 222.09 51.0571 222.023L49.8346 220.894C49.7542 220.817 49.6975 220.721 49.6709 220.616C49.6443 220.511 49.6488 220.401 49.6839 220.298C49.7191 220.195 49.7834 220.103 49.8698 220.033C49.9563 219.963 50.0614 219.917 50.1737 219.9L51.8601 219.671C51.957 219.657 52.049 219.621 52.1282 219.567C52.2075 219.512 52.2716 219.44 52.3152 219.356L53.0736 217.895C53.1183 217.794 53.1924 217.707 53.287 217.645C53.3817 217.582 53.4931 217.547 53.6082 217.542C53.7234 217.538 53.8374 217.565 53.9371 217.62C54.0368 217.675 54.118 217.756 54.1712 217.853Z" fill="#EBEBEB"/>
<path d="M57.0444 92.8729L57.8028 94.3254C57.8464 94.4088 57.9106 94.481 57.9898 94.5357C58.0691 94.5904 58.1611 94.6261 58.2579 94.6397L59.9444 94.8775C60.0566 94.8926 60.1623 94.9373 60.2492 95.0066C60.3361 95.0759 60.401 95.167 60.4363 95.2696C60.4716 95.3722 60.476 95.4822 60.4489 95.587C60.4219 95.6918 60.3646 95.7874 60.2834 95.8628L59.061 96.9925C58.9917 97.0602 58.9396 97.1421 58.9087 97.2319C58.8778 97.3217 58.8688 97.417 58.8825 97.5106L59.177 99.1075C59.1985 99.2154 59.1871 99.327 59.1443 99.4291C59.1015 99.5311 59.029 99.6194 58.9353 99.6836C58.8417 99.7479 58.7307 99.7853 58.6154 99.7916C58.5002 99.7978 58.3854 99.7727 58.2847 99.719L56.7767 98.9631C56.688 98.9212 56.5902 98.8993 56.4912 98.8993C56.3921 98.8993 56.2944 98.9212 56.2056 98.9631L54.6977 99.719C54.5969 99.7727 54.4822 99.7978 54.3669 99.7916C54.2517 99.7853 54.1407 99.7479 54.047 99.6836C53.9533 99.6194 53.8808 99.5311 53.838 99.4291C53.7952 99.327 53.7839 99.2154 53.8054 99.1075L54.0909 97.5106C54.1067 97.417 54.0988 97.3211 54.0677 97.2309C54.0367 97.1408 53.9834 97.059 53.9124 96.9925L52.6989 95.8628C52.6179 95.7879 52.5605 95.6931 52.533 95.5889C52.5055 95.4846 52.5092 95.3752 52.5435 95.2728C52.5778 95.1704 52.6414 95.0792 52.7272 95.0094C52.813 94.9395 52.9175 94.8939 53.0291 94.8775L54.7244 94.6397C54.8213 94.6261 54.9133 94.5904 54.9925 94.5357C55.0718 94.481 55.1359 94.4088 55.1795 94.3254L55.929 92.8729C55.9786 92.772 56.0574 92.6866 56.1562 92.6267C56.255 92.5669 56.3696 92.5352 56.4867 92.5352C56.6038 92.5352 56.7184 92.5669 56.8172 92.6267C56.916 92.6866 56.9948 92.772 57.0444 92.8729Z" fill="#F5F5F5"/>
<path d="M153.252 35.836L154.001 37.2969C154.046 37.381 154.112 37.4535 154.193 37.5082C154.273 37.5629 154.367 37.5983 154.465 37.6112L156.152 37.8491C156.264 37.8641 156.369 37.9089 156.456 37.9782C156.543 38.0475 156.608 38.1386 156.643 38.2412C156.679 38.3438 156.683 38.4537 156.656 38.5586C156.629 38.6634 156.572 38.759 156.491 38.8344L155.259 39.964C155.188 40.0306 155.135 40.1124 155.104 40.2025C155.073 40.2926 155.065 40.3885 155.081 40.4822L155.375 42.079C155.393 42.1862 155.379 42.296 155.335 42.3962C155.292 42.4963 155.219 42.5829 155.127 42.6463C155.034 42.7097 154.925 42.7474 154.811 42.7553C154.698 42.7631 154.584 42.7407 154.483 42.6906L152.975 41.9347C152.888 41.8928 152.791 41.871 152.694 41.871C152.596 41.871 152.5 41.8928 152.413 41.9347L150.905 42.6906C150.804 42.7442 150.689 42.7694 150.574 42.7631C150.459 42.7569 150.348 42.7194 150.254 42.6552C150.16 42.591 150.088 42.5027 150.045 42.4006C150.002 42.2986 149.991 42.187 150.013 42.079L150.298 40.4822C150.314 40.3885 150.306 40.2926 150.275 40.2025C150.244 40.1124 150.191 40.0306 150.12 39.964L148.915 38.8259C148.834 38.7505 148.777 38.6549 148.749 38.5501C148.722 38.4452 148.727 38.3353 148.762 38.2327C148.797 38.1301 148.862 38.039 148.949 37.9697C149.036 37.9004 149.142 37.8556 149.254 37.8406L150.941 37.6027C151.039 37.5912 151.133 37.5564 151.214 37.5016C151.295 37.4467 151.361 37.3734 151.404 37.2885L152.154 35.8275C152.206 35.7315 152.286 35.6511 152.383 35.5954C152.48 35.5396 152.592 35.5105 152.706 35.5114C152.819 35.5123 152.93 35.543 153.027 35.6003C153.123 35.6576 153.201 35.7392 153.252 35.836Z" fill="#F5F5F5"/>
<path d="M82.2606 21.3368L82.7067 22.1862C82.7342 22.2359 82.7735 22.2787 82.8216 22.3111C82.8696 22.3436 82.9251 22.3648 82.9833 22.3731L83.9916 22.5175C84.0577 22.5275 84.1197 22.5546 84.1707 22.5958C84.2217 22.6371 84.2599 22.6908 84.281 22.7512C84.3022 22.8117 84.3055 22.8765 84.2907 22.9386C84.2759 23.0007 84.2434 23.0578 84.1969 23.1036L83.4652 23.7831C83.4221 23.8216 83.3898 23.8697 83.3711 23.9231C83.3524 23.9765 83.348 24.0334 83.3581 24.0889L83.5276 25.0487C83.5382 25.112 83.5301 25.1769 83.5044 25.2362C83.4787 25.2955 83.4362 25.3468 83.3818 25.3846C83.3273 25.4224 83.263 25.4451 83.1958 25.4503C83.1287 25.4554 83.0613 25.4429 83.0012 25.4139L82.1089 24.9637C82.0577 24.9345 81.9991 24.9191 81.9394 24.9191C81.8797 24.9191 81.8211 24.9345 81.7698 24.9637L80.8775 25.4139C80.8181 25.454 80.7474 25.4763 80.6746 25.4779C80.6017 25.4795 80.5301 25.4604 80.4687 25.423C80.4074 25.3856 80.3592 25.3316 80.3302 25.2679C80.3013 25.2043 80.2931 25.1338 80.3065 25.0657L80.476 24.1058C80.4861 24.0504 80.4817 23.9935 80.463 23.9401C80.4443 23.8867 80.412 23.8386 80.3689 23.8001L79.6462 23.1205C79.5964 23.0767 79.5609 23.0202 79.5436 22.9578C79.5264 22.8954 79.5281 22.8296 79.5487 22.7681C79.5693 22.7066 79.6079 22.652 79.6599 22.6106C79.7119 22.5693 79.7753 22.5428 79.8425 22.5345L80.8508 22.3901C80.9095 22.3832 80.9656 22.3625 81.0139 22.3299C81.0622 22.2973 81.1012 22.2537 81.1274 22.2032L81.5735 21.3538C81.5974 21.2861 81.6426 21.227 81.7029 21.1846C81.7632 21.1422 81.8358 21.1184 81.9108 21.1166C81.9858 21.1147 82.0596 21.1349 82.1221 21.1742C82.1847 21.2136 82.233 21.2704 82.2606 21.3368Z" fill="#EBEBEB"/>
<path d="M105.291 141.348L105.746 142.197C105.772 142.249 105.81 142.294 105.858 142.328C105.907 142.362 105.963 142.384 106.022 142.393L107.031 142.529C107.098 142.539 107.161 142.567 107.212 142.609C107.264 142.651 107.302 142.706 107.322 142.768C107.342 142.83 107.344 142.896 107.328 142.958C107.311 143.021 107.276 143.078 107.227 143.123L106.504 143.794C106.462 143.833 106.43 143.881 106.411 143.935C106.393 143.988 106.388 144.044 106.397 144.1L106.567 145.06C106.577 145.123 106.569 145.188 106.543 145.247C106.518 145.306 106.475 145.358 106.421 145.396C106.366 145.433 106.302 145.456 106.235 145.461C106.168 145.466 106.1 145.454 106.04 145.425L105.148 144.975C105.095 144.949 105.037 144.936 104.978 144.936C104.92 144.936 104.861 144.949 104.809 144.975L103.917 145.425C103.856 145.454 103.789 145.466 103.722 145.461C103.655 145.456 103.59 145.433 103.536 145.396C103.482 145.358 103.439 145.306 103.413 145.247C103.388 145.188 103.38 145.123 103.39 145.06L103.56 144.1C103.569 144.044 103.564 143.988 103.546 143.935C103.527 143.881 103.495 143.833 103.453 143.794L102.721 143.123C102.672 143.078 102.637 143.02 102.621 142.957C102.604 142.893 102.607 142.827 102.629 142.765C102.65 142.703 102.689 142.648 102.742 142.606C102.794 142.564 102.858 142.537 102.926 142.529L103.934 142.393C103.993 142.383 104.049 142.36 104.097 142.326C104.145 142.292 104.184 142.248 104.211 142.197L104.657 141.348C104.689 141.295 104.736 141.251 104.791 141.22C104.847 141.19 104.91 141.174 104.974 141.174C105.038 141.174 105.101 141.19 105.157 141.22C105.212 141.251 105.259 141.295 105.291 141.348Z" fill="#EBEBEB"/>
<path d="M248.236 49.6471L248.682 50.4965C248.71 50.5462 248.749 50.589 248.797 50.6214C248.845 50.6539 248.901 50.6751 248.959 50.6834L249.967 50.8193C250.034 50.8295 250.097 50.8573 250.149 50.8996C250.2 50.9419 250.238 50.997 250.259 51.0588C250.279 51.1205 250.281 51.1865 250.264 51.2492C250.247 51.3119 250.213 51.3689 250.164 51.4139L249.441 52.0934C249.398 52.1319 249.365 52.18 249.347 52.2334C249.328 52.2868 249.324 52.3437 249.334 52.3992L249.503 53.3505C249.518 53.4146 249.512 53.4813 249.487 53.5425C249.463 53.6037 249.42 53.6568 249.364 53.6954C249.309 53.734 249.243 53.7565 249.174 53.7601C249.105 53.7637 249.037 53.7483 248.977 53.7157L248.085 53.2655C248.032 53.2402 247.974 53.2269 247.915 53.2269C247.856 53.2269 247.798 53.2402 247.745 53.2655L246.853 53.7157C246.793 53.7483 246.725 53.7637 246.656 53.7601C246.588 53.7565 246.521 53.734 246.466 53.6954C246.41 53.6568 246.367 53.6037 246.343 53.5425C246.318 53.4813 246.312 53.4146 246.327 53.3505L246.496 52.3992C246.506 52.3437 246.502 52.2868 246.483 52.2334C246.465 52.18 246.432 52.1319 246.389 52.0934L245.658 51.4139C245.608 51.3684 245.574 51.3107 245.557 51.2473C245.541 51.184 245.544 51.1175 245.565 51.0556C245.587 50.9936 245.626 50.9386 245.678 50.8968C245.731 50.855 245.795 50.8282 245.863 50.8193L246.871 50.6834C246.929 50.6751 246.985 50.6539 247.033 50.6214C247.081 50.589 247.12 50.5462 247.148 50.4965L247.594 49.6471C247.627 49.5943 247.674 49.5507 247.73 49.5204C247.787 49.4901 247.85 49.4741 247.915 49.4741C247.98 49.4741 248.043 49.4901 248.1 49.5204C248.156 49.5507 248.203 49.5943 248.236 49.6471Z" fill="#F5F5F5"/>
<path d="M392.36 36.2097L392.806 37.0591C392.833 37.1087 392.872 37.1515 392.921 37.184C392.969 37.2165 393.024 37.2377 393.082 37.2459L394.091 37.3903C394.157 37.4004 394.219 37.4275 394.27 37.4687C394.321 37.5099 394.359 37.5637 394.38 37.6241C394.401 37.6845 394.404 37.7493 394.39 37.8115C394.375 37.8736 394.342 37.9306 394.296 37.9764L393.564 38.6559C393.522 38.6949 393.49 38.7431 393.471 38.7963C393.453 38.8496 393.448 38.9063 393.457 38.9617L393.627 39.9215C393.637 39.9849 393.629 40.0498 393.603 40.109C393.578 40.1683 393.535 40.2197 393.481 40.2574C393.426 40.2952 393.362 40.3179 393.295 40.3231C393.228 40.3283 393.16 40.3157 393.1 40.2868L392.208 39.8366C392.157 39.8074 392.098 39.792 392.038 39.792C391.979 39.792 391.92 39.8074 391.869 39.8366L390.976 40.2868C390.916 40.3157 390.849 40.3283 390.782 40.3231C390.715 40.3179 390.65 40.2952 390.596 40.2574C390.541 40.2197 390.499 40.1683 390.473 40.109C390.448 40.0498 390.439 39.9849 390.45 39.9215L390.62 38.9617C390.629 38.9063 390.624 38.8496 390.605 38.7963C390.587 38.7431 390.555 38.6949 390.512 38.6559L389.79 37.9764C389.74 37.9325 389.704 37.8761 389.687 37.8137C389.67 37.7513 389.672 37.6855 389.692 37.624C389.713 37.5625 389.751 37.5079 389.803 37.4665C389.855 37.4251 389.919 37.3987 389.986 37.3903L390.994 37.2459C391.053 37.2391 391.109 37.2184 391.157 37.1858C391.206 37.1531 391.245 37.1096 391.271 37.0591L391.717 36.2097C391.749 36.1547 391.795 36.1088 391.852 36.0769C391.908 36.0449 391.973 36.0281 392.038 36.0281C392.104 36.0281 392.169 36.0449 392.225 36.0769C392.282 36.1088 392.328 36.1547 392.36 36.2097Z" fill="#EBEBEB"/>
<path d="M367.366 134.502L367.813 135.351C367.84 135.401 367.879 135.444 367.927 135.476C367.976 135.509 368.031 135.53 368.089 135.538L369.098 135.674C369.165 135.683 369.229 135.71 369.282 135.751C369.335 135.793 369.374 135.848 369.395 135.91C369.417 135.972 369.419 136.039 369.403 136.102C369.387 136.165 369.352 136.223 369.303 136.269L368.571 136.948C368.528 136.987 368.496 137.035 368.477 137.088C368.458 137.141 368.454 137.198 368.464 137.254L368.642 138.205C368.654 138.27 368.647 138.336 368.62 138.397C368.594 138.457 368.551 138.509 368.495 138.548C368.439 138.586 368.373 138.608 368.305 138.612C368.236 138.616 368.167 138.602 368.107 138.57L367.215 138.12C367.162 138.095 367.104 138.082 367.045 138.082C366.986 138.082 366.928 138.095 366.876 138.12L365.983 138.57C365.924 138.603 365.855 138.618 365.787 138.615C365.718 138.611 365.652 138.589 365.596 138.55C365.54 138.511 365.498 138.458 365.473 138.397C365.448 138.336 365.443 138.269 365.457 138.205L365.627 137.254C365.637 137.198 365.632 137.141 365.613 137.088C365.595 137.035 365.562 136.987 365.519 136.948L364.797 136.269C364.748 136.224 364.713 136.167 364.696 136.104C364.679 136.041 364.681 135.975 364.702 135.913C364.722 135.852 364.76 135.797 364.812 135.754C364.863 135.712 364.926 135.684 364.993 135.674L366.001 135.538C366.06 135.531 366.116 135.511 366.164 135.478C366.213 135.445 366.252 135.402 366.278 135.351L366.733 134.502C366.765 134.449 366.811 134.405 366.867 134.374C366.922 134.344 366.986 134.328 367.05 134.328C367.114 134.328 367.177 134.344 367.233 134.374C367.288 134.405 367.334 134.449 367.366 134.502Z" fill="#EBEBEB"/>
<path d="M260.354 25.5583C261.009 25.5583 261.54 25.0526 261.54 24.4286C261.54 23.8047 261.009 23.299 260.354 23.299C259.698 23.299 259.167 23.8047 259.167 24.4286C259.167 25.0526 259.698 25.5583 260.354 25.5583Z" fill="#EBEBEB"/>
<path d="M102.623 64.4266C103.278 64.4266 103.809 63.9208 103.809 63.2969C103.809 62.673 103.278 62.1672 102.623 62.1672C101.967 62.1672 101.436 62.673 101.436 63.2969C101.436 63.9208 101.967 64.4266 102.623 64.4266Z" fill="#EBEBEB"/>
<path d="M330.042 260.289C330.697 260.289 331.229 259.783 331.229 259.159C331.229 258.535 330.697 258.029 330.042 258.029C329.386 258.029 328.855 258.535 328.855 259.159C328.855 259.783 329.386 260.289 330.042 260.289Z" fill="#EBEBEB"/>
<path d="M349.779 86.7317C350.435 86.7317 350.966 86.2259 350.966 85.602C350.966 84.9781 350.435 84.4723 349.779 84.4723C349.124 84.4723 348.593 84.9781 348.593 85.602C348.593 86.2259 349.124 86.7317 349.779 86.7317Z" fill="#F5F5F5"/>
<path d="M112.054 179.189C112.054 179.412 111.985 179.63 111.854 179.816C111.724 180.002 111.539 180.147 111.322 180.232C111.105 180.318 110.866 180.34 110.636 180.297C110.406 180.253 110.194 180.145 110.028 179.987C109.862 179.829 109.749 179.628 109.704 179.409C109.658 179.19 109.681 178.963 109.771 178.756C109.861 178.55 110.013 178.373 110.208 178.249C110.403 178.125 110.633 178.059 110.868 178.059C111.024 178.058 111.179 178.086 111.323 178.143C111.468 178.199 111.599 178.282 111.709 178.387C111.82 178.492 111.907 178.617 111.966 178.755C112.026 178.892 112.056 179.04 112.054 179.189Z" fill="#F5F5F5"/>
<path d="M316.486 56.9745C330.364 54.8301 339.788 42.3823 337.535 29.1716C335.282 15.9608 322.206 6.98977 308.328 9.13418C294.45 11.2786 285.026 23.7264 287.279 36.9371C289.531 50.1479 302.608 59.1189 316.486 56.9745Z" fill="#F0F0F0"/>
<path d="M312.767 50.4881C313.607 50.3493 314.404 50.0351 315.102 49.5681C315.799 49.101 316.379 48.4928 316.8 47.787C315.459 48.4517 314.017 48.9131 312.526 49.1545C311.035 49.4073 309.513 49.4417 308.011 49.2564C308.659 49.7837 309.421 50.1676 310.244 50.3805C311.066 50.5935 311.928 50.6302 312.767 50.4881Z" fill="#FAFAFA"/>
<path d="M298.597 41.1532C299.024 41.8547 299.609 42.4576 300.309 42.9187C301.009 43.3798 301.808 43.6877 302.648 43.8203C300.426 41.8522 298.872 39.2966 298.187 36.4816C297.89 37.2411 297.773 38.0535 297.844 38.861C297.915 39.6685 298.172 40.4511 298.597 41.1532Z" fill="#FAFAFA"/>
<path d="M297.553 24.2418C296.985 24.8452 296.565 25.5616 296.325 26.3389C296.084 27.1161 296.028 27.9347 296.161 28.7351C296.78 27.4218 297.608 26.2071 298.615 25.1336C299.616 24.0542 300.783 23.1262 302.077 22.3816C301.226 22.3541 300.378 22.5066 299.596 22.8283C298.814 23.1499 298.116 23.6327 297.553 24.2418Z" fill="#FAFAFA"/>
<path d="M314.578 14.4227C313.749 14.2407 312.887 14.2363 312.055 14.4096C311.224 14.5829 310.443 14.9297 309.769 15.425C311.264 15.3132 312.769 15.4192 314.23 15.7393C315.707 16.0569 317.124 16.5868 318.433 17.3107C318.055 16.588 317.513 15.9541 316.846 15.4548C316.18 14.9554 315.405 14.6029 314.578 14.4227Z" fill="#FAFAFA"/>
<path d="M322.555 42.4188C323.227 41.9188 323.773 41.2828 324.154 40.5571C324.535 39.8314 324.742 39.034 324.759 38.2228C323.911 39.421 322.869 40.4845 321.672 41.374C320.486 42.2694 319.161 42.9856 317.746 43.4975C318.581 43.6696 319.447 43.662 320.279 43.4754C321.111 43.2888 321.889 42.9278 322.555 42.4188Z" fill="#FAFAFA"/>
<path d="M317.701 33.5002C318.373 33.0002 318.919 32.3643 319.3 31.6385C319.681 30.9128 319.888 30.1154 319.905 29.3042C319.055 30.4964 318.013 31.554 316.818 32.4385C315.633 33.332 314.312 34.048 312.901 34.562C313.734 34.7356 314.597 34.7304 315.427 34.5467C316.257 34.3631 317.034 34.0056 317.701 33.5002Z" fill="#FAFAFA"/>
<path d="M334.066 29.2957C333.882 28.5013 333.515 27.7556 332.992 27.1124C332.469 26.4691 331.803 25.9441 331.041 25.5753C332.534 28.0976 333.197 30.9889 332.942 33.8739C333.473 33.2372 333.849 32.4964 334.043 31.7048C334.238 30.9132 334.245 30.0905 334.066 29.2957Z" fill="#FAFAFA"/>
<path d="M223.074 312C273.896 312 315.096 309.711 315.096 306.887C315.096 304.063 273.896 301.773 223.074 301.773C172.251 301.773 131.051 304.063 131.051 306.887C131.051 309.711 172.251 312 223.074 312Z" fill="#F5F5F5"/>
<path d="M151.69 91.8451C151.331 91.3534 150.867 90.9395 150.328 90.6305C149.79 90.3216 149.188 90.1245 148.564 90.0523C147.94 89.9802 147.306 90.0345 146.706 90.2117C146.105 90.3889 145.55 90.685 145.078 91.0806C144.59 91.4806 144.182 91.9611 143.874 92.4991C142.912 92.0196 141.821 91.8295 140.744 91.9539C139.666 92.0783 138.654 92.5113 137.842 93.1956C136.793 94.07 136.064 95.2385 135.757 96.5328C135.451 97.8272 135.584 99.1807 136.137 100.398C135.186 101.292 134.597 102.476 134.473 103.742C134.349 105.008 134.698 106.276 135.459 107.321L135.691 107.601C135.213 108.012 134.907 108.573 134.828 109.182C134.749 109.79 134.904 110.405 135.263 110.914C135.436 111.153 135.659 111.355 135.92 111.506C136.181 111.657 136.472 111.754 136.774 111.79C137.077 111.826 137.384 111.801 137.676 111.716C137.967 111.631 138.237 111.488 138.466 111.296L154.822 98.0881C155.572 97.465 156.054 96.5997 156.174 95.6588C156.294 94.7179 156.045 93.7679 155.473 92.9917C155.059 92.4358 154.465 92.0234 153.783 91.8165C153.101 91.6097 152.366 91.6197 151.69 91.8451Z" fill="#C53F3F"/>
<path opacity="0.8" d="M151.69 91.8451C151.331 91.3534 150.867 90.9395 150.328 90.6305C149.79 90.3216 149.188 90.1245 148.564 90.0523C147.94 89.9802 147.306 90.0345 146.706 90.2117C146.105 90.3889 145.55 90.685 145.078 91.0806C144.59 91.4806 144.182 91.9611 143.874 92.4991C142.912 92.0196 141.821 91.8295 140.744 91.9539C139.666 92.0783 138.654 92.5113 137.842 93.1956C136.793 94.07 136.064 95.2385 135.757 96.5328C135.451 97.8272 135.584 99.1807 136.137 100.398C135.186 101.292 134.597 102.476 134.473 103.742C134.349 105.008 134.698 106.276 135.459 107.321L135.691 107.601C135.213 108.012 134.907 108.573 134.828 109.182C134.749 109.79 134.904 110.405 135.263 110.914C135.436 111.153 135.659 111.355 135.92 111.506C136.181 111.657 136.472 111.754 136.774 111.79C137.077 111.826 137.384 111.801 137.676 111.716C137.967 111.631 138.237 111.488 138.466 111.296L154.822 98.0881C155.572 97.465 156.054 96.5997 156.174 95.6588C156.294 94.7179 156.045 93.7679 155.473 92.9917C155.059 92.4358 154.465 92.0234 153.783 91.8165C153.101 91.6097 152.366 91.6197 151.69 91.8451Z" fill="white"/>
<path d="M104.702 227.392C103.938 227.685 103.247 228.128 102.676 228.693C102.104 229.257 101.664 229.931 101.384 230.668C101.105 231.406 100.992 232.191 101.053 232.973C101.114 233.755 101.348 234.516 101.739 235.206C102.129 235.916 102.656 236.55 103.292 237.075C102.37 238.103 101.797 239.374 101.647 240.718C101.497 242.063 101.778 243.419 102.453 244.609C103.321 246.136 104.673 247.363 106.318 248.115C107.962 248.867 109.813 249.106 111.608 248.796C112.53 250.209 113.944 251.267 115.603 251.786C117.263 252.305 119.061 252.251 120.683 251.633L121.12 251.438C121.522 252.146 122.183 252.689 122.977 252.963C123.772 253.237 124.645 253.223 125.43 252.924C125.801 252.784 126.136 252.571 126.414 252.298C126.692 252.026 126.907 251.7 127.043 251.343C127.18 250.986 127.235 250.606 127.206 250.227C127.178 249.848 127.065 249.479 126.875 249.145L113.982 225.421C113.367 224.338 112.355 223.508 111.139 223.09C109.923 222.672 108.587 222.694 107.388 223.153C106.516 223.485 105.782 224.078 105.298 224.843C104.813 225.608 104.604 226.503 104.702 227.392Z" fill="#C53F3F"/>
<path opacity="0.8" d="M104.702 227.392C103.938 227.685 103.247 228.128 102.676 228.693C102.104 229.257 101.664 229.931 101.384 230.668C101.105 231.406 100.992 232.191 101.053 232.973C101.114 233.755 101.348 234.516 101.739 235.206C102.129 235.916 102.656 236.55 103.292 237.075C102.37 238.103 101.797 239.374 101.647 240.718C101.497 242.063 101.778 243.419 102.453 244.609C103.321 246.136 104.673 247.363 106.318 248.115C107.962 248.867 109.813 249.106 111.608 248.796C112.53 250.209 113.944 251.267 115.603 251.786C117.263 252.305 119.061 252.251 120.683 251.633L121.12 251.438C121.522 252.146 122.183 252.689 122.977 252.963C123.772 253.237 124.645 253.223 125.43 252.924C125.801 252.784 126.136 252.571 126.414 252.298C126.692 252.026 126.907 251.7 127.043 251.343C127.18 250.986 127.235 250.606 127.206 250.227C127.178 249.848 127.065 249.479 126.875 249.145L113.982 225.421C113.367 224.338 112.355 223.508 111.139 223.09C109.923 222.672 108.587 222.694 107.388 223.153C106.516 223.485 105.782 224.078 105.298 224.843C104.813 225.608 104.604 226.503 104.702 227.392Z" fill="white"/>
<path d="M344.649 146.24C344.728 146.22 344.805 146.194 344.881 146.164C345.398 145.954 345.862 145.643 346.243 145.25C346.624 144.856 346.913 144.391 347.091 143.883C347.269 143.376 347.332 142.838 347.276 142.306C347.219 141.774 347.044 141.259 346.763 140.796C346.621 140.56 346.46 140.336 346.282 140.125C347.843 138.726 348.863 136.866 349.175 134.846C349.488 132.827 349.075 130.766 348.004 128.998C346.948 127.194 345.368 125.719 343.453 124.751C344.214 123.344 344.593 121.779 344.555 120.198C344.518 118.616 344.065 117.069 343.239 115.696C342.408 114.302 341.276 113.09 339.918 112.142C338.56 111.193 337.007 110.529 335.36 110.192C335.566 109.281 335.417 108.33 334.94 107.516C334.346 106.534 333.393 105.795 332.262 105.439C331.131 105.083 329.903 105.136 328.81 105.588C328.032 105.914 327.38 106.464 326.946 107.16C325.512 106.319 323.886 105.82 322.207 105.707C320.527 105.593 318.844 105.867 317.3 106.506C316.186 106.959 315.186 107.632 314.365 108.48C313.544 109.328 312.921 110.332 312.538 111.426C312.154 112.52 312.019 113.679 312.14 114.826C312.261 115.974 312.636 117.084 313.24 118.083L331.773 149.901C332.681 151.401 334.137 152.529 335.864 153.071C337.59 153.613 339.466 153.531 341.133 152.84C342.439 152.307 343.507 151.354 344.149 150.148C344.792 148.941 344.969 147.558 344.649 146.24Z" fill="#C53F3F"/>
<path opacity="0.8" d="M344.649 146.24C344.728 146.22 344.805 146.194 344.881 146.164C345.398 145.954 345.862 145.643 346.243 145.25C346.624 144.856 346.913 144.391 347.091 143.883C347.269 143.376 347.332 142.838 347.276 142.306C347.219 141.774 347.044 141.259 346.763 140.796C346.621 140.56 346.46 140.336 346.282 140.125C347.843 138.726 348.863 136.866 349.175 134.846C349.488 132.827 349.075 130.766 348.004 128.998C346.948 127.194 345.368 125.719 343.453 124.751C344.214 123.344 344.593 121.779 344.555 120.198C344.518 118.616 344.065 117.069 343.239 115.696C342.408 114.302 341.276 113.09 339.918 112.142C338.56 111.193 337.007 110.529 335.36 110.192C335.566 109.281 335.417 108.33 334.94 107.516C334.346 106.534 333.393 105.795 332.262 105.439C331.131 105.083 329.903 105.136 328.81 105.588C328.032 105.914 327.38 106.464 326.946 107.16C325.512 106.319 323.886 105.82 322.207 105.707C320.527 105.593 318.844 105.867 317.3 106.506C316.186 106.959 315.186 107.632 314.365 108.48C313.544 109.328 312.921 110.332 312.538 111.426C312.154 112.52 312.019 113.679 312.14 114.826C312.261 115.974 312.636 117.084 313.24 118.083L331.773 149.901C332.681 151.401 334.137 152.529 335.864 153.071C337.59 153.613 339.466 153.531 341.133 152.84C342.439 152.307 343.507 151.354 344.149 150.148C344.792 148.941 344.969 147.558 344.649 146.24Z" fill="white"/>
<path d="M124.484 205.418C123.202 199.264 122.557 193.005 122.557 186.731H123.395C123.394 192.968 124.037 199.19 125.314 205.308L124.484 205.418Z" fill="#C53F3F"/>
<path d="M316.836 156.578C315.617 153.138 314.19 149.769 312.562 146.487L313.329 146.139C314.969 149.455 316.408 152.858 317.639 156.331L316.836 156.578Z" fill="#C53F3F"/>
<path d="M310.768 143.064C307.914 137.867 304.56 132.933 300.748 128.327L301.408 127.834C305.255 132.477 308.639 137.45 311.518 142.69L310.768 143.064Z" fill="#C53F3F"/>
<path d="M123.547 181.524L122.655 181.474C122.788 179.282 122.994 177.082 123.27 174.925L124.109 175.027C123.877 177.184 123.672 179.376 123.547 181.524Z" fill="#C53F3F"/>
<path d="M222.708 279.256C276.388 279.256 319.905 237.831 319.905 186.731C319.905 135.631 276.388 94.2065 222.708 94.2065C169.027 94.2065 125.51 135.631 125.51 186.731C125.51 237.831 169.027 279.256 222.708 279.256Z" fill="#C53F3F"/>
<g opacity="0.3">
<path d="M144.65 143.658C143.99 140.295 143.395 137.047 142.865 133.916C138.761 139.519 135.322 145.538 132.613 151.864C138.609 149.061 144.641 143.641 144.65 143.658Z" fill="white"/>
<path d="M162.746 249C165.039 246.027 166.672 243.165 165.654 240.192C164.637 237.219 152.904 233.941 152.966 233.932C150.23 232.301 147.523 230.648 144.846 228.972C144.827 226.671 143.867 224.468 142.169 222.83C141.276 222.071 140.225 221.499 139.084 221.151C137.944 220.802 136.739 220.686 135.548 220.809C133.443 218.108 131.39 215.387 129.392 212.646C135.02 230.988 146.475 247.221 162.183 259.117C162.665 257.97 164.557 253.094 162.746 249Z" fill="white"/>
<path d="M159.283 120.979L162.647 122.517C164.914 118.669 167.216 115.042 169.545 111.696C176.371 108.74 183.224 106.022 189.943 103.584C190.781 101.885 191.629 100.254 192.468 98.7848C180.226 102.598 168.905 108.697 159.167 116.724C159.194 118.109 159.221 119.519 159.283 120.979Z" fill="white"/>
<path d="M191.718 116.384C195.395 116.699 197.902 112.027 197.893 112.078C197.358 111.059 196.831 110.065 196.314 109.096C192.887 110.065 189.449 111.07 185.999 112.112C185.981 112.069 188.033 115.994 191.718 116.384Z" fill="white"/>
<path d="M213.116 139.055C211.509 136.105 209.939 133.239 208.404 130.459C207.726 128.76 207.066 127.129 206.406 125.515C205.513 126.849 204.532 128.208 203.595 129.584L206.887 134.307C206.221 137.104 205.549 139.972 204.871 142.911C207.631 141.58 210.379 140.295 213.116 139.055Z" fill="white"/>
<path d="M199.062 134.995C198.705 136.94 198.339 138.927 197.991 140.94L202.64 138.868C203.354 137.492 204.059 136.124 204.773 134.782L202.051 133.007L199.062 134.995Z" fill="white"/>
<path d="M267.858 104.782L264.11 105.257C261.362 107.015 258.462 108.944 255.41 111.016C255.262 112.149 255.101 113.321 254.928 114.533L251.707 114.719C249.542 112.511 247.406 110.413 245.301 108.425L250.592 109.147L253.358 109.241C253.492 108.519 253.626 107.814 253.76 107.117C248.129 104.739 242.588 102.565 237.225 100.62C234.486 101.783 231.649 103.04 228.74 104.382C226.75 107.78 224.608 111.662 222.378 115.917C220.807 116.795 219.228 117.687 217.64 118.593C217.64 120.98 217.711 123.477 217.756 126.059C221.158 127.605 224.596 129.196 228.07 130.833C229.337 129.609 230.593 128.409 231.836 127.231C231.586 124.309 231.336 121.509 231.086 118.831C232.487 116.002 233.835 113.318 235.12 110.812L239.108 110.753C237.984 112.559 236.824 114.459 235.628 116.452C235.914 118.338 236.211 120.297 236.52 122.33L239.313 123.842C239.313 124.258 239.251 124.691 239.215 125.108L237.912 126.755L239.474 129.304C239.242 129.898 239.001 130.493 238.769 131.096C238.876 132.022 238.983 132.956 239.099 133.899C235.732 134.182 232.356 134.465 228.972 134.748C227.071 132.956 225.188 131.189 223.323 129.473L221.467 129.864C221.61 131.829 221.762 133.834 221.923 135.878L216.952 137.823C215.239 139.448 213.517 141.096 211.786 142.767C209.74 143.837 207.696 144.921 205.656 146.02L209.689 150.606C209.618 152.305 209.552 154.035 209.493 155.796C206.272 155.941 203.059 156.102 199.865 156.263C199.526 158.857 199.196 161.473 198.875 164.112C199.133 165.972 199.392 167.849 199.651 169.726L204.728 171.782L211.572 166.796C213.017 163.489 214.457 160.216 215.891 156.977L218.683 155.626L223.529 156.026C226.241 158.172 228.963 160.343 231.693 162.54C231.898 163.815 232.113 165.089 232.327 166.38L234.022 165.836C234.299 164.418 234.575 163.008 234.843 161.589C232.797 159.364 230.759 157.152 228.731 154.955L230.515 154.361C232.657 155.771 234.816 157.189 236.967 158.608C237.805 161.439 238.644 164.307 239.483 167.212C240.75 168.495 242.008 169.76 243.275 171.077L245.782 167.926C244.64 166.499 243.495 165.083 242.347 163.679L246.416 161.53C246.725 163.336 247.023 165.157 247.308 166.991C249.093 169.013 250.877 171.037 252.662 173.064L259.854 175.613V178.925L256.285 179.885H249.432L241.178 177.099L238.983 177.787C238.983 178.857 238.983 179.928 238.983 180.989C234.343 177.142 229.677 173.277 225.019 169.455C218.496 170.788 211.956 172.13 205.46 173.489L202.551 174.729C200.998 176.207 199.455 177.694 197.92 179.172C197.67 180.471 197.429 181.762 197.188 183.062C193.714 187.371 190.303 191.644 186.954 195.879C187.034 200.976 187.159 206.072 187.328 211.015C191.647 215.721 196.001 220.359 200.311 224.827C205.457 224.011 210.653 223.162 215.9 222.278C219.261 223.705 222.598 225.107 225.911 226.483C225.429 228.618 224.947 230.713 224.466 232.768C226.027 234.824 227.553 236.829 229.07 238.782C229.932 242.18 230.768 245.436 231.577 248.55C230.215 250.549 228.871 252.463 227.544 254.292C228.561 256.586 229.543 258.751 230.48 260.765C231.961 265.012 233.299 268.604 234.45 271.365C237.425 271.138 240.399 270.889 243.373 270.618C246.05 268.919 248.727 267.016 251.52 264.859C252.278 264.094 253.046 263.304 253.813 262.489L256.133 262.081C256.133 260.595 256.178 259.023 256.133 257.367C258.81 255.753 261.487 254.054 264.217 252.271C264.521 247.701 264.699 242.647 264.77 237.219C269.232 233.125 273.693 228.844 278.155 224.478C279.832 220.928 281.483 217.284 283.089 213.589C279.96 214.286 276.787 214.979 273.569 215.67C268.759 206.692 263.432 197.153 257.873 187.47L260.496 185.669L262.754 185.389C266.278 191.632 269.696 197.816 272.917 203.83C273.256 206.276 273.571 208.697 273.863 211.092C278.027 209.121 282.158 207.139 286.257 205.146C288.981 201.964 291.658 198.778 294.288 195.59C292.771 193.713 291.218 191.811 289.63 189.899H284.758C282.004 187.448 279.187 184.967 276.308 182.459L280.519 180.556C283.268 182.9 286.001 185.205 288.72 187.47L303.755 189.364C305.432 191.805 307.056 194.22 308.627 196.61L311.134 195.905C311.556 198.481 311.946 201.029 312.303 203.549C313.362 207.575 314.317 211.5 315.167 215.322C322.25 194.546 321.389 172.054 312.735 151.824C304.08 131.594 288.191 114.928 267.876 104.773L267.858 104.782Z" fill="white"/>
<path d="M276.129 252.092C276.424 250.725 276.709 249.306 277.022 247.845C274.461 249.807 271.891 251.71 269.339 253.528C268.384 256.076 267.403 258.522 266.412 260.748L266.992 262.293L269.83 262.124C271.918 259.125 274.041 255.753 276.129 252.092Z" fill="white"/>
</g>
<path d="M131.462 152.645C131.423 152.645 131.384 152.635 131.351 152.616C131.318 152.596 131.291 152.568 131.274 152.534C131.249 152.487 131.244 152.432 131.261 152.381C131.277 152.33 131.314 152.288 131.364 152.263C135.626 150.085 139.576 147.393 143.115 144.253L143.222 144.159C142.589 140.923 142.009 137.679 141.5 134.527C141.497 134.477 141.514 134.428 141.547 134.389C141.579 134.35 141.626 134.324 141.678 134.316C141.73 134.307 141.783 134.317 141.827 134.344C141.872 134.37 141.905 134.411 141.919 134.459C142.428 137.653 143.017 140.932 143.659 144.202C143.667 144.238 143.663 144.276 143.649 144.311C143.635 144.345 143.611 144.375 143.579 144.397L143.392 144.559C139.826 147.722 135.846 150.434 131.551 152.628C131.524 152.642 131.493 152.648 131.462 152.645Z" fill="white"/>
<path d="M160.97 259.89C160.947 259.898 160.921 259.898 160.898 259.89C160.872 259.881 160.848 259.868 160.828 259.85C160.807 259.833 160.791 259.811 160.779 259.788C160.768 259.764 160.761 259.738 160.76 259.712C160.759 259.685 160.764 259.659 160.774 259.635C161.505 257.894 163.031 253.443 161.354 249.663C161.336 249.633 161.327 249.599 161.327 249.565C161.327 249.531 161.336 249.498 161.354 249.468C163.45 246.749 165.253 243.828 164.236 240.846C163.647 239.198 159.167 236.99 151.949 234.799C151.842 234.768 151.738 234.732 151.636 234.688C148.906 233.066 146.176 231.392 143.517 229.719C143.486 229.697 143.462 229.669 143.445 229.637C143.428 229.604 143.419 229.568 143.418 229.532C143.39 227.301 142.449 225.168 140.795 223.586C139.928 222.847 138.907 222.29 137.798 221.95C136.69 221.611 135.519 221.497 134.362 221.616C134.323 221.622 134.284 221.618 134.248 221.605C134.212 221.591 134.18 221.569 134.156 221.539C132.095 218.898 130.016 216.154 127.991 213.368C127.959 213.324 127.947 213.27 127.957 213.218C127.967 213.165 127.999 213.119 128.044 213.088C128.091 213.06 128.147 213.05 128.202 213.059C128.256 213.069 128.305 213.097 128.339 213.139C130.337 215.891 132.39 218.601 134.424 221.208C135.627 221.097 136.84 221.225 137.988 221.585C139.136 221.945 140.192 222.528 141.09 223.298C142.808 224.942 143.792 227.154 143.838 229.473C146.461 231.112 149.192 232.76 151.868 234.365L152.1 234.442C156.419 235.75 163.798 238.315 164.664 240.744C165.735 243.862 163.932 246.86 161.791 249.637C163.459 253.528 161.925 258.038 161.175 259.83C161.15 259.857 161.118 259.877 161.081 259.887C161.045 259.898 161.007 259.899 160.97 259.89Z" fill="white"/>
<path d="M161.443 123.29C161.414 123.297 161.383 123.297 161.354 123.29L157.999 121.761C157.965 121.744 157.936 121.72 157.914 121.691C157.892 121.661 157.878 121.627 157.874 121.591C157.82 120.308 157.784 118.949 157.758 117.344C157.756 117.318 157.761 117.291 157.771 117.267C157.78 117.242 157.795 117.219 157.814 117.2C157.834 117.181 157.857 117.166 157.882 117.156C157.908 117.146 157.935 117.14 157.963 117.14C158.017 117.14 158.069 117.161 158.108 117.197C158.146 117.234 158.168 117.284 158.168 117.336C158.168 118.915 158.231 120.232 158.284 121.472L161.354 122.874C163.62 119.034 165.913 115.441 168.162 112.205C168.182 112.171 168.214 112.145 168.251 112.129C175.015 109.207 181.85 106.489 188.586 104.043C189.407 102.344 190.246 100.755 191.076 99.3114C191.086 99.2826 191.102 99.2561 191.123 99.234C191.145 99.2119 191.172 99.1947 191.201 99.1835C191.231 99.1724 191.263 99.1677 191.294 99.1698C191.326 99.1718 191.357 99.1806 191.385 99.1954C191.412 99.2102 191.436 99.2307 191.455 99.2554C191.473 99.2801 191.486 99.3084 191.491 99.3382C191.496 99.368 191.495 99.3986 191.486 99.4277C191.478 99.4569 191.463 99.4839 191.442 99.5068C190.612 100.959 189.764 102.573 188.934 104.289C188.907 104.333 188.867 104.369 188.818 104.391C182.082 106.837 175.247 109.555 168.483 112.477C166.217 115.739 163.906 119.357 161.621 123.239C161.597 123.26 161.569 123.275 161.538 123.284C161.507 123.293 161.475 123.295 161.443 123.29Z" fill="white"/>
<path d="M190.871 117.174H190.496C186.927 116.783 184.839 113.199 184.616 112.791C184.594 112.745 184.592 112.692 184.611 112.645C184.629 112.597 184.666 112.559 184.714 112.536H184.758C188.176 111.5 191.638 110.489 195.064 109.53C195.112 109.516 195.163 109.519 195.209 109.538C195.254 109.557 195.291 109.59 195.314 109.632C195.823 110.591 196.358 111.585 196.894 112.604C196.913 112.637 196.924 112.673 196.924 112.711C196.924 112.748 196.913 112.784 196.894 112.817C196.216 113.861 193.967 117.174 190.871 117.174ZM190.541 116.758C193.548 117.004 195.805 113.709 196.456 112.638C195.969 111.704 195.487 110.795 195.011 109.912C191.718 110.838 188.39 111.806 185.106 112.8C185.597 113.641 187.498 116.427 190.541 116.758Z" fill="white"/>
<path d="M203.675 143.641C203.651 143.643 203.627 143.641 203.604 143.633C203.581 143.626 203.559 143.614 203.541 143.599C203.51 143.577 203.487 143.546 203.475 143.511C203.462 143.477 203.46 143.439 203.47 143.403C204.112 140.584 204.782 137.713 205.469 134.91C204.362 133.338 203.283 131.784 202.221 130.263C202.197 130.231 202.185 130.192 202.185 130.153C202.185 130.114 202.197 130.075 202.221 130.043C203.167 128.666 204.112 127.307 205.04 125.974C205.061 125.942 205.092 125.916 205.129 125.901C205.166 125.886 205.206 125.882 205.246 125.889C205.283 125.894 205.319 125.908 205.348 125.931C205.378 125.953 205.401 125.983 205.415 126.016L207.414 130.96C208.94 133.712 210.51 136.583 212.116 139.53C212.127 139.554 212.133 139.58 212.133 139.607C212.133 139.633 212.127 139.659 212.116 139.683C212.096 139.733 212.058 139.775 212.009 139.802C209.288 141.059 206.513 142.35 203.755 143.658C203.728 143.659 203.7 143.654 203.675 143.641ZM202.649 130.119L205.87 134.731C205.888 134.781 205.888 134.834 205.87 134.884C205.21 137.611 204.567 140.363 203.943 143.081C206.513 141.866 209.082 140.668 211.608 139.496C210.037 136.617 208.494 133.805 206.994 131.087C206.364 129.519 205.742 127.987 205.13 126.492C204.321 127.681 203.494 128.89 202.649 130.119Z" fill="white"/>
<path d="M196.787 141.713C196.746 141.725 196.702 141.725 196.662 141.713C196.63 141.691 196.606 141.661 196.592 141.627C196.577 141.592 196.574 141.554 196.581 141.518C196.938 139.505 197.295 137.517 197.661 135.572C197.668 135.518 197.697 135.47 197.741 135.436L200.731 133.457C200.767 133.436 200.809 133.425 200.851 133.425C200.893 133.425 200.935 133.436 200.971 133.457L203.648 135.156L203.729 135.207C203.772 135.233 203.803 135.274 203.816 135.321C203.83 135.368 203.824 135.418 203.8 135.462C203.086 136.804 202.381 138.171 201.667 139.547C201.644 139.589 201.606 139.622 201.56 139.641L196.912 141.713H196.787ZM198.089 135.657C197.75 137.458 197.42 139.293 197.09 141.144L201.311 139.276C201.989 137.967 202.661 136.676 203.327 135.402L200.882 133.805L198.089 135.657Z" fill="white"/>
<path d="M233.246 272.113C233.204 272.111 233.163 272.098 233.128 272.076C233.094 272.053 233.066 272.022 233.049 271.985C231.925 269.284 230.587 265.717 229.079 261.376C228.142 259.363 227.151 257.189 226.152 254.912C226.136 254.883 226.128 254.851 226.128 254.819C226.128 254.786 226.136 254.754 226.152 254.725C227.464 252.899 228.829 250.997 230.141 249.06C229.346 246.019 228.517 242.791 227.66 239.419C226.152 237.466 224.608 235.453 223.082 233.431C223.069 233.406 223.062 233.378 223.062 233.35C223.062 233.322 223.069 233.295 223.082 233.27C223.546 231.274 223.975 229.227 224.492 227.146C221.271 225.812 217.979 224.427 214.677 223.034C209.404 223.884 204.175 224.733 199.151 225.583C199.117 225.59 199.082 225.589 199.049 225.578C199.015 225.568 198.986 225.549 198.964 225.523C194.663 221.064 190.3 216.418 185.972 211.712C185.947 211.673 185.928 211.63 185.918 211.585C185.749 206.667 185.624 201.57 185.544 196.44C185.545 196.397 185.561 196.355 185.588 196.321C188.925 192.074 192.361 187.827 195.787 183.538L196.51 179.698C196.522 179.66 196.543 179.625 196.572 179.596C198.107 178.11 199.651 176.632 201.203 175.146C201.224 175.142 201.245 175.142 201.266 175.146L204.318 173.888C210.876 172.521 217.461 171.162 223.948 169.845C223.981 169.837 224.015 169.837 224.047 169.844C224.08 169.852 224.11 169.867 224.135 169.888C228.597 173.566 233.183 177.354 237.743 181.134C237.743 180.216 237.743 179.299 237.743 178.382C237.742 178.339 237.756 178.297 237.781 178.262C237.807 178.227 237.843 178.201 237.886 178.186L240.081 177.498C240.124 177.482 240.172 177.482 240.215 177.498L248.441 180.276H255.196L258.587 179.367C258.587 178.356 258.587 177.354 258.587 176.352L251.529 173.888L251.44 173.829C249.655 171.802 247.87 169.775 246.086 167.747C246.06 167.721 246.041 167.689 246.032 167.654C245.747 165.955 245.452 164.188 245.14 162.473L241.571 164.367L244.854 168.452C244.881 168.487 244.895 168.529 244.895 168.571C244.895 168.614 244.881 168.656 244.854 168.69L242.347 171.85C242.328 171.873 242.303 171.892 242.276 171.905C242.248 171.918 242.218 171.925 242.187 171.926C242.157 171.929 242.127 171.926 242.099 171.915C242.071 171.905 242.046 171.888 242.026 171.867C240.759 170.565 239.492 169.273 238.225 167.994C238.205 167.968 238.189 167.939 238.18 167.909C237.35 165.046 236.512 162.192 235.682 159.415C233.576 158.01 231.476 156.623 229.382 155.253L227.972 155.72C229.935 157.838 231.904 159.975 233.879 162.133C233.898 162.155 233.911 162.181 233.919 162.209C233.927 162.237 233.928 162.266 233.924 162.294C233.656 163.704 233.38 165.114 233.103 166.541C233.097 166.576 233.082 166.608 233.058 166.635C233.034 166.662 233.004 166.682 232.969 166.694L231.265 167.246C231.237 167.258 231.206 167.265 231.176 167.265C231.145 167.265 231.114 167.258 231.086 167.246C231.06 167.233 231.037 167.213 231.02 167.19C231.003 167.166 230.992 167.139 230.988 167.11L230.373 163.347C227.678 161.184 225.001 159.041 222.342 156.918L217.631 156.527L214.954 157.818C213.535 161.037 212.098 164.29 210.671 167.569C210.655 167.6 210.634 167.629 210.608 167.654C208.324 169.313 206.04 170.975 203.755 172.64C203.722 172.656 203.686 172.665 203.648 172.665C203.611 172.665 203.574 172.656 203.541 172.64L198.393 170.482C198.36 170.469 198.332 170.448 198.31 170.421C198.288 170.394 198.274 170.363 198.268 170.33C198.009 168.444 197.75 166.575 197.5 164.707C197.822 162.022 198.152 159.398 198.482 156.807C198.488 156.761 198.511 156.719 198.547 156.688C198.583 156.657 198.63 156.639 198.678 156.637L208.119 156.17C208.181 154.522 208.235 152.874 208.306 151.252L204.264 146.776C204.243 146.753 204.227 146.726 204.218 146.696C204.208 146.667 204.206 146.636 204.21 146.606C204.216 146.577 204.228 146.549 204.247 146.526C204.265 146.502 204.29 146.483 204.318 146.47C206.364 145.377 208.398 144.296 210.421 143.225C212.152 141.56 213.868 139.921 215.569 138.307C215.587 138.286 215.613 138.271 215.641 138.265C217.256 137.628 218.862 136.991 220.468 136.371C220.316 134.375 220.165 132.412 220.022 130.501C220.016 130.453 220.03 130.405 220.059 130.366C220.089 130.327 220.133 130.299 220.183 130.289L222.047 129.898C222.082 129.89 222.118 129.89 222.153 129.899C222.187 129.908 222.218 129.925 222.244 129.949C224.082 131.648 225.965 133.406 227.821 135.165C231.095 134.867 234.397 134.578 237.636 134.315C237.538 133.466 237.431 132.616 237.332 131.716C237.328 131.685 237.328 131.654 237.332 131.623L238.002 129.924C237.502 129.074 237.002 128.267 236.494 127.444C236.472 127.41 236.461 127.372 236.461 127.333C236.461 127.294 236.472 127.256 236.494 127.223L237.761 125.626L237.841 124.539L235.164 123.095C235.136 123.078 235.112 123.056 235.093 123.029C235.075 123.003 235.062 122.973 235.057 122.942C234.772 120.92 234.474 118.961 234.165 117.064C234.156 117.022 234.156 116.979 234.165 116.937C235.289 115.076 236.396 113.259 237.448 111.543L233.977 111.602C232.737 114.023 231.408 116.699 230.025 119.451C230.274 122.143 230.524 124.955 230.765 127.8C230.768 127.83 230.764 127.86 230.754 127.888C230.743 127.916 230.725 127.941 230.703 127.962C229.465 129.145 228.21 130.346 226.937 131.563C226.902 131.587 226.86 131.6 226.817 131.6C226.773 131.6 226.731 131.587 226.696 131.563C223.279 129.958 219.808 128.352 216.381 126.798C216.346 126.782 216.317 126.756 216.296 126.725C216.276 126.693 216.265 126.657 216.265 126.62C216.218 124.032 216.179 121.543 216.149 119.153C216.148 119.118 216.156 119.083 216.174 119.052C216.191 119.021 216.216 118.994 216.248 118.975C217.83 118.075 219.391 117.194 220.932 116.333C223.198 112.027 225.331 108.162 227.276 104.833C227.297 104.799 227.328 104.772 227.365 104.756C230.239 103.431 233.094 102.208 235.86 100.993C235.886 100.983 235.913 100.978 235.94 100.978C235.968 100.978 235.995 100.983 236.021 100.993C241.375 102.938 246.96 105.121 252.564 107.5C252.608 107.518 252.644 107.55 252.666 107.59C252.689 107.63 252.697 107.676 252.689 107.721C252.558 108.411 252.424 109.116 252.287 109.836C252.275 109.884 252.247 109.926 252.206 109.957C252.166 109.988 252.116 110.005 252.064 110.005L249.307 109.912L244.622 109.266C246.541 111.093 248.522 113.038 250.512 115.076L253.465 114.906C253.626 113.76 253.777 112.639 253.92 111.56C253.93 111.503 253.962 111.451 254.009 111.415C257.061 109.343 259.988 107.398 262.718 105.657C262.747 105.649 262.778 105.649 262.807 105.657L266.546 105.181C266.574 105.177 266.603 105.179 266.63 105.186C266.658 105.193 266.683 105.205 266.706 105.222C266.728 105.239 266.747 105.259 266.761 105.283C266.775 105.306 266.784 105.332 266.787 105.359C266.791 105.385 266.789 105.411 266.782 105.436C266.775 105.461 266.763 105.485 266.746 105.505C266.73 105.526 266.709 105.543 266.685 105.556C266.662 105.569 266.636 105.577 266.609 105.58L262.914 106.047C260.238 107.746 257.338 109.683 254.331 111.73C254.179 112.834 254.027 113.981 253.858 115.127C253.852 115.174 253.829 115.217 253.793 115.25C253.757 115.282 253.711 115.302 253.661 115.306L250.44 115.493C250.379 115.49 250.32 115.469 250.271 115.433C248.102 113.216 245.952 111.093 243.873 109.139C243.848 109.106 243.834 109.066 243.834 109.024C243.834 108.983 243.848 108.943 243.873 108.91C243.887 108.869 243.917 108.835 243.957 108.814C243.997 108.794 244.043 108.788 244.087 108.799C245.872 109.029 247.656 109.275 249.378 109.521L251.939 109.606C252.055 108.995 252.171 108.4 252.278 107.814C246.764 105.478 241.285 103.321 235.994 101.41C233.317 102.565 230.462 103.805 227.651 105.104C225.706 108.426 223.582 112.282 221.325 116.58C221.302 116.614 221.271 116.643 221.235 116.665C219.713 117.514 218.169 118.386 216.604 119.281C216.604 121.591 216.676 124.003 216.72 126.501C220.067 128.021 223.448 129.584 226.786 131.155C227.975 129.995 229.165 128.862 230.355 127.758C230.114 124.921 229.864 122.126 229.614 119.451C229.605 119.417 229.605 119.382 229.614 119.349C231.015 116.495 232.38 113.794 233.647 111.331C233.664 111.297 233.691 111.269 233.724 111.249C233.757 111.23 233.796 111.22 233.835 111.22L237.814 111.152C237.885 111.169 237.95 111.204 238.002 111.254C238.02 111.285 238.029 111.32 238.029 111.356C238.029 111.392 238.02 111.427 238.002 111.458C236.895 113.242 235.735 115.144 234.557 117.089C234.834 118.933 235.12 120.844 235.396 122.806L238.073 124.275C238.109 124.292 238.138 124.319 238.157 124.353C238.176 124.386 238.184 124.424 238.18 124.462L238.091 125.728C238.086 125.767 238.07 125.805 238.046 125.838L236.824 127.376C237.324 128.183 237.814 128.998 238.314 129.83C238.337 129.885 238.337 129.946 238.314 130L237.627 131.75C237.734 132.659 237.841 133.568 237.948 134.494C237.952 134.521 237.951 134.548 237.943 134.574C237.935 134.601 237.922 134.625 237.903 134.646C237.886 134.667 237.865 134.684 237.84 134.696C237.815 134.707 237.788 134.714 237.761 134.714C234.424 134.995 231.024 135.3 227.633 135.606C227.602 135.609 227.571 135.606 227.541 135.595C227.512 135.585 227.485 135.568 227.464 135.547C225.617 133.797 223.743 132.047 221.905 130.348L220.334 130.68C220.477 132.582 220.62 134.536 220.771 136.524C220.776 136.566 220.765 136.608 220.74 136.644C220.716 136.679 220.68 136.706 220.638 136.719L215.712 138.656C214.017 140.261 212.304 141.9 210.581 143.557H210.528L204.621 146.699L208.556 151.048C208.569 151.093 208.569 151.14 208.556 151.184C208.493 152.883 208.422 154.633 208.369 156.374C208.364 156.424 208.341 156.47 208.303 156.504C208.265 156.539 208.216 156.559 208.163 156.561L198.714 157.028C198.384 159.576 198.063 162.124 197.75 164.673C197.991 166.448 198.25 168.282 198.5 170.126L203.354 172.088L210.064 167.204C211.492 163.914 212.922 160.658 214.356 157.436C214.376 157.392 214.41 157.356 214.454 157.334L217.247 155.983C217.265 155.975 217.285 155.971 217.305 155.971C217.325 155.971 217.345 155.975 217.363 155.983L222.208 156.382C222.251 156.384 222.292 156.399 222.324 156.425C225.037 158.571 227.758 160.743 230.489 162.94C230.526 162.974 230.551 163.019 230.56 163.067L231.149 166.669L232.496 166.235C232.764 164.888 233.023 163.546 233.272 162.209C231.256 160.001 229.242 157.815 227.232 155.652C227.217 155.623 227.209 155.591 227.209 155.559C227.209 155.526 227.217 155.494 227.232 155.465C227.24 155.433 227.256 155.404 227.28 155.38C227.303 155.356 227.333 155.339 227.365 155.329L229.15 154.726C229.18 154.714 229.212 154.707 229.244 154.707C229.276 154.707 229.308 154.714 229.337 154.726C231.491 156.136 233.641 157.552 235.789 158.973C235.81 158.984 235.828 159 235.842 159.019C235.856 159.039 235.865 159.06 235.869 159.083C236.708 161.915 237.544 164.766 238.376 167.637L241.946 171.298L244.203 168.452C243.097 167.068 241.981 165.692 240.866 164.307C240.853 164.282 240.846 164.255 240.846 164.227C240.846 164.199 240.853 164.171 240.866 164.146C240.882 164.089 240.92 164.041 240.973 164.01L245.033 161.861C245.063 161.846 245.097 161.838 245.131 161.838C245.165 161.838 245.199 161.846 245.229 161.861C245.259 161.874 245.286 161.894 245.306 161.92C245.326 161.945 245.34 161.974 245.345 162.005C245.658 163.798 245.961 165.607 246.238 167.416C248.022 169.404 249.786 171.403 251.529 173.413C253.908 174.24 256.288 175.069 258.667 175.902C258.707 175.916 258.742 175.942 258.768 175.975C258.793 176.008 258.808 176.047 258.81 176.088C258.81 177.193 258.81 178.297 258.81 179.401C258.813 179.444 258.799 179.487 258.771 179.522C258.743 179.556 258.703 179.58 258.658 179.588L255.089 180.556H248.111L239.92 177.787L237.948 178.416V181.525C237.951 181.564 237.941 181.603 237.92 181.637C237.899 181.671 237.867 181.698 237.829 181.715C237.792 181.731 237.75 181.737 237.709 181.73C237.668 181.723 237.63 181.705 237.6 181.677C232.96 177.821 228.285 173.965 223.716 170.202C217.3 171.519 210.76 172.869 204.264 174.22L201.293 175.451C199.77 176.907 198.253 178.365 196.742 179.826L196.019 183.648C196.028 183.679 196.028 183.711 196.019 183.741C192.602 187.988 189.175 192.278 185.829 196.482C185.91 201.579 186.034 206.607 186.204 211.474C190.487 216.129 194.806 220.733 199.062 225.141C204.068 224.351 209.279 223.51 214.534 222.593C214.575 222.58 214.619 222.58 214.659 222.593C218.014 224.011 221.378 225.43 224.662 226.789C224.707 226.807 224.745 226.84 224.767 226.882C224.79 226.924 224.797 226.972 224.787 227.018C224.305 229.125 223.832 231.197 223.359 233.219C224.885 235.223 226.411 237.228 227.91 239.164C227.914 239.19 227.914 239.216 227.91 239.241C228.802 242.639 229.623 245.926 230.426 249.009C230.447 249.061 230.447 249.119 230.426 249.17C229.097 251.099 227.749 253.001 226.455 254.819C227.437 257.053 228.409 259.193 229.337 261.181C230.828 265.428 232.139 268.978 233.255 271.662C236.155 271.433 239.072 271.187 241.928 270.923C244.515 269.284 247.282 267.356 250.021 265.207C250.77 264.459 251.538 263.661 252.296 262.863C252.325 262.828 252.366 262.803 252.412 262.795L252.742 262.735L254.527 262.412C254.527 260.985 254.527 259.457 254.527 257.868C254.526 257.834 254.535 257.801 254.552 257.771C254.57 257.741 254.595 257.716 254.625 257.698C257.302 256.101 259.979 254.42 262.611 252.687C262.906 248.245 263.093 243.225 263.164 237.746C263.167 237.693 263.19 237.642 263.227 237.602C267.688 233.558 272.15 229.269 276.611 224.861C278.208 221.463 279.806 217.938 281.367 214.371C278.405 215.025 275.344 215.696 272.248 216.358C272.203 216.366 272.157 216.36 272.115 216.342C272.074 216.324 272.039 216.294 272.016 216.256C267.189 207.287 261.897 197.807 256.285 188.073C256.258 188.032 256.25 187.981 256.261 187.934C256.273 187.886 256.304 187.845 256.347 187.819L258.971 186.018C259.002 186.006 259.037 186.006 259.069 186.018L261.317 185.738C261.36 185.728 261.405 185.733 261.444 185.752C261.483 185.77 261.514 185.801 261.531 185.839C265.047 192.049 268.473 198.258 271.704 204.28V204.348C272.025 206.752 272.328 209.104 272.596 211.33C276.736 209.376 280.805 207.431 284.678 205.537C287.354 202.42 290.031 199.26 292.557 196.143C291.093 194.333 289.585 192.49 288.095 190.656H283.321C283.269 190.655 283.218 190.637 283.178 190.605C280.502 188.209 277.646 185.704 274.728 183.164C274.703 183.141 274.684 183.113 274.671 183.082C274.659 183.052 274.654 183.018 274.657 182.985C274.663 182.952 274.677 182.921 274.699 182.894C274.721 182.867 274.75 182.846 274.782 182.833L278.994 180.93C279.029 180.91 279.069 180.899 279.11 180.899C279.151 180.899 279.191 180.91 279.226 180.93C282.019 183.24 284.785 185.551 287.435 187.785L302.407 189.67C302.437 189.674 302.466 189.684 302.491 189.7C302.516 189.717 302.536 189.738 302.55 189.764C304.174 192.133 305.789 194.52 307.342 196.882L309.697 196.219C309.724 196.207 309.753 196.201 309.782 196.201C309.812 196.201 309.841 196.207 309.867 196.219C309.894 196.233 309.917 196.252 309.934 196.276C309.951 196.299 309.962 196.326 309.965 196.355C310.393 198.954 310.786 201.528 311.134 204C312.151 207.822 313.115 211.788 313.998 215.755C314.009 215.807 313.998 215.861 313.968 215.905C313.938 215.949 313.892 215.981 313.838 215.993C313.811 215.999 313.783 216 313.755 215.996C313.728 215.991 313.702 215.982 313.678 215.967C313.655 215.953 313.635 215.935 313.619 215.913C313.604 215.891 313.593 215.866 313.588 215.84C312.696 211.873 311.741 207.915 310.715 204.076C310.376 201.655 310.001 199.158 309.582 196.635L307.306 197.272C307.262 197.285 307.214 197.283 307.171 197.268C307.127 197.253 307.09 197.224 307.065 197.187C305.504 194.818 303.889 192.405 302.256 190.027L287.319 188.141C287.276 188.14 287.235 188.125 287.203 188.099C284.57 185.873 281.849 183.58 279.047 181.304L275.246 183.002C278.057 185.466 280.805 187.878 283.402 190.197H288.193C288.226 190.195 288.259 190.201 288.288 190.215C288.318 190.228 288.343 190.248 288.363 190.273C289.933 192.176 291.504 194.087 293.012 195.964C293.041 195.999 293.058 196.043 293.058 196.087C293.058 196.132 293.041 196.176 293.012 196.211C290.424 199.379 287.729 202.59 284.981 205.766L284.91 205.817C280.939 207.754 276.763 209.758 272.516 211.763C272.485 211.778 272.452 211.786 272.417 211.786C272.383 211.786 272.35 211.778 272.319 211.763C272.29 211.747 272.265 211.725 272.247 211.699C272.228 211.672 272.216 211.642 272.212 211.61C271.927 209.308 271.614 206.879 271.275 204.382C268.072 198.436 264.681 192.261 261.192 186.103L259.14 186.358L256.704 188.056C262.263 197.68 267.501 207.066 272.284 215.951C275.451 215.271 278.601 214.583 281.635 213.903C281.672 213.894 281.712 213.896 281.748 213.908C281.785 213.92 281.817 213.942 281.84 213.971C281.862 214.001 281.874 214.037 281.874 214.073C281.874 214.11 281.862 214.145 281.84 214.175C280.225 217.887 278.574 221.557 276.915 225.073L276.87 225.124C272.409 229.532 267.947 233.813 263.539 237.865C263.468 243.352 263.28 248.389 262.986 252.831C262.984 252.861 262.975 252.891 262.959 252.917C262.944 252.944 262.923 252.967 262.897 252.984C260.22 254.683 257.543 256.382 254.911 258.004C254.911 259.618 254.911 261.164 254.911 262.608C254.911 262.654 254.895 262.699 254.864 262.735C254.833 262.771 254.789 262.795 254.741 262.803L252.742 263.16L252.484 263.202C251.743 263.992 250.993 264.774 250.235 265.53C247.406 267.721 244.658 269.658 242.053 271.314H241.955C239.028 271.577 236.039 271.832 233.032 272.062L233.246 272.113Z" fill="white"/>
<path d="M265.752 263.066C265.707 263.066 265.664 263.053 265.628 263.028C265.591 263.004 265.563 262.97 265.547 262.931L265.431 262.616L265.011 261.368C265.001 261.343 264.995 261.317 264.995 261.291C264.995 261.265 265.001 261.239 265.011 261.215C265.984 259.04 266.966 256.611 267.929 254.012C267.946 253.974 267.97 253.939 268.001 253.91C270.553 252.101 273.131 250.19 275.683 248.236C275.719 248.213 275.761 248.201 275.804 248.201C275.847 248.201 275.889 248.213 275.924 248.236C275.962 248.255 275.991 248.286 276.009 248.322C276.027 248.359 276.031 248.4 276.022 248.44C275.764 249.824 275.478 251.26 275.175 252.687V252.746C273.051 256.467 270.918 259.847 268.821 262.786C268.805 262.813 268.782 262.836 268.754 262.852C268.726 262.869 268.694 262.878 268.661 262.88L265.823 263.049L265.752 263.066ZM265.395 261.325C265.547 261.716 265.69 262.107 265.832 262.48L265.895 262.659L268.474 262.497C270.535 259.592 272.632 256.263 274.72 252.593C274.987 251.353 275.237 250.113 275.469 248.907C273.069 250.733 270.651 252.525 268.259 254.224C267.322 256.781 266.359 259.176 265.395 261.368V261.325Z" fill="white"/>
<path d="M191.147 22.5599C190.353 13.5139 205.843 17.7439 209.885 23.4093C213.928 29.0748 206.361 40.72 218.71 44.5593C231.06 48.3985 222.333 55.7203 228.882 67.5354C238.519 84.9225 180.083 106.973 188.31 71.8758C195.983 39.1486 172.614 37.2035 191.147 22.5599Z" fill="#263238"/>
<path d="M221.566 44.7716C221.105 44.7713 220.647 44.7171 220.2 44.6102C212.107 42.682 211.474 37.4328 210.867 32.3534C210.474 29.0407 210.108 25.9235 207.771 23.5961C207.618 23.4441 207.535 23.2405 207.54 23.0302C207.545 22.82 207.638 22.6202 207.797 22.4749C207.957 22.3296 208.171 22.2507 208.392 22.2555C208.613 22.2602 208.823 22.3483 208.975 22.5004C211.697 25.21 212.116 28.752 212.544 32.175C213.133 37.1355 213.642 41.4164 220.575 43.0728C221.771 43.3531 222.966 43.0728 223.35 42.4782C223.734 41.8836 223.35 41.0682 222.404 40.1254C222.252 39.9733 222.169 39.7697 222.174 39.5595C222.179 39.3492 222.271 39.1495 222.431 39.0042C222.591 38.8589 222.805 38.7799 223.026 38.7847C223.246 38.7895 223.456 38.8776 223.609 39.0296C225.715 41.1531 225.135 42.699 224.787 43.2766C224.43 43.7685 223.946 44.1645 223.382 44.4264C222.818 44.6883 222.192 44.8071 221.566 44.7716Z" fill="#263238"/>
<path d="M188.452 56.782C188.568 58.812 188.56 60.7402 188.551 62.7278C188.542 64.7153 188.444 66.652 188.337 68.6141C188.229 70.5762 188.087 72.5383 187.864 74.5004C187.641 76.4625 187.382 78.4161 187.096 80.3697L187.052 80.684L186.98 80.8538C186.322 82.4759 185.449 84.0115 184.384 85.4236C183.42 86.7571 182.438 88.0397 181.403 89.2629C180.368 90.486 179.28 91.6582 178.182 92.8133C177.085 93.9685 175.951 95.0897 174.756 96.2109L172.418 94.3253L175.095 90.537C175.981 89.2799 176.835 88.0086 177.656 86.7232C178.495 85.4576 179.298 84.175 180.02 82.9179C180.708 81.7543 181.279 80.5314 181.725 79.2655L181.609 79.7581C181.992 75.9953 182.144 72.207 182.278 68.4102C182.34 66.5161 182.358 64.6134 182.367 62.7193C182.376 60.8251 182.367 58.897 182.314 57.0708L188.452 56.782Z" fill="#FFB573"/>
<path d="M173.881 92.9578L170.125 95.6419L173.364 98.292C174.036 97.9752 174.616 97.5071 175.054 96.9283C175.493 96.3495 175.776 95.6776 175.88 94.9708L173.881 92.9578Z" fill="#FFB573"/>
<path d="M182.501 51.0316C180.716 52.9088 180.466 59.5256 180.466 59.5256L191.647 62.8552C191.647 62.8552 192.834 52.4841 190.246 50.471C189.707 50.0067 189.075 49.6517 188.387 49.4276C187.7 49.2035 186.972 49.1149 186.247 49.1674C185.522 49.2198 184.816 49.4122 184.172 49.7327C183.528 50.0532 182.96 50.4951 182.501 51.0316Z" fill="#C53F3F"/>
<path d="M168.608 98.4959L170.009 101.681L173.364 98.2921L170.125 95.642L168.608 98.4959Z" fill="#FFB573"/>
<path d="M183.09 52.1273C182.822 55.6948 181.966 64.4351 186.579 84.3109L211.072 82.9943C210.135 73.8718 210.715 69.3531 215.016 51.4903C215.081 51.2205 215.088 50.9409 215.036 50.6685C214.984 50.3961 214.875 50.1366 214.715 49.9055C214.555 49.6745 214.347 49.4767 214.104 49.3243C213.862 49.1718 213.589 49.0678 213.303 49.0185C210.591 48.5605 207.853 48.2542 205.103 48.1012C201.392 47.8507 197.668 47.8507 193.958 48.1012C191.058 48.3475 187.917 48.8317 185.927 49.1799C185.177 49.2991 184.489 49.654 183.975 50.1882C183.461 50.7224 183.149 51.405 183.09 52.1273Z" fill="#C53F3F"/>
<path d="M195.537 54.0384C196.319 54.3797 197.009 54.886 197.555 55.5188C198.101 56.1516 198.488 56.8944 198.687 57.6908C201.516 57.1387 207.226 52.6794 206.263 47.8293C205.349 47.5635 204.399 47.4261 203.443 47.4216L195.537 54.0384Z" fill="white"/>
<path d="M194.351 53.8176C193.64 53.9877 192.981 54.3126 192.425 54.7666C191.869 55.2206 191.432 55.7913 191.147 56.4337C190.665 55.0252 190.55 53.5264 190.811 52.0661C191.072 50.6057 191.702 49.2276 192.646 48.0502C194.032 47.7008 195.453 47.4901 196.885 47.4216L194.351 53.8176Z" fill="white"/>
<path d="M166.011 168.97L159.988 168.478L159.248 155.049L165.271 155.541L166.011 168.97Z" fill="#FFB573"/>
<path d="M159.721 167.577L165.913 164.927C166.019 164.881 166.138 164.873 166.25 164.904C166.361 164.935 166.457 165.004 166.52 165.097L169.42 169.463C169.488 169.575 169.531 169.699 169.546 169.827C169.561 169.956 169.547 170.086 169.506 170.209C169.465 170.333 169.397 170.446 169.307 170.543C169.217 170.64 169.106 170.717 168.983 170.771C166.805 171.663 165.708 171.986 162.986 173.149C161.309 173.863 158.177 175.842 155.848 176.827C153.519 177.813 152.386 175.689 153.252 175.086C155.812 173.41 157.788 171.043 158.926 168.291C159.094 167.971 159.375 167.718 159.721 167.577Z" fill="#263238"/>
<g opacity="0.2">
<path d="M165.271 155.541L159.248 155.049L159.667 162.532L165.681 162.846L165.271 155.541Z" fill="black"/>
</g>
<path d="M186.489 84.0731C186.489 84.0731 164.182 103.711 160.185 112.953C155.143 124.691 158.293 160.519 158.293 160.519L166.502 161.19C166.502 161.19 167.073 135.954 170.839 120.257C178.771 110.26 209.279 97.1199 205.522 83.2832L186.489 84.0731Z" fill="#263238"/>
<path opacity="0.2" d="M195.154 94.6906C184.375 96.95 178.048 108.536 175.818 115.543C183.143 109.716 194.556 103.278 200.954 96.2365C199.669 95.5825 197.456 94.215 195.154 94.6906Z" fill="black"/>
<path d="M167.136 161.665L157.472 160.875L157.106 156.229L167.127 155.558L167.136 161.665Z" fill="white"/>
<path d="M157.115 169.488H157.044C156.912 169.445 156.793 169.37 156.701 169.27C156.609 169.17 156.545 169.049 156.517 168.919C156.491 168.841 156.486 168.758 156.503 168.678C156.52 168.597 156.559 168.522 156.615 168.461C157.124 167.917 159.292 168.223 159.533 168.265C159.561 168.269 159.587 168.281 159.607 168.299C159.628 168.318 159.643 168.341 159.649 168.367C159.654 168.392 159.651 168.418 159.642 168.442C159.632 168.466 159.616 168.487 159.596 168.503C158.98 168.936 157.847 169.633 157.115 169.488ZM159.141 168.469C158.248 168.367 157.097 168.333 156.83 168.63C156.83 168.63 156.758 168.715 156.83 168.834C156.848 168.92 156.888 169 156.947 169.067C157.007 169.134 157.083 169.185 157.169 169.217C157.534 169.344 158.266 169.064 159.141 168.469Z" fill="white"/>
<path d="M159.275 168.478C158.543 168.316 157.285 167.688 157.142 167.11C157.117 167.004 157.131 166.893 157.181 166.796C157.232 166.699 157.315 166.621 157.419 166.575C157.512 166.52 157.618 166.485 157.727 166.474C157.837 166.462 157.948 166.473 158.052 166.507C158.891 166.753 159.605 168.257 159.64 168.325C159.651 168.346 159.657 168.369 159.657 168.393C159.657 168.416 159.651 168.44 159.64 168.461C159.626 168.479 159.607 168.493 159.585 168.502C159.563 168.511 159.539 168.515 159.515 168.512C159.434 168.509 159.353 168.498 159.275 168.478ZM157.918 166.779C157.8 166.753 157.675 166.771 157.57 166.83C157.41 166.923 157.41 167.008 157.419 167.076C157.517 167.467 158.543 168.053 159.257 168.223C158.989 167.73 158.463 166.94 157.963 166.787L157.918 166.779Z" fill="white"/>
<path opacity="0.2" d="M214.793 52.4163C213.386 52.9926 212.158 53.9041 211.228 55.0629C210.299 56.2218 209.698 57.5891 209.484 59.033C209.056 61.8191 211.331 64.7325 212 65.9386C212.589 62.3117 213.481 57.9628 214.793 52.4163Z" fill="black"/>
<path d="M204.014 37.4413C203.309 40.8389 202.604 45.8248 205.103 48.1012C205.103 48.1012 204.96 51.5752 194.832 55.3126C191.192 50.3266 193.94 48.0842 193.94 48.0842C197.947 47.1838 197.839 45.6379 197.152 42.9878L204.014 37.4413Z" fill="#FFB573"/>
<path opacity="0.2" d="M201.23 39.6753L197.197 42.9879C197.369 43.6027 197.482 44.231 197.536 44.8651C199.071 44.6612 201.471 43.4296 201.801 41.8497C201.803 41.091 201.607 40.3437 201.23 39.6753Z" fill="black"/>
<path d="M208.699 31.606C207.084 37.1865 206.521 39.5733 202.881 41.8667C197.402 45.3237 190.558 42.2064 190.389 36.2861C190.246 30.9519 192.923 22.6958 199.231 21.651C200.621 21.4067 202.054 21.5049 203.393 21.9361C204.732 22.3674 205.933 23.1174 206.882 24.115C207.83 25.1125 208.495 26.3245 208.813 27.6356C209.131 28.9467 209.092 30.3135 208.699 31.606Z" fill="#FFB573"/>
<path d="M195.171 21.4217C192.611 23.6896 202.372 28.2169 205.344 28.132C201.355 31.0624 204.889 36.7363 208.021 35.3348C211.152 33.9333 210.983 26.688 209.368 24.1228C207.753 21.5577 199.258 17.8288 195.171 21.4217Z" fill="#263238"/>
<path d="M199.089 22.407C200.971 24.505 190.523 27.3165 191.7 24.0293C193.262 19.6634 197.215 20.309 199.089 22.407Z" fill="#263238"/>
<path d="M198.91 31.1813C198.803 31.64 198.464 31.9627 198.152 31.9033C197.839 31.8438 197.661 31.4106 197.759 30.9519C197.857 30.4933 198.205 30.1705 198.518 30.23C198.83 30.2894 198.982 30.7396 198.91 31.1813Z" fill="#263238"/>
<path d="M193.449 30.0941C193.342 30.5612 193.003 30.8755 192.691 30.8161C192.379 30.7566 192.2 30.3234 192.298 29.8647C192.396 29.4061 192.744 29.0833 193.057 29.1513C193.369 29.2192 193.547 29.6354 193.449 30.0941Z" fill="#263238"/>
<path d="M193.191 29.2023L192.102 28.6501C192.102 28.6501 192.504 29.6354 193.191 29.2023Z" fill="#263238"/>
<path d="M194.948 31.2662C194.282 32.2292 193.481 33.1008 192.566 33.8569C192.777 34.0725 193.035 34.2424 193.321 34.3552C193.608 34.468 193.916 34.5211 194.226 34.5109L194.948 31.2662Z" fill="#ED893E"/>
<path d="M196.456 36.8383C196.213 36.827 195.971 36.7957 195.734 36.7449C195.715 36.7419 195.697 36.7352 195.681 36.7254C195.664 36.7155 195.65 36.7027 195.64 36.6877C195.629 36.6726 195.621 36.6556 195.618 36.6377C195.614 36.6198 195.614 36.6014 195.618 36.5835C195.628 36.5481 195.652 36.5178 195.686 36.4988C195.719 36.4799 195.758 36.4737 195.796 36.4816C196.394 36.6136 197.017 36.6101 197.614 36.4714C198.21 36.3327 198.764 36.0628 199.231 35.6832C199.245 35.6703 199.261 35.6602 199.279 35.6532C199.296 35.6463 199.315 35.6427 199.334 35.6427C199.353 35.6427 199.372 35.6463 199.39 35.6532C199.407 35.6602 199.423 35.6703 199.437 35.6832C199.45 35.696 199.461 35.7112 199.468 35.728C199.475 35.7447 199.479 35.7627 199.479 35.7808C199.479 35.799 199.475 35.8169 199.468 35.8337C199.461 35.8505 199.45 35.8657 199.437 35.8785C199.033 36.22 198.561 36.4809 198.049 36.6458C197.537 36.8106 196.995 36.8761 196.456 36.8383Z" fill="#263238"/>
<path d="M201.337 30.5782C201.275 30.5764 201.216 30.5555 201.168 30.5188C201.119 30.482 201.085 30.4313 201.07 30.3743C200.89 29.9583 200.623 29.5821 200.283 29.2693C199.944 28.9565 199.54 28.7138 199.098 28.5566C199.024 28.5316 198.965 28.4801 198.931 28.4133C198.898 28.3464 198.893 28.2697 198.919 28.1999C198.932 28.1654 198.952 28.1338 198.978 28.1069C199.004 28.08 199.035 28.0584 199.07 28.0433C199.105 28.0283 199.143 28.0201 199.182 28.0192C199.22 28.0184 199.258 28.025 199.294 28.0385C199.827 28.2236 200.312 28.5159 200.715 28.8956C201.119 29.2752 201.431 29.7333 201.632 30.2384C201.641 30.273 201.643 30.309 201.638 30.3444C201.633 30.3797 201.62 30.4138 201.601 30.4445C201.582 30.4753 201.557 30.5022 201.527 30.5237C201.497 30.5451 201.463 30.5608 201.426 30.5697C201.398 30.5805 201.367 30.5835 201.337 30.5782Z" fill="#263238"/>
<path d="M192.343 27.3675C192.291 27.3645 192.241 27.3489 192.197 27.3221C192.153 27.2954 192.117 27.2583 192.093 27.2146C192.058 27.1491 192.052 27.0733 192.075 27.0035C192.099 26.9336 192.15 26.8752 192.218 26.8409C192.625 26.6227 193.082 26.5032 193.549 26.4928C194.015 26.4824 194.478 26.5816 194.895 26.7814C194.929 26.7982 194.959 26.8214 194.983 26.8497C195.007 26.8781 195.024 26.9108 195.035 26.9459C195.045 26.9811 195.047 27.0178 195.041 27.0538C195.036 27.0898 195.022 27.1243 195.002 27.1551C194.983 27.1866 194.959 27.2142 194.929 27.2364C194.899 27.2586 194.865 27.2749 194.828 27.2844C194.792 27.2939 194.753 27.2963 194.716 27.2916C194.678 27.287 194.642 27.2752 194.609 27.2571C194.278 27.1121 193.916 27.0434 193.551 27.0567C193.187 27.07 192.831 27.1648 192.512 27.3335C192.461 27.3613 192.402 27.3732 192.343 27.3675Z" fill="#263238"/>
<path d="M198.651 30.332L197.563 29.7799C197.563 29.7799 197.964 30.7312 198.651 30.332Z" fill="#263238"/>
<path d="M190.175 181.244L184.143 180.972L182.858 167.586L188.89 167.858L190.175 181.244Z" fill="#FFB573"/>
<path d="M183.813 180.089L189.889 177.218C189.992 177.163 190.113 177.147 190.227 177.174C190.341 177.201 190.441 177.268 190.505 177.362L193.592 181.609C193.665 181.72 193.713 181.843 193.733 181.972C193.752 182.102 193.743 182.233 193.706 182.359C193.669 182.484 193.605 182.601 193.518 182.702C193.431 182.802 193.322 182.884 193.2 182.943C191.058 183.902 189.978 184.268 187.301 185.533C185.66 186.315 182.617 188.404 180.342 189.474C178.066 190.545 176.835 188.464 177.665 187.827C180.139 186.05 182.002 183.614 183.018 180.828C183.182 180.499 183.464 180.237 183.813 180.089Z" fill="#263238"/>
<g opacity="0.2">
<path d="M188.89 167.858L182.858 167.586L183.572 175.052L189.595 175.137L188.89 167.858Z" fill="black"/>
</g>
<path d="M194.252 83.8949C194.252 83.8949 178.593 112.613 177.87 123.689C177.12 135.054 182.126 173.098 182.126 173.098L190.353 173.464C190.353 173.464 191.442 139.904 190.951 123.765C196.037 112.205 218.291 95.5061 211.036 82.9945L194.252 83.8949Z" fill="#263238"/>
<path d="M190.897 173.897L181.403 173.472L180.797 168.478L191.067 167.152L190.897 173.897Z" fill="white"/>
<path d="M181.314 182.102H181.243C181.109 182.063 180.987 181.991 180.891 181.895C180.794 181.798 180.725 181.679 180.69 181.55C180.659 181.473 180.65 181.391 180.664 181.31C180.678 181.229 180.715 181.154 180.77 181.091C181.252 180.522 183.447 180.751 183.67 180.777C183.699 180.781 183.726 180.792 183.748 180.81C183.77 180.828 183.786 180.852 183.795 180.879C183.8 180.905 183.798 180.932 183.788 180.958C183.779 180.983 183.763 181.006 183.741 181.023C183.143 181.473 182.028 182.238 181.314 182.102ZM183.295 180.998C182.403 180.93 181.243 180.947 180.984 181.244C180.964 181.275 180.954 181.31 180.954 181.346C180.954 181.382 180.964 181.417 180.984 181.448C181.006 181.534 181.05 181.613 181.112 181.678C181.175 181.743 181.253 181.793 181.341 181.822C181.716 181.932 182.438 181.626 183.295 180.998Z" fill="white"/>
<path d="M183.42 181.006C182.688 180.87 181.403 180.293 181.243 179.715C181.212 179.611 181.22 179.5 181.265 179.401C181.311 179.302 181.391 179.221 181.493 179.171C181.583 179.113 181.686 179.074 181.794 179.058C181.902 179.042 182.012 179.049 182.117 179.078C183.01 179.299 183.75 180.777 183.786 180.836C183.797 180.857 183.803 180.881 183.803 180.904C183.803 180.928 183.797 180.951 183.786 180.972C183.771 180.993 183.751 181.009 183.728 181.02C183.704 181.03 183.678 181.034 183.652 181.032L183.42 181.006ZM182.001 179.307C181.941 179.295 181.88 179.294 181.82 179.306C181.76 179.318 181.703 179.341 181.653 179.375C181.493 179.469 181.502 179.554 181.519 179.622C181.626 180.004 182.679 180.556 183.393 180.7C183.108 180.216 182.554 179.443 182.046 179.316L182.001 179.307Z" fill="white"/>
<path d="M211.358 81.6099L212.107 83.6654C212.205 83.8183 212.018 83.9967 211.732 84.0137L186.489 85.3642C186.266 85.3642 186.079 85.2793 186.061 85.1518L185.713 83.0708C185.713 82.9264 185.874 82.799 186.115 82.782L210.929 81.457C211.009 81.4413 211.091 81.4474 211.167 81.4744C211.243 81.5015 211.309 81.5485 211.358 81.6099Z" fill="white"/>
<path d="M208.101 84.4299H208.77C208.904 84.4299 208.993 84.3535 208.984 84.2771L208.511 81.576C208.511 81.4995 208.377 81.4401 208.244 81.4486H207.583C207.449 81.4486 207.351 81.525 207.369 81.61L207.842 84.3025C207.851 84.379 207.967 84.4384 208.101 84.4299Z" fill="#263238"/>
<path d="M188.399 85.4917L189.059 85.4492C189.193 85.4492 189.291 85.3728 189.282 85.2963L188.809 82.6037C188.809 82.5188 188.676 82.4594 188.542 82.4678H187.873C187.748 82.4678 187.649 82.5528 187.658 82.6292L188.131 85.3218C188.149 85.4322 188.274 85.4917 188.399 85.4917Z" fill="#263238"/>
<path d="M198.214 84.965H198.875C199.008 84.965 199.106 84.88 199.089 84.8036L198.616 82.111C198.616 82.0346 198.482 81.9751 198.348 81.9751L197.688 82.0176C197.554 82.0176 197.456 82.094 197.474 82.1705L197.947 84.863C197.955 84.914 198.089 84.9735 198.214 84.965Z" fill="#263238"/>
<path d="M220.629 91.8027L216.792 96.4319L222.913 95.9307C222.913 95.9307 224.296 93.5864 223.1 91.4884L220.629 91.8027Z" fill="#FFB573"/>
<path d="M218.675 54.5822C219.933 57.7164 221.021 60.8082 221.994 63.9935C223 67.1686 223.828 70.3924 224.474 73.6511C224.644 74.5005 224.787 75.3499 224.921 76.1993L225.081 77.5498L225.153 78.8749C225.19 80.5932 225.118 82.3121 224.938 84.0222C224.573 87.3519 223.907 90.6455 222.949 93.8667L219.933 93.3401C220.102 90.1803 220.245 86.9611 220.138 83.8353C220.093 82.2809 220.004 80.735 219.817 79.2486L219.656 78.1529L219.451 77.0911C219.281 76.3522 219.112 75.5792 218.915 74.8232C218.121 71.7824 217.131 68.7416 216.131 65.7007C215.132 62.6599 213.999 59.6191 212.892 56.6632L218.675 54.5822Z" fill="#FFB573"/>
<path d="M213.169 49.0186C218.148 49.2904 221.2 58.2515 221.2 58.2515L211.001 62.2267C211.001 62.2267 208.895 57.7504 209.136 54.5821C209.377 51.4139 210.421 48.8487 213.169 49.0186Z" fill="#C53F3F"/>
<path d="M217.042 101.256L222.146 100.577L222.913 95.9307L216.792 96.4318L217.042 101.256Z" fill="#FFB573"/>
<path d="M209.35 36.2776C208.752 37.2145 207.79 37.889 206.673 38.1548C205.183 38.4861 204.496 37.2035 204.96 35.8869C205.388 34.7062 206.673 33.1094 208.145 33.3387C208.47 33.3993 208.773 33.5369 209.026 33.7387C209.28 33.9405 209.476 34.2 209.596 34.4931C209.716 34.7862 209.757 35.1035 209.714 35.4154C209.671 35.7274 209.546 36.0239 209.35 36.2776Z" fill="#FFB573"/>
<path d="M298.116 74.9761L289.193 66.4822C289.074 66.3696 288.914 66.3063 288.746 66.3063C288.579 66.3063 288.419 66.3696 288.3 66.4822C288.182 66.5948 288.115 66.7476 288.115 66.9069C288.115 67.0662 288.182 67.2189 288.3 67.3316L292.333 71.1624L283.839 79.2486C283.78 79.3044 283.734 79.3706 283.702 79.4435C283.67 79.5163 283.654 79.5944 283.654 79.6733C283.654 79.7522 283.67 79.8303 283.702 79.9031C283.734 79.976 283.78 80.0422 283.839 80.098C283.897 80.1538 283.967 80.198 284.043 80.2282C284.12 80.2584 284.202 80.2739 284.285 80.2739C284.368 80.2739 284.45 80.2584 284.526 80.2282C284.603 80.198 284.673 80.1538 284.731 80.098L293.226 72.0118L297.259 75.851C297.318 75.9068 297.387 75.951 297.464 75.9812C297.54 76.0114 297.622 76.0269 297.705 76.0269C297.788 76.0269 297.87 76.0114 297.946 75.9812C298.023 75.951 298.093 75.9068 298.151 75.851C298.21 75.7952 298.256 75.729 298.288 75.6562C298.32 75.5833 298.336 75.5052 298.336 75.4263C298.336 75.3475 298.32 75.2693 298.288 75.1965C298.256 75.1236 298.21 75.0574 298.151 75.0016L298.116 74.9761Z" fill="#C53F3F"/>
<path opacity="0.3" d="M298.116 74.9761L289.193 66.4822C289.074 66.3696 288.914 66.3063 288.746 66.3063C288.579 66.3063 288.419 66.3696 288.3 66.4822C288.182 66.5948 288.115 66.7476 288.115 66.9069C288.115 67.0662 288.182 67.2189 288.3 67.3316L292.333 71.1624L283.839 79.2486C283.78 79.3044 283.734 79.3706 283.702 79.4435C283.67 79.5163 283.654 79.5944 283.654 79.6733C283.654 79.7522 283.67 79.8303 283.702 79.9031C283.734 79.976 283.78 80.0422 283.839 80.098C283.897 80.1538 283.967 80.198 284.043 80.2282C284.12 80.2584 284.202 80.2739 284.285 80.2739C284.368 80.2739 284.45 80.2584 284.526 80.2282C284.603 80.198 284.673 80.1538 284.731 80.098L293.226 72.0118L297.259 75.851C297.318 75.9068 297.387 75.951 297.464 75.9812C297.54 76.0114 297.622 76.0269 297.705 76.0269C297.788 76.0269 297.87 76.0114 297.946 75.9812C298.023 75.951 298.093 75.9068 298.151 75.851C298.21 75.7952 298.256 75.729 298.288 75.6562C298.32 75.5833 298.336 75.5052 298.336 75.4263C298.336 75.3475 298.32 75.2693 298.288 75.1965C298.256 75.1236 298.21 75.0574 298.151 75.0016L298.116 74.9761Z" fill="black"/>
<path d="M288.336 75.8001C287.814 75.3018 287.521 74.6267 287.521 73.923C287.521 73.2192 287.814 72.5442 288.336 72.0458L294.18 66.4823C294.704 65.988 295.411 65.7106 296.148 65.7106C296.885 65.7106 297.592 65.988 298.115 66.4823C298.637 66.9806 298.931 67.6557 298.931 68.3594C298.931 69.0632 298.637 69.7382 298.115 70.2366L292.271 75.8001C291.748 76.2945 291.041 76.5719 290.303 76.5719C289.566 76.5719 288.859 76.2945 288.336 75.8001Z" fill="#C53F3F"/>
<path d="M287.863 76.2503C286.944 75.3769 285.699 74.8862 284.401 74.8862C283.103 74.8862 281.857 75.3769 280.939 76.2503L287.863 82.8332C288.776 81.958 289.288 80.7749 289.288 79.5417C289.288 78.3086 288.776 77.1255 287.863 76.2503Z" fill="#C53F3F"/>
<path d="M292.47 63.6639L284.52 56.0962C283.847 55.456 282.757 55.456 282.084 56.0962L277.415 60.5407C276.743 61.1809 276.743 62.2189 277.415 62.8591L285.365 70.4268C286.038 71.067 287.128 71.067 287.801 70.4268L292.47 65.9823C293.142 65.3421 293.142 64.3041 292.47 63.6639Z" fill="#C53F3F"/>
<path opacity="0.3" d="M287.439 70.0291L292.051 65.6386C292.522 65.1908 292.522 64.4647 292.051 64.0169L284.158 56.5033C283.688 56.0555 282.925 56.0555 282.455 56.5033L277.842 60.8937C277.372 61.3416 277.372 62.0676 277.842 62.5154L285.736 70.0291C286.206 70.4769 286.969 70.4769 287.439 70.0291Z" fill="white"/>
<path d="M309.037 79.4209L301.087 71.8531C300.414 71.2129 299.324 71.2129 298.651 71.8531L293.982 76.2977C293.31 76.9379 293.31 77.9759 293.982 78.6161L301.932 86.1838C302.605 86.824 303.695 86.824 304.368 86.1838L309.037 81.7392C309.709 81.099 309.709 80.0611 309.037 79.4209Z" fill="#C53F3F"/>
<path opacity="0.3" d="M303.993 85.7854L308.605 81.3949C309.076 80.9471 309.076 80.2211 308.605 79.7733L300.712 72.2596C300.242 71.8118 299.479 71.8118 299.009 72.2596L294.396 76.6501C293.926 77.0979 293.926 77.8239 294.396 78.2718L302.29 85.7854C302.76 86.2332 303.523 86.2332 303.993 85.7854Z" fill="white"/>
<path opacity="0.7" d="M296.542 69.9818L294.454 67.9938C294.328 67.8744 294.125 67.8744 293.999 67.9938L290.952 70.8948C290.826 71.0142 290.826 71.2078 290.952 71.3272L293.04 73.3152C293.166 73.4346 293.369 73.4347 293.495 73.3152L296.542 70.4143C296.667 70.2949 296.667 70.1012 296.542 69.9818Z" fill="white"/>
</svg>
