<svg width="418" height="312" viewBox="0 0 418 312" fill="none" xmlns="http://www.w3.org/2000/svg">
<path d="M208.708 312C323.893 312 417.269 306.832 417.269 300.458C417.269 294.083 323.893 288.915 208.708 288.915C93.5229 288.915 0.147095 294.083 0.147095 300.458C0.147095 306.832 93.5229 312 208.708 312Z" fill="#F5F5F5"/>
<path d="M312.897 157.402H394.314C397.315 157.402 400.193 158.532 402.316 160.544C404.438 162.555 405.63 165.284 405.63 168.129V226.789C405.63 229.634 404.438 232.362 402.316 234.374C400.193 236.385 397.315 237.515 394.314 237.515H332.84C332.247 242.101 329.91 246.324 326.266 249.392C322.621 252.46 317.921 254.161 313.047 254.176C312.596 254.176 312.155 254.176 311.703 254.115C314.93 250.138 317.479 244.388 319.179 237.526H312.951C309.949 237.526 307.071 236.395 304.949 234.384C302.827 232.372 301.635 229.644 301.635 226.799V168.129C301.635 165.293 302.819 162.572 304.93 160.562C307.04 158.552 309.905 157.416 312.897 157.402Z" fill="#C53F3F"/>
<path opacity="0.4" d="M312.897 157.402H394.314C397.315 157.402 400.193 158.532 402.316 160.544C404.438 162.555 405.63 165.284 405.63 168.129V226.789C405.63 229.634 404.438 232.362 402.316 234.374C400.193 236.385 397.315 237.515 394.314 237.515H332.84C332.247 242.101 329.91 246.324 326.266 249.392C322.621 252.46 317.921 254.161 313.047 254.176C312.596 254.176 312.155 254.176 311.703 254.115C314.93 250.138 317.479 244.388 319.179 237.526H312.951C309.949 237.526 307.071 236.395 304.949 234.384C302.827 232.372 301.635 229.644 301.635 226.799V168.129C301.635 165.293 302.819 162.572 304.93 160.562C307.04 158.552 309.905 157.416 312.897 157.402Z" fill="white"/>
<path d="M309.046 180.211L305.023 173.757L307.54 169.679C307.703 169.414 307.802 169.118 307.828 168.813C307.854 168.507 307.807 168.2 307.691 167.915L307.497 167.456C307.346 167.073 307.078 166.743 306.727 166.506C306.376 166.27 305.959 166.139 305.529 166.13L301.581 166.028C301.18 166.015 300.783 166.108 300.436 166.297C300.088 166.487 299.803 166.764 299.612 167.099L298.816 168.486C298.624 168.82 298.517 169.192 298.504 169.573C298.491 169.954 298.572 170.332 298.741 170.678L300.441 174.155L303.592 182.149L309.046 180.211Z" fill="#7F3E3B"/>
<path d="M341.09 179.08L318.103 194.935L307.346 175.786L301.215 178.305C301.215 178.305 310.67 207.324 316.167 206.151C321.663 204.979 337.175 197.709 342.219 192.723C344.769 190.204 346.705 185.585 344.188 179.875C344.072 179.602 343.89 179.357 343.658 179.161C343.425 178.966 343.148 178.824 342.848 178.747C342.548 178.669 342.233 178.659 341.928 178.717C341.623 178.775 341.336 178.899 341.09 179.08Z" fill="#C53F3F"/>
<path d="M349.674 141.322C349.674 141.322 341.563 143.362 345.317 152.63C345.317 152.63 349.362 151.611 350.018 149.143C350.674 146.675 351.298 143.188 351.298 143.188L349.674 141.322Z" fill="#263238"/>
<path opacity="0.3" d="M349.674 141.322C349.674 141.322 341.563 143.362 345.317 152.63C345.317 152.63 349.362 151.611 350.018 149.143C350.674 146.675 351.298 143.188 351.298 143.188L349.674 141.322Z" fill="black"/>
<path d="M368.853 178.162L354.03 177.703L347.899 178.539L347.06 189.133L359.011 192.896L371.757 190.49L372.424 180.283L371.51 178.244L368.853 178.162Z" fill="#7F3E3B"/>
<path d="M348.673 237.515H369.649C369.853 230.51 370.95 194.14 370.725 194.364C370.499 194.588 372.94 186.615 372.94 186.615V183.383L370.725 179.916C370.725 179.916 365.97 186.788 358.139 186.452C350.717 186.125 349.437 179.1 349.437 179.1L348.544 189.837L347.608 215.838L348.802 226.85L348.673 237.515Z" fill="#C53F3F"/>
<path opacity="0.6" d="M348.673 237.515H369.649C369.853 230.51 370.95 194.14 370.725 194.364C370.499 194.588 372.94 186.615 372.94 186.615V183.383L370.725 179.916C370.725 179.916 365.97 186.788 358.139 186.452C350.717 186.125 349.437 179.1 349.437 179.1L348.544 189.837L347.608 215.838L348.802 226.85L348.673 237.515Z" fill="white"/>
<path d="M340.326 237.515H351.685C353.923 223.485 354.224 197.831 354.224 197.831C352.867 192.92 351.808 187.939 351.051 182.913C350.362 177.03 359.226 177.815 366.97 178.784C374.715 179.753 360.947 198.32 360.947 198.32C360.947 198.32 359.968 223.414 362.238 237.515H390.205C388.807 233.773 384.676 222.282 383.751 214.135C382.557 204.285 389.71 189.918 388.688 182.913C387.666 175.908 363.152 177.336 363.152 177.336C363.152 177.336 347.458 177.234 343.962 177.387C339.874 177.56 338.239 187.767 336.303 195.832C334.367 203.898 337.928 211.881 339.874 222.027C340.84 227.139 340.992 232.36 340.326 237.515Z" fill="#263238"/>
<path d="M352.847 177.305C357.946 177.305 363.206 177.305 363.206 177.305C363.206 177.305 366.336 177.122 370.402 177.204C372.026 178.223 374.167 180.691 372.467 185.85L368.917 187.145L369.563 190.459C369.563 190.459 365.475 196.577 360.957 198.922C360.957 198.514 360.957 198.29 360.957 198.29C360.957 198.29 374.737 179.722 366.981 178.753C359.226 177.785 350.373 177 351.061 182.883C351.818 187.909 352.878 192.889 354.235 197.8C354.235 197.8 354.235 197.902 354.235 198.076C352.083 196.23 350.201 192.977 348.856 189.082L350.308 185.269L347.081 183.597C347.357 182.154 348.038 180.808 349.053 179.7C350.067 178.593 351.378 177.766 352.847 177.305Z" fill="#C53F3F"/>
<path d="M352.632 182.862C352.383 182.321 352.283 181.729 352.339 181.141C352.396 180.553 352.607 179.988 352.955 179.498C358.785 177.632 358.247 173.482 356.902 169.638L366.293 160.553C365.744 165.386 365.54 176.51 368.874 180.385V181.272C367.424 183.038 365.484 184.387 363.27 185.167C361.057 185.946 358.658 186.126 356.343 185.687C355.522 185.555 354.749 185.226 354.1 184.732C353.45 184.238 352.945 183.594 352.632 182.862Z" fill="#7F3E3B"/>
<path opacity="0.1" d="M356.902 169.638L364.367 162.419L366.088 163.01C366.035 163.877 366.002 164.825 365.992 165.824C365.045 167.66 362.765 170.239 357.472 171.534C357.319 170.893 357.128 170.26 356.902 169.638Z" fill="black"/>
<path d="M371.133 152.538C368.864 160.767 368.089 164.295 362.765 167.741C354.762 172.931 344.597 168.496 344.22 159.788C343.887 151.947 347.641 139.813 356.935 138.1C358.98 137.714 361.097 137.83 363.082 138.437C365.068 139.044 366.856 140.122 368.279 141.568C369.701 143.015 370.71 144.782 371.21 146.702C371.709 148.622 371.683 150.631 371.133 152.538Z" fill="#7F3E3B"/>
<path d="M350.448 154.659C349.49 156.089 348.332 157.388 347.006 158.524C347.317 158.838 347.697 159.083 348.119 159.244C348.54 159.404 348.994 159.475 349.448 159.452L350.448 154.659Z" fill="#630F0F"/>
<path d="M359.71 151.631C359.771 151.628 359.83 151.611 359.882 151.58C359.922 151.558 359.958 151.529 359.985 151.493C360.013 151.458 360.034 151.418 360.045 151.375C360.056 151.332 360.057 151.287 360.05 151.244C360.042 151.2 360.025 151.158 360 151.121C359.67 150.57 359.204 150.103 358.642 149.761C358.08 149.418 357.439 149.209 356.773 149.153C356.727 149.152 356.68 149.159 356.636 149.175C356.593 149.191 356.553 149.214 356.519 149.245C356.485 149.275 356.458 149.311 356.439 149.352C356.419 149.392 356.409 149.435 356.407 149.48C356.405 149.523 356.411 149.567 356.426 149.608C356.442 149.65 356.466 149.688 356.497 149.72C356.528 149.752 356.565 149.778 356.607 149.797C356.649 149.815 356.695 149.825 356.741 149.826C357.288 149.884 357.813 150.064 358.273 150.351C358.733 150.638 359.115 151.024 359.387 151.478C359.422 151.528 359.471 151.568 359.527 151.595C359.584 151.622 359.647 151.634 359.71 151.631Z" fill="#263238"/>
<path d="M345.317 149.153C345.374 149.169 345.433 149.169 345.489 149.153C345.961 148.887 346.493 148.731 347.041 148.697C347.589 148.664 348.137 148.753 348.641 148.96C348.726 149 348.823 149.007 348.914 148.981C349.004 148.954 349.08 148.895 349.125 148.817C349.147 148.777 349.16 148.733 349.164 148.688C349.168 148.643 349.162 148.598 349.147 148.555C349.132 148.512 349.108 148.473 349.077 148.439C349.045 148.405 349.007 148.377 348.964 148.358C348.354 148.101 347.689 147.985 347.023 148.021C346.357 148.056 345.71 148.242 345.134 148.562C345.052 148.605 344.99 148.677 344.962 148.763C344.934 148.848 344.942 148.941 344.984 149.021C345.016 149.077 345.065 149.123 345.124 149.153C345.183 149.184 345.25 149.198 345.317 149.194V149.153Z" fill="#263238"/>
<path d="M353.084 161.715C352.669 161.717 352.255 161.682 351.847 161.613C351.818 161.609 351.791 161.6 351.766 161.586C351.742 161.573 351.72 161.554 351.703 161.532C351.686 161.51 351.674 161.486 351.667 161.459C351.66 161.433 351.659 161.405 351.664 161.379C351.674 161.325 351.706 161.278 351.752 161.246C351.797 161.214 351.854 161.199 351.911 161.205C352.819 161.374 353.755 161.34 354.646 161.104C355.537 160.869 356.358 160.439 357.042 159.849C357.084 159.821 357.136 159.808 357.187 159.812C357.238 159.815 357.287 159.835 357.325 159.869C357.362 159.902 357.387 159.947 357.394 159.995C357.402 160.043 357.391 160.093 357.365 160.135C356.205 161.163 354.672 161.729 353.084 161.715Z" fill="#263238"/>
<path d="M368.154 158.972C367.104 157.842 366.324 156.509 365.869 155.066C365.414 153.622 365.295 152.103 365.518 150.611C365.518 150.611 362.022 147.216 362.195 143.586C362.195 143.586 361.119 146.482 362.195 148.541C362.195 148.541 353.127 147.919 353.342 143.586C353.342 143.586 352.739 145.768 354.106 146.9C354.106 146.9 346.049 147.216 347.146 143.26C348.243 139.303 354.547 137.376 354.547 137.376C354.547 137.376 360.559 132.533 368.874 141.088C368.874 141.088 378.663 146.879 371.725 156.546L368.154 158.972Z" fill="#263238"/>
<path d="M371.789 159.513C371.396 160.241 370.852 160.887 370.191 161.412C369.529 161.937 368.764 162.332 367.939 162.572C365.787 163.204 364.593 161.348 365.163 159.36C365.68 157.565 367.444 155.077 369.681 155.281C370.457 155.39 371.156 155.786 371.624 156.382C372.092 156.979 372.291 157.727 372.177 158.462C372.126 158.834 371.994 159.192 371.789 159.513Z" fill="#7F3E3B"/>
<path d="M356.978 153.486C356.891 154.19 356.429 154.73 355.902 154.679C355.375 154.628 355.084 154.027 355.17 153.303C355.256 152.579 355.708 152.069 356.192 152.11C356.676 152.151 357.053 152.773 356.978 153.486Z" fill="#2E353A"/>
<path d="M348.544 152.651C348.469 153.354 348.006 153.884 347.522 153.844C347.038 153.803 346.694 153.181 346.77 152.467C346.845 151.753 347.307 151.223 347.845 151.274C348.383 151.325 348.544 151.927 348.544 152.651Z" fill="#2E353A"/>
<path d="M347.953 151.335L346.21 150.662C346.21 150.662 346.985 152.08 347.953 151.335Z" fill="#2E353A"/>
<path d="M356.44 152.212L354.686 151.549C354.686 151.549 355.472 152.926 356.44 152.212Z" fill="#2E353A"/>
<path d="M367.401 166.395C367.964 166.396 368.516 166.242 368.989 165.951C369.462 165.66 369.835 165.245 370.063 164.756C370.291 164.268 370.364 163.727 370.273 163.199C370.183 162.672 369.932 162.181 369.552 161.786L369.176 162.113C369.581 162.529 369.804 163.076 369.8 163.642C369.802 164.093 369.662 164.534 369.4 164.909C369.137 165.285 368.762 165.578 368.324 165.751C367.885 165.925 367.402 165.97 366.935 165.883C366.469 165.796 366.041 165.579 365.705 165.26C365.369 164.942 365.14 164.536 365.048 164.093C364.955 163.651 365.004 163.193 365.187 162.778C365.37 162.362 365.679 162.007 366.075 161.758C366.471 161.508 366.936 161.377 367.412 161.379C367.749 161.376 368.083 161.442 368.39 161.572L368.595 161.134C368.224 160.971 367.82 160.888 367.412 160.889C367.03 160.889 366.652 160.96 366.3 161.099C365.948 161.237 365.628 161.44 365.358 161.696C365.088 161.951 364.874 162.255 364.728 162.589C364.582 162.923 364.507 163.281 364.507 163.642C364.507 164.004 364.582 164.362 364.728 164.696C364.874 165.03 365.088 165.333 365.358 165.589C365.628 165.845 365.948 166.047 366.3 166.186C366.652 166.324 367.03 166.395 367.412 166.395H367.401Z" fill="#C53F3F"/>
<g opacity="0.6">
<path d="M367.401 166.395C367.964 166.396 368.516 166.242 368.989 165.951C369.462 165.66 369.835 165.245 370.063 164.756C370.291 164.268 370.364 163.727 370.273 163.199C370.183 162.672 369.932 162.181 369.552 161.786L369.176 162.113C369.581 162.529 369.804 163.076 369.8 163.642C369.802 164.093 369.662 164.534 369.4 164.909C369.137 165.285 368.762 165.578 368.324 165.751C367.885 165.925 367.402 165.97 366.935 165.883C366.469 165.796 366.041 165.579 365.705 165.26C365.369 164.942 365.14 164.536 365.048 164.093C364.955 163.651 365.004 163.193 365.187 162.778C365.37 162.362 365.679 162.007 366.075 161.758C366.471 161.508 366.936 161.377 367.412 161.379C367.749 161.376 368.083 161.442 368.39 161.572L368.595 161.134C368.224 160.971 367.82 160.888 367.412 160.889C367.03 160.889 366.652 160.96 366.3 161.099C365.948 161.237 365.628 161.44 365.358 161.696C365.088 161.951 364.874 162.255 364.728 162.589C364.582 162.923 364.507 163.281 364.507 163.642C364.507 164.004 364.582 164.362 364.728 164.696C364.874 165.03 365.088 165.333 365.358 165.589C365.628 165.845 365.948 166.047 366.3 166.186C366.652 166.324 367.03 166.395 367.412 166.395H367.401Z" fill="white"/>
</g>
<path d="M365.4 208.038L357.505 208.364L354.858 204.285C354.688 204.023 354.458 203.8 354.184 203.634C353.91 203.468 353.6 203.363 353.277 203.327L352.761 203.266C352.336 203.213 351.904 203.282 351.521 203.464C351.138 203.646 350.82 203.932 350.61 204.285L348.652 207.538C348.452 207.868 348.352 208.244 348.366 208.624C348.379 209.004 348.504 209.373 348.727 209.689L349.641 211.005C349.86 211.324 350.156 211.591 350.503 211.782C350.851 211.973 351.241 212.084 351.642 212.106L355.676 212.32L364.604 213.462L365.4 208.038Z" fill="#7F3E3B"/>
<path d="M379.437 180.762L383.364 207.446H360.463L359.914 213.758C359.914 213.758 391.377 219.539 392.872 214.39C394.368 209.241 394.916 192.855 392.657 186.278C391.506 182.964 388.129 179.141 381.632 178.58C381.327 178.554 381.021 178.594 380.735 178.696C380.449 178.798 380.191 178.96 379.98 179.17C379.769 179.38 379.611 179.632 379.517 179.907C379.423 180.183 379.396 180.475 379.437 180.762Z" fill="#C53F3F"/>
<path d="M279.368 26.796H254.23L228.887 301.487H254.026C259.769 301.388 265.275 299.298 269.503 295.612C273.73 291.926 276.387 286.899 276.97 281.482L298.623 46.8115C298.921 44.2636 298.644 41.6846 297.807 39.2466C296.971 36.8086 295.596 34.5677 293.774 32.6734C291.952 30.7791 289.724 29.275 287.24 28.2615C284.756 27.248 282.072 26.7484 279.368 26.796Z" fill="#263238"/>
<path d="M294.944 54.3264C294.998 53.8145 295.246 53.3385 295.641 52.9862C296.037 52.6339 296.553 52.429 297.095 52.4094C297.354 52.4052 297.612 52.4532 297.85 52.5502C298.088 52.6473 298.301 52.7913 298.476 52.9725C298.651 53.1538 298.784 53.3682 298.864 53.6016C298.945 53.835 298.973 54.0821 298.945 54.3264L297.246 72.6799C297.22 73.2144 296.983 73.7202 296.583 74.0977C296.183 74.4751 295.648 74.6968 295.084 74.7192C294.826 74.722 294.57 74.6729 294.333 74.5752C294.096 74.4775 293.884 74.3334 293.71 74.1523C293.536 73.9712 293.405 73.7572 293.325 73.5246C293.244 73.2919 293.217 73.0457 293.244 72.8023L294.944 54.3264Z" fill="#C53F3F"/>
<path opacity="0.3" d="M294.944 54.3264C294.998 53.8145 295.246 53.3385 295.641 52.9862C296.037 52.6339 296.553 52.429 297.095 52.4094C297.354 52.4052 297.612 52.4532 297.85 52.5502C298.088 52.6473 298.301 52.7913 298.476 52.9725C298.651 53.1538 298.784 53.3682 298.864 53.6016C298.945 53.835 298.973 54.0821 298.945 54.3264L297.246 72.6799C297.22 73.2144 296.983 73.7202 296.583 74.0977C296.183 74.4751 295.648 74.6968 295.084 74.7192C294.826 74.722 294.57 74.6729 294.333 74.5752C294.096 74.4775 293.884 74.3334 293.71 74.1523C293.536 73.9712 293.405 73.7572 293.325 73.5246C293.244 73.2919 293.217 73.0457 293.244 72.8023L294.944 54.3264Z" fill="white"/>
<path d="M248.873 301.487H145.297C142.595 301.533 139.913 301.033 137.431 300.019C134.948 299.006 132.722 297.503 130.9 295.61C129.079 293.717 127.703 291.478 126.866 289.042C126.028 286.606 125.748 284.029 126.043 281.482L147.707 46.8116C148.283 41.3912 150.937 36.3595 155.166 32.6703C159.395 28.9811 164.905 26.891 170.651 26.7961H274.227C276.928 26.7505 279.609 27.2508 282.091 28.2636C284.572 29.2765 286.798 30.7787 288.619 32.6703C290.441 34.5619 291.817 36.7996 292.655 39.2344C293.493 41.6691 293.775 44.2452 293.481 46.7912L271.817 281.482C271.234 286.899 268.578 291.926 264.35 295.612C260.122 299.298 254.616 301.388 248.873 301.487Z" fill="#C53F3F"/>
<path d="M273.807 31.4048H246.916C246.04 31.421 245.195 31.7151 244.516 32.2401C243.838 32.765 243.365 33.4905 243.172 34.3005L242.989 35.106C242.522 37.0861 241.367 38.8599 239.709 40.1431C238.051 41.4263 235.986 42.1445 233.846 42.1824H208.224C206.197 42.2235 204.235 41.5021 202.768 40.1761C201.3 38.85 200.447 37.0272 200.393 35.106V34.3005C200.382 33.9095 200.289 33.5244 200.121 33.1672C199.953 32.81 199.712 32.4877 199.412 32.2188C199.113 31.9499 198.76 31.7396 198.375 31.5999C197.989 31.4602 197.578 31.3939 197.166 31.4048H170.274C165.851 31.4825 161.612 33.0927 158.356 35.9312C155.099 38.7698 153.052 42.6401 152.601 46.8115L130.883 281.482C130.655 283.444 130.871 285.43 131.516 287.307C132.161 289.185 133.221 290.91 134.624 292.369C136.028 293.827 137.743 294.986 139.655 295.767C141.568 296.548 143.635 296.934 145.717 296.899H249.303C253.728 296.821 257.969 295.209 261.226 292.369C264.482 289.528 266.528 285.655 266.977 281.482L288.641 46.8115C288.867 44.85 288.65 42.8652 288.004 40.9893C287.359 39.1133 286.299 37.3893 284.896 35.9317C283.492 34.4742 281.778 33.3167 279.866 32.5361C277.954 31.7556 275.888 31.3699 273.807 31.4048Z" fill="#C53F3F"/>
<path opacity="0.7" d="M273.807 31.4048H246.916C246.04 31.421 245.195 31.7151 244.516 32.2401C243.838 32.765 243.365 33.4905 243.172 34.3005L242.989 35.106C242.522 37.0861 241.367 38.8599 239.709 40.1431C238.051 41.4263 235.986 42.1445 233.846 42.1824H208.224C206.197 42.2235 204.235 41.5021 202.768 40.1761C201.3 38.85 200.447 37.0272 200.393 35.106V34.3005C200.382 33.9095 200.289 33.5244 200.121 33.1672C199.953 32.81 199.712 32.4877 199.412 32.2188C199.113 31.9499 198.76 31.7396 198.375 31.5999C197.989 31.4602 197.578 31.3939 197.166 31.4048H170.274C165.851 31.4825 161.612 33.0927 158.356 35.9312C155.099 38.7698 153.052 42.6401 152.601 46.8115L130.883 281.482C130.655 283.444 130.871 285.43 131.516 287.307C132.161 289.185 133.221 290.91 134.624 292.369C136.028 293.827 137.743 294.986 139.655 295.767C141.568 296.548 143.635 296.934 145.717 296.899H249.303C253.728 296.821 257.969 295.209 261.226 292.369C264.482 289.528 266.528 285.655 266.977 281.482L288.641 46.8115C288.867 44.85 288.65 42.8652 288.004 40.9893C287.359 39.1133 286.299 37.3893 284.896 35.9317C283.492 34.4742 281.778 33.3167 279.866 32.5361C277.954 31.7556 275.888 31.3699 273.807 31.4048Z" fill="white"/>
<g opacity="0.2">
<path d="M214.806 35.3423C215.664 34.5635 215.75 33.3287 214.999 32.5843C214.247 31.8399 212.942 31.8677 212.083 32.6466C211.225 33.4254 211.139 34.6602 211.891 35.4047C212.642 36.1491 213.947 36.1212 214.806 35.3423Z" fill="black"/>
<path d="M230.275 32.0575H223.219C222.659 32.0671 222.123 32.2705 221.71 32.6293C221.298 32.988 221.039 33.4774 220.981 34.005C220.954 34.2533 220.982 34.5043 221.065 34.7414C221.147 34.9786 221.282 35.1964 221.46 35.3804C221.638 35.5645 221.855 35.7107 222.097 35.8093C222.339 35.908 222.6 35.9568 222.864 35.9525H229.92C230.479 35.9407 231.014 35.7366 231.426 35.3782C231.837 35.0199 232.097 34.5318 232.157 34.005C232.187 33.7564 232.159 33.5047 232.077 33.2668C231.996 33.029 231.861 32.8105 231.683 32.626C231.504 32.4416 231.287 32.2954 231.044 32.1973C230.801 32.0993 230.539 32.0516 230.275 32.0575Z" fill="black"/>
</g>
<path d="M164.251 42.1519H166.423L166.617 40.082H164.433L164.251 42.1519Z" fill="#C53F3F"/>
<path d="M168.801 40.0819L168.607 42.1518H170.78L170.974 40.0819L171.167 38.0222H168.984L168.801 40.0819Z" fill="#C53F3F"/>
<path d="M173.534 35.9525L173.34 38.0224L173.146 40.0821L172.964 42.1519H175.136L175.33 40.0821L175.524 38.0224L175.706 35.9525H173.534Z" fill="#C53F3F"/>
<path d="M267.192 36.0952L267.052 37.6043H265.976L265.697 40.6632H266.772L266.632 42.1825H276.217L276.776 36.1258L267.192 36.0952ZM271.032 40.6326H267.805L268.085 37.5737H271.312L271.032 40.6326Z" fill="#C53F3F"/>
<g opacity="0.4">
<path d="M208.299 42.1823L136.8 294.207C139.395 295.979 142.518 296.922 145.717 296.899H151.31L223.574 42.1823H208.299Z" fill="white"/>
<path d="M273.807 31.4048H246.916C246.04 31.421 245.195 31.7151 244.516 32.2401C243.838 32.765 243.365 33.4905 243.172 34.3005L242.989 35.106C242.535 37.0334 241.428 38.7671 239.837 40.0428C238.247 41.3185 236.26 42.0663 234.18 42.1722L161.873 296.899H217.001L288.641 44.3746C288.411 40.8163 286.739 37.4798 283.975 35.0627C281.21 32.6456 277.567 31.335 273.807 31.4048Z" fill="white"/>
</g>
<path d="M165.584 99.8024L162.357 99.1396C162.149 99.1009 161.953 99.0195 161.782 98.9012C161.61 98.7828 161.468 98.6304 161.366 98.4545C161.263 98.2786 161.203 98.0836 161.188 97.8831C161.174 97.6826 161.206 97.4816 161.282 97.294L165.789 86.1392L170.941 87.1588L167.273 98.8133C167.177 99.1506 166.949 99.4404 166.635 99.6241C166.321 99.8077 165.946 99.8715 165.584 99.8024Z" fill="#C53F3F"/>
<path d="M178.084 85.5274C177.871 85.4839 177.67 85.4011 177.492 85.2836C177.314 85.1661 177.162 85.0163 177.045 84.8428C176.928 84.6694 176.848 84.4757 176.81 84.2729C176.773 84.0702 176.778 83.8624 176.825 83.6615L177.255 81.7445C177.301 81.5422 177.389 81.3506 177.514 81.1807C177.638 81.0109 177.797 80.8662 177.982 80.7552C178.166 80.6442 178.371 80.569 178.587 80.534C178.802 80.4991 179.022 80.505 179.235 80.5515C179.664 80.6395 180.039 80.8855 180.277 81.2354C180.515 81.5853 180.597 82.0105 180.504 82.4175L180.063 84.3242C179.968 84.732 179.706 85.0874 179.335 85.3128C178.964 85.5383 178.514 85.6154 178.084 85.5274Z" fill="#C53F3F"/>
<path d="M174.9 76.0244C174.9 76.0244 162.637 74.6988 158.345 72.6188C148.255 67.7041 138.607 55.9782 136.563 55.5602C133.228 54.8668 128.689 62.351 126.409 72.2721C124.128 82.1932 124.989 90.7786 128.323 91.4617C130.378 91.89 144.276 85.0176 155.613 84.518C160.432 84.314 172.135 87.9745 172.135 87.9745L174.9 76.0244Z" fill="#C53F3F"/>
<path opacity="0.3" d="M174.9 76.0244C174.9 76.0244 162.637 74.6988 158.345 72.6188C148.255 67.7041 138.607 55.9782 136.563 55.5602C133.228 54.8668 128.689 62.351 126.409 72.2721C124.128 82.1932 124.989 90.7786 128.323 91.4617C130.378 91.89 144.276 85.0176 155.613 84.518C160.432 84.314 172.135 87.9745 172.135 87.9745L174.9 76.0244Z" fill="white"/>
<path d="M138.478 74.7192C136.208 84.6301 131.658 92.1143 128.323 91.4209C124.989 90.7276 124.139 82.1422 126.409 72.2313C128.678 62.3203 133.228 54.826 136.563 55.5193C139.898 56.2127 140.758 64.8389 138.478 74.7192Z" fill="#C53F3F"/>
<path opacity="0.4" d="M138.478 74.7192C136.208 84.6301 131.658 92.1143 128.323 91.4209C124.989 90.7276 124.139 82.1422 126.409 72.2313C128.678 62.3203 133.228 54.826 136.563 55.5193C139.898 56.2127 140.758 64.8389 138.478 74.7192Z" fill="black"/>
<path d="M172.91 74.7192L167.219 73.5466C166.853 73.4701 166.474 73.4658 166.106 73.5341C165.738 73.6024 165.389 73.7418 165.08 73.9436C164.771 74.1454 164.51 74.4054 164.311 74.7072C164.113 75.0091 163.983 75.3464 163.928 75.6981C163.724 77.0542 163.465 78.4511 163.143 79.8786C162.82 81.3061 162.433 82.6826 162.067 83.9572C161.963 84.2995 161.934 84.6585 161.982 85.0119C162.03 85.3653 162.154 85.7055 162.347 86.0115C162.54 86.3174 162.797 86.5826 163.102 86.7905C163.407 86.9984 163.754 87.1446 164.122 87.22L170.866 88.6067C174.91 89.4428 177.826 86.7408 178.643 82.8865C179.009 81.0844 178.613 79.2182 177.54 77.6904C176.468 76.1626 174.805 75.0955 172.91 74.7192Z" fill="#263238"/>
<path d="M132.626 72.7309L132.271 74.291C132.168 74.727 132.231 75.1836 132.45 75.5794C132.668 75.9753 133.028 76.2847 133.465 76.4526L137.596 78.084C137.918 77.0134 138.22 75.902 138.478 74.76C138.736 73.618 138.962 72.476 139.145 71.3748L134.659 71.232C134.189 71.217 133.728 71.3587 133.356 71.6326C132.985 71.9065 132.726 72.2951 132.626 72.7309Z" fill="#263238"/>
<path opacity="0.8" d="M132.626 72.7309L132.271 74.291C132.168 74.727 132.231 75.1836 132.45 75.5794C132.668 75.9753 133.028 76.2847 133.465 76.4526L137.596 78.084C137.918 77.0134 138.22 75.902 138.478 74.76C138.736 73.618 138.962 72.476 139.145 71.3748L134.659 71.232C134.189 71.217 133.728 71.3587 133.356 71.6326C132.985 71.9065 132.726 72.2951 132.626 72.7309Z" fill="white"/>
<path opacity="0.2" d="M135.745 74.1889C135.52 75.2086 135.272 76.1263 135.003 77.0643L137.596 78.084C137.918 77.0133 138.22 75.9019 138.478 74.7599C138.736 73.6179 138.962 72.4759 139.145 71.3747L136.326 71.283C136.169 72.2142 135.975 73.1829 135.745 74.1889Z" fill="black"/>
<path d="M235.126 74.8006C236.154 75.1734 237.26 75.3096 238.354 75.1979C239.448 75.0862 240.499 74.7299 241.419 74.1582C244.721 72.1189 250.917 74.6884 249.045 83.0393C245.818 97.3958 239.085 107.704 243.452 112.048C243.452 112.048 228.909 112.68 231.06 100.506C232.674 91.329 243.613 81.0102 240.978 78.9505C240.096 78.2572 238.827 78.6141 234.685 78.6141L235.126 74.8006Z" fill="#263238"/>
<path d="M234.685 78.6144C236.678 78.552 238.67 78.7789 240.591 79.2873C241.269 77.439 241.532 75.4768 241.365 73.5264C239.246 73.757 237.157 74.1839 235.126 74.8009L234.685 78.6144Z" fill="#C53F3F"/>
<path d="M220.992 64.3393C220.992 64.3393 214.947 62.7078 218.937 59.0065C224.144 54.1836 231.544 63.2176 231.544 63.2176C231.544 63.2176 248.895 70.4061 234.578 87.0772C234.578 87.0772 229.404 95.8462 228.328 92.4304C227.252 89.0146 234.438 79.3382 234.438 79.3382L234.008 70.6712L232.018 67.2962L225.768 63.911L220.992 64.3393Z" fill="#263238"/>
<path d="M197.015 113.17C196.605 112.534 196.067 111.981 195.432 111.543C194.796 111.104 194.076 110.789 193.311 110.615C192.547 110.441 191.754 110.411 190.978 110.527C190.201 110.644 189.457 110.904 188.787 111.294H188.701C186.818 112.385 184.817 113.598 182.838 114.72L176.868 118.115C174.071 119.672 171.26 121.184 168.435 122.653C168.274 120.617 168.238 118.574 168.327 116.535C168.403 114.149 168.586 111.712 168.779 109.275C168.973 106.838 169.231 104.34 169.446 101.923V101.862C169.501 101.183 169.295 100.508 168.867 99.9601C168.439 99.4127 167.818 99.0296 167.116 98.881C166.415 98.7324 165.681 98.8283 165.048 99.151C164.415 99.4738 163.926 100.002 163.67 100.639C162.712 103.096 161.959 105.523 161.206 108.011C160.454 110.498 159.883 113.007 159.378 115.597C158.826 118.286 158.524 121.015 158.474 123.754C158.432 125.477 158.667 127.196 159.173 128.852C159.635 130.332 160.53 131.658 161.755 132.676C162.684 133.42 163.793 133.935 164.982 134.175C166.019 134.365 167.086 134.365 168.123 134.175C168.373 134.122 168.617 134.05 168.854 133.96L169.209 133.828C171.501 132.931 173.781 132.033 175.997 131.014C178.213 129.994 180.429 128.974 182.591 127.904C184.753 126.833 186.893 125.681 189.045 124.488C191.196 123.295 193.197 122.102 195.316 120.715C196.547 119.89 197.406 118.656 197.721 117.257C198.036 115.859 197.784 114.4 197.015 113.17Z" fill="#CE7A63"/>
<path d="M202.254 105.727C205.879 112.65 200.662 118.656 191.099 128.281C186.105 124.442 182.616 119.124 181.192 113.18C181.192 113.18 192.25 104.534 202.254 105.727Z" fill="#C53F3F"/>
<path opacity="0.2" d="M202.63 113.945C199.091 111.905 195.101 110.988 192.336 114.322C190.178 117.007 187.678 119.428 184.893 121.531C186.586 124.077 188.692 126.355 191.132 128.281C196.876 122.53 200.985 118.074 202.63 113.945Z" fill="black"/>
<path d="M166.757 88.9941L169.209 90.5338C169.667 90.8161 170.046 91.199 170.314 91.6499C170.581 92.1009 170.73 92.6065 170.748 93.1237L170.941 98.0282C170.973 98.9933 170.764 99.9519 170.33 100.826C169.896 101.699 169.251 102.463 168.446 103.055L167.424 103.799C163.121 101.505 160.335 96.0602 160.335 96.0602L159.346 94.592C159.133 94.2961 158.985 93.9633 158.91 93.6128C158.835 93.2623 158.834 92.901 158.907 92.5501C158.98 92.1991 159.125 91.8654 159.336 91.5683C159.546 91.2712 159.816 91.0166 160.131 90.8193L163.164 88.9228C163.706 88.6046 164.334 88.442 164.972 88.4547C165.609 88.4673 166.229 88.6547 166.757 88.9941Z" fill="#CE7A63"/>
<path d="M193.853 296.899C199.425 280.585 203.233 262.466 199.446 249.241C222.466 185.146 212.085 166.487 212.085 166.487L184.688 157.014C184.688 157.014 180.773 214.736 179.59 242.664C178.933 258.275 176.126 278.576 172.888 296.909L193.853 296.899Z" fill="#263238"/>
<path opacity="0.5" d="M208.062 190.204L202.501 181.7L199.102 188.327C197.329 206.602 198.168 225.02 201.598 243.082C206.029 230.467 209.53 217.575 212.075 204.499L208.062 190.204Z" fill="black"/>
<path d="M210.687 296.899H231.458C233.61 279.942 233.61 261.701 227.263 249.506C236.944 182.424 222.96 165.998 222.96 165.998L194.154 161.674C194.154 161.674 201.974 219.039 206.46 246.641C208.772 260.936 210.085 279.484 210.687 296.899Z" fill="#263238"/>
<path d="M189.432 118.615C188.215 123.578 187.353 128.612 186.85 133.685C185.925 141.078 185.248 148.378 184.355 160.583L223.358 166.487C224.316 155.964 227.575 144.289 238.493 121.908C239.11 120.744 239.444 119.464 239.472 118.161C239.499 116.859 239.219 115.567 238.652 114.38C238.085 113.194 237.245 112.142 236.194 111.303C235.143 110.464 233.907 109.858 232.577 109.53C231.06 109.153 229.447 108.786 227.779 108.449C221.948 107.167 216.028 106.281 210.063 105.798C208.116 105.676 206.083 105.604 204.136 105.563C197.101 105.39 190.734 112.14 189.432 118.615Z" fill="#C53F3F"/>
<path d="M229.683 89.3103C227.242 94.4799 223.703 104.095 226.801 108.255C226.801 108.255 221.53 106.675 208.955 111.671C206.384 106.665 209.095 105.553 209.095 105.553C215.797 105.094 216.732 100.649 216.625 96.3764L229.683 89.3103Z" fill="#CE7A63"/>
<path d="M211.591 110.682C212.267 110.918 212.882 111.288 213.394 111.768C213.906 112.249 214.304 112.827 214.56 113.466C214.774 113.93 215.089 114.346 215.484 114.686C215.88 115.026 216.347 115.284 216.855 115.441C217.363 115.598 217.901 115.651 218.432 115.597C218.963 115.543 219.476 115.383 219.938 115.128C223.165 113.405 227.231 110.947 229.264 108.765C228.211 108.005 227.202 107.192 226.241 106.328C226.241 106.328 214.14 108.949 211.591 110.682Z" fill="white"/>
<path d="M208.095 109.57C207.174 109.711 206.303 110.061 205.556 110.59C205.349 110.733 205.099 110.81 204.843 110.81C204.586 110.81 204.336 110.734 204.129 110.591C203.921 110.449 203.766 110.247 203.687 110.017C203.607 109.786 203.606 109.537 203.685 109.305C205.029 105.696 207.353 105.227 207.353 105.227C208.475 104.821 209.715 104.821 210.838 105.227C209.907 105.519 209.118 106.118 208.614 106.915C208.111 107.713 207.926 108.655 208.095 109.57Z" fill="white"/>
<path opacity="0.2" d="M224.37 92.1958L216.668 96.3763C216.704 97.3995 216.639 98.4236 216.474 99.4353C218.991 99.4353 222.928 97.4775 223.789 95.1426C224.173 94.2028 224.37 93.2036 224.37 92.1958Z" fill="black"/>
<path d="M236.363 79.2056C233.136 87.6686 232.061 91.2986 226.069 94.694C217.13 99.7922 206.836 94.8469 207.277 85.8027C207.686 77.6456 212.828 65.1856 222.788 63.7275C224.917 63.3464 227.114 63.5119 229.153 64.2069C231.191 64.9018 232.996 66.1009 234.381 67.6799C235.766 69.2589 236.68 71.1602 237.028 73.1868C237.377 75.2134 237.147 77.2915 236.363 79.2056Z" fill="#CE7A63"/>
<path d="M224.37 78.8894C224.133 79.6133 223.552 80.1129 223.057 80.0008C222.562 79.8886 222.358 79.2157 222.584 78.4917C222.81 77.7678 223.412 77.2783 223.907 77.3905C224.402 77.5027 224.606 78.1756 224.37 78.8894Z" fill="#263238"/>
<path d="M214.85 76.4833C214.613 77.197 214.022 77.6967 213.527 77.5845C213.032 77.4723 212.828 76.7994 213.064 76.0856C213.301 75.3719 213.893 74.8621 214.387 74.9742C214.882 75.0864 215.087 75.739 214.85 76.4833Z" fill="#263238"/>
<path d="M214.592 75.066L212.935 74.1586C212.935 74.1586 213.43 75.739 214.592 75.066Z" fill="#263238"/>
<path d="M217.614 77.9718C216.402 79.469 214.993 80.8123 213.419 81.9688C213.731 82.3171 214.12 82.5949 214.559 82.7819C214.999 82.9689 215.476 83.0604 215.958 83.0496L217.614 77.9718Z" fill="#BA4D3C"/>
<path d="M227.263 74.7191C227.202 74.7141 227.143 74.6958 227.091 74.6657C227.039 74.6357 226.995 74.5946 226.962 74.5458C226.668 74.0891 226.258 73.7098 225.77 73.4425C225.281 73.1753 224.729 73.0287 224.165 73.0163C224.106 73.0177 224.048 73.0079 223.993 72.9875C223.938 72.9671 223.888 72.9365 223.846 72.8975C223.804 72.8586 223.771 72.812 223.748 72.7606C223.725 72.7092 223.713 72.654 223.713 72.5982C223.721 72.4789 223.775 72.3664 223.864 72.2819C223.953 72.1973 224.072 72.1467 224.197 72.1394C224.91 72.1512 225.609 72.3307 226.23 72.6617C226.852 72.9927 227.377 73.465 227.758 74.0359C227.8 74.1114 227.819 74.1963 227.813 74.2813C227.808 74.3663 227.778 74.4484 227.727 74.5186C227.676 74.5888 227.606 74.6446 227.525 74.6799C227.443 74.7152 227.352 74.7288 227.263 74.7191Z" fill="#263238"/>
<path d="M212.806 70.4265C212.753 70.406 212.705 70.3756 212.664 70.3371C212.623 70.2985 212.591 70.2527 212.57 70.2022C212.532 70.0927 212.541 69.9735 212.596 69.8705C212.65 69.7674 212.745 69.6888 212.86 69.6516C213.549 69.3769 214.295 69.256 215.041 69.2985C215.787 69.3409 216.513 69.5455 217.163 69.8963C217.211 69.9285 217.252 69.9698 217.283 70.0176C217.313 70.0655 217.333 70.1188 217.341 70.1743C217.349 70.2297 217.345 70.2862 217.329 70.3401C217.314 70.3941 217.286 70.4443 217.249 70.4877C217.174 70.5806 217.065 70.6435 216.944 70.6643C216.822 70.685 216.697 70.6621 216.593 70.5999C216.074 70.3251 215.496 70.1675 214.902 70.1392C214.309 70.1109 213.717 70.2127 213.172 70.4367C213.113 70.4581 213.051 70.4682 212.988 70.4665C212.925 70.4647 212.863 70.4511 212.806 70.4265Z" fill="#263238"/>
<path d="M224.111 77.4823L222.466 76.5748C222.466 76.5748 222.95 78.1349 224.111 77.4823Z" fill="#263238"/>
<path d="M188.636 146.41H179.342C178.891 146.391 178.458 146.234 178.108 145.962C177.759 145.69 177.513 145.317 177.406 144.901L173.103 125.813C173.048 125.634 173.039 125.445 173.077 125.261C173.115 125.078 173.198 124.906 173.32 124.759C173.442 124.613 173.599 124.496 173.779 124.418C173.958 124.341 174.154 124.305 174.351 124.314H183.645C184.095 124.333 184.527 124.489 184.876 124.759C185.225 125.029 185.472 125.399 185.581 125.813L189.884 144.901C189.938 145.081 189.947 145.271 189.909 145.454C189.872 145.638 189.789 145.811 189.667 145.958C189.545 146.105 189.388 146.223 189.209 146.302C189.03 146.38 188.833 146.417 188.636 146.41Z" fill="#263238"/>
<path d="M187.56 146.41H178.267C177.815 146.391 177.382 146.234 177.033 145.962C176.684 145.69 176.437 145.317 176.33 144.901L172.028 125.813C171.973 125.634 171.964 125.445 172.001 125.261C172.039 125.078 172.122 124.906 172.244 124.759C172.366 124.613 172.524 124.496 172.703 124.418C172.882 124.341 173.079 124.305 173.275 124.314H182.569C183.019 124.333 183.451 124.489 183.8 124.759C184.149 125.029 184.397 125.399 184.505 125.813L188.808 144.901C188.863 145.081 188.872 145.271 188.834 145.454C188.796 145.638 188.713 145.811 188.591 145.958C188.469 146.105 188.312 146.223 188.133 146.302C187.954 146.38 187.758 146.417 187.56 146.41Z" fill="#263238"/>
<path opacity="0.2" d="M187.56 146.41H178.267C177.815 146.391 177.382 146.234 177.033 145.962C176.684 145.69 176.437 145.317 176.33 144.901L172.028 125.813C171.973 125.634 171.964 125.445 172.001 125.261C172.039 125.078 172.122 124.906 172.244 124.759C172.366 124.613 172.524 124.496 172.703 124.418C172.882 124.341 173.079 124.305 173.275 124.314H182.569C183.019 124.333 183.451 124.489 183.8 124.759C184.149 125.029 184.397 125.399 184.505 125.813L188.808 144.901C188.863 145.081 188.872 145.271 188.834 145.454C188.796 145.638 188.713 145.811 188.591 145.958C188.469 146.105 188.312 146.223 188.133 146.302C187.954 146.38 187.758 146.417 187.56 146.41Z" fill="white"/>
<path d="M184.226 135.164L187.109 134.562C187.641 134.45 188.194 134.46 188.721 134.592C189.249 134.723 189.736 134.971 190.142 135.317L193.993 138.6C194.748 139.25 195.329 140.06 195.69 140.963C196.051 141.867 196.181 142.839 196.069 143.8L195.918 145.003C191.218 146.319 185.162 144.463 185.162 144.463L183.354 144.116C182.983 144.055 182.627 143.924 182.309 143.731C181.991 143.539 181.716 143.288 181.501 142.994C181.286 142.7 181.134 142.368 181.056 142.018C180.977 141.668 180.972 141.307 181.042 140.955L181.719 137.56C181.852 136.975 182.159 136.439 182.603 136.014C183.047 135.59 183.61 135.294 184.226 135.164Z" fill="#CE7A63"/>
<path d="M233.803 115.311C232.226 115.169 230.653 115.626 229.431 116.582C228.209 117.538 227.437 118.914 227.285 120.409V120.603C227.177 121.623 227.037 122.867 226.897 124.019C226.758 125.171 226.585 126.364 226.403 127.537C226.037 129.892 225.596 132.217 225.101 134.521C224.606 136.826 224.025 139.089 223.326 141.302C222.756 143.076 222.1 144.789 221.401 146.461C220.533 146.494 219.665 146.443 218.808 146.308C216.031 145.912 213.285 145.337 210.59 144.585C208.062 143.831 205.513 142.954 202.964 142.036C200.415 141.118 197.844 140.129 195.337 139.181H195.273C194.599 138.915 193.845 138.893 193.155 139.119C192.465 139.346 191.886 139.804 191.529 140.408C191.172 141.012 191.062 141.719 191.218 142.395C191.375 143.071 191.788 143.669 192.379 144.075C194.746 145.727 197.134 147.134 199.597 148.602C202.06 150.071 204.61 151.325 207.267 152.538C210.325 153.809 213.492 154.832 216.732 155.597C218.485 156.056 220.292 156.302 222.111 156.331C223.328 156.345 224.541 156.176 225.703 155.832C227.333 155.359 228.788 154.457 229.899 153.232C230.091 153.004 230.264 152.762 230.415 152.508L230.522 152.314C231.913 149.886 233.121 147.368 234.137 144.779C235.116 142.254 235.95 139.681 236.632 137.07C237.331 134.491 237.869 131.891 238.31 129.28C238.515 127.965 238.697 126.66 238.859 125.344C239.02 124.029 239.138 122.755 239.214 121.266C239.296 119.804 238.779 118.368 237.77 117.258C236.762 116.149 235.341 115.451 233.803 115.311Z" fill="#CE7A63"/>
<path d="M235.6 110.804C242.247 115.26 242.57 121.929 238.977 134.695C234.169 136.979 222.487 134.093 222.487 134.093C222.487 134.093 226.166 114.271 235.6 110.804Z" fill="#C53F3F"/>
<path d="M211.677 85.497C211.677 85.497 214.904 84.8954 223.67 85.1504C222.595 87.6383 220.572 89.6164 216.044 89.4838C214.957 89.5509 213.887 89.2063 213.068 88.5257C212.249 87.845 211.749 86.884 211.677 85.8539C211.677 85.7316 211.666 85.6194 211.677 85.497Z" fill="#263238"/>
<path d="M218.195 87.5362C216.459 87.3966 214.72 87.7783 213.226 88.6272C214.052 89.1658 215.031 89.4538 216.033 89.4531C217.766 89.5976 219.503 89.2155 220.992 88.3621C220.175 87.8134 219.196 87.5242 218.195 87.5362Z" fill="#BA4D3C"/>
<path d="M212.075 85.4458C212.155 85.7542 212.323 86.036 212.56 86.2606C212.797 86.4852 213.094 86.6442 213.419 86.7204C216.037 86.7905 218.657 86.6507 221.25 86.3023C221.663 86.2765 222.064 86.1552 222.416 85.9491C222.769 85.7429 223.063 85.4581 223.272 85.1195C219.537 84.9478 215.792 85.057 212.075 85.4458Z" fill="white"/>
<path d="M222.864 63.1668C222.3 63.2483 221.743 63.3676 221.196 63.5236V64.0131C222.611 63.995 224.02 64.1912 225.37 64.5943C232.814 66.7457 233.975 70.7121 231.48 76.575C230.286 79.3689 229.64 85.293 231.017 86.4044C231.372 86.6899 232.448 86.6491 233.846 86.4044C234.771 84.3651 235.653 81.9893 236.783 78.9916C237.577 77.0312 237.805 74.9053 237.444 72.8334C237.082 70.7616 236.143 68.8188 234.724 67.2058C233.305 65.5928 231.458 64.368 229.373 63.658C227.288 62.948 225.041 62.7784 222.864 63.1668Z" fill="#263238"/>
<path d="M237.213 86.9548C236.524 87.6378 235.698 88.1843 234.784 88.5623C233.87 88.9404 232.886 89.1426 231.888 89.1572C229.307 89.1572 228.898 86.6285 230.35 84.528C231.652 82.6417 234.556 80.3679 236.804 81.3977C239.052 82.4276 238.999 85.2112 237.213 86.9548Z" fill="#CE7A63"/>
<g opacity="0.9">
<path d="M221.347 130.269C203.233 129.25 195.058 126.038 191.798 124.243C191.693 124.19 191.596 124.125 191.508 124.049C190.572 123.274 191.755 121.857 192.842 122.449C195.692 124.009 203.545 127.18 221.476 128.23C221.76 128.246 222.025 128.367 222.214 128.568C222.404 128.768 222.502 129.032 222.487 129.301C222.48 129.435 222.445 129.568 222.384 129.69C222.323 129.812 222.237 129.921 222.131 130.011C222.025 130.101 221.901 130.17 221.766 130.215C221.632 130.259 221.489 130.277 221.347 130.269Z" fill="white"/>
</g>
<g opacity="0.9">
<path d="M220.4 139.976C220.401 140.115 220.371 140.251 220.314 140.379C220.256 140.506 220.172 140.621 220.067 140.716C219.961 140.811 219.836 140.885 219.699 140.933C219.562 140.982 219.417 141.003 219.271 140.996C208.936 140.64 198.772 138.382 189.346 134.348C189.216 134.287 189.1 134.201 189.006 134.096C188.912 133.991 188.841 133.869 188.797 133.738C188.754 133.606 188.74 133.468 188.754 133.331C188.769 133.194 188.813 133.061 188.883 132.941C189.016 132.712 189.236 132.54 189.498 132.46C189.76 132.381 190.044 132.399 190.292 132.512C199.465 136.401 209.338 138.589 219.378 138.957C219.654 138.97 219.914 139.083 220.105 139.273C220.295 139.463 220.401 139.714 220.4 139.976Z" fill="white"/>
</g>
<g opacity="0.9">
<path d="M202.179 156.974C193.788 155.424 189.475 154.364 187.657 153.915C187.518 153.877 187.388 153.812 187.275 153.725C187.163 153.638 187.07 153.53 187.003 153.408C186.935 153.286 186.895 153.153 186.883 153.015C186.872 152.878 186.89 152.74 186.936 152.61C187.025 152.362 187.211 152.157 187.455 152.035C187.699 151.914 187.983 151.886 188.249 151.957C189.991 152.426 194.294 153.477 202.587 155.016C202.867 155.068 203.113 155.223 203.272 155.446C203.432 155.67 203.491 155.944 203.437 156.209C203.373 156.466 203.206 156.69 202.971 156.833C202.736 156.975 202.452 157.026 202.179 156.974Z" fill="white"/>
</g>
<path d="M221.325 66.5622C220.964 66.7072 220.557 66.7126 220.191 66.5774C219.826 66.4422 219.53 66.1769 219.368 65.8382C219.221 65.4935 219.172 65.1185 219.225 64.7502C219.278 64.3819 219.431 64.033 219.669 63.7378C220.151 63.1472 220.779 62.678 221.498 62.3715C220.888 63.0568 220.464 63.8721 220.261 64.7472C220.282 65.5425 220.54 66.8171 221.325 66.5622Z" fill="#263238"/>
<path d="M230.307 87.3728C230.305 87.4665 230.282 87.5586 230.24 87.6431C230.197 87.7277 230.137 87.8028 230.061 87.8635C229.986 87.9242 229.898 87.9691 229.804 87.9953C229.709 88.0214 229.609 88.0282 229.511 88.0152C229.314 87.9748 229.133 87.8826 228.988 87.7492C228.844 87.6157 228.742 87.4465 228.694 87.2607C228.613 86.8839 228.613 86.4955 228.694 86.1187C228.759 85.2498 228.981 84.3979 229.35 83.6002C229.721 82.7957 230.397 82.1519 231.243 81.7954C231.394 81.9654 231.491 82.173 231.521 82.3935C231.552 82.614 231.515 82.8381 231.415 83.0394C231.193 83.3979 230.942 83.7388 230.662 84.059C230.338 84.5146 230.128 85.0343 230.048 85.5785C229.968 86.1228 230.02 86.6772 230.2 87.1995C230.286 87.2199 230.221 87.3627 230.307 87.3728Z" fill="#263238"/>
<path d="M109.112 152.049H32.5246C29.7003 152.049 26.9917 153.112 24.9946 155.005C22.9975 156.899 21.8755 159.466 21.8755 162.143V217.326C21.8755 220.003 22.9975 222.571 24.9946 224.464C26.9917 226.357 29.7003 227.421 32.5246 227.421H90.3847C90.9462 231.741 93.1545 235.718 96.5937 238.602C100.033 241.487 104.466 243.08 109.058 243.082C109.478 243.082 109.897 243.082 110.317 243.021C107.326 239.289 104.885 233.844 103.282 227.421H109.144C111.969 227.421 114.677 226.357 116.674 224.464C118.671 222.571 119.793 220.003 119.793 217.326V162.143C119.793 160.815 119.517 159.5 118.98 158.273C118.442 157.047 117.655 155.932 116.663 154.995C115.671 154.057 114.493 153.314 113.197 152.808C111.901 152.303 110.513 152.045 109.112 152.049Z" fill="#C53F3F"/>
<path opacity="0.4" d="M109.112 152.049H32.5246C29.7003 152.049 26.9917 153.112 24.9946 155.005C22.9975 156.899 21.8755 159.466 21.8755 162.143V217.326C21.8755 220.003 22.9975 222.571 24.9946 224.464C26.9917 226.357 29.7003 227.421 32.5246 227.421H90.3847C90.9462 231.741 93.1545 235.718 96.5937 238.602C100.033 241.487 104.466 243.08 109.058 243.082C109.478 243.082 109.897 243.082 110.317 243.021C107.326 239.289 104.885 233.844 103.282 227.421H109.144C111.969 227.421 114.677 226.357 116.674 224.464C118.671 222.571 119.793 220.003 119.793 217.326V162.143C119.793 160.815 119.517 159.5 118.98 158.273C118.442 157.047 117.655 155.932 116.663 154.995C115.671 154.057 114.493 153.314 113.197 152.808C111.901 152.303 110.513 152.045 109.112 152.049Z" fill="white"/>
<path d="M124.451 175.5L130.41 170.27L135.509 179.212C135.509 179.212 129.603 183.484 126.108 180.854L124.451 175.5Z" fill="#FF8B7B"/>
<path d="M124.451 175.49L120.396 183.668L125.957 188.032L130.819 180.568L124.451 175.49Z" fill="#FF8B7B"/>
<path d="M136.079 171.483L137.058 174.858C137.3 175.647 137.282 176.487 137.005 177.266C136.728 178.044 136.206 178.724 135.509 179.212L133.357 180.568L127.269 170.433L132.486 169.189C132.881 169.112 133.289 169.111 133.684 169.185C134.08 169.259 134.456 169.407 134.791 169.621C135.125 169.835 135.412 170.109 135.633 170.429C135.854 170.749 136.006 171.107 136.079 171.483Z" fill="#FF8B7B"/>
<path d="M124.451 175.5C124.451 175.5 126.602 169.199 126.258 167.272C126.075 166.12 127.334 166.303 128.345 166.65C128.735 166.776 129.075 167.011 129.321 167.324C129.567 167.637 129.707 168.014 129.722 168.404C129.808 170.443 129.722 174.42 128.076 174.674C126.845 174.851 125.632 175.128 124.451 175.5Z" fill="#FF8B7B"/>
<path d="M131.411 182.047C129.739 180.275 127.51 179.059 125.053 178.58L123.246 178.223C122.171 178.019 121.966 178.223 121.837 178.519L121.321 179.283L120.245 180.803C119.535 181.822 118.825 182.842 118.094 183.862C116.663 185.901 115.168 187.808 113.662 189.663C112.252 191.437 110.702 193.107 109.026 194.66L108.585 195.047C108.026 194.476 107.509 193.874 106.95 193.253C105.376 191.366 103.907 189.402 102.55 187.369C101.163 185.33 96.6665 179.151 95.4403 176.928C94.8271 175.827 94.2248 174.705 93.6547 173.584L92.8264 171.901C92.579 171.361 92.2778 170.729 92.1057 170.321L91.9874 170.056C91.1053 168.216 89.4909 166.782 87.497 166.067C85.503 165.352 83.2916 165.414 81.3459 166.24C79.4002 167.066 77.8784 168.588 77.1131 170.474C76.3478 172.361 76.4012 174.457 77.2615 176.306C77.6488 177.132 77.95 177.723 78.3372 178.407L79.4129 180.364C80.13 181.663 80.8471 182.937 81.5642 184.188C83.0916 186.706 87.9536 193.13 89.7392 195.547C91.5488 198.007 93.5288 200.35 95.6662 202.562C97.915 204.914 100.405 207.049 103.099 208.935L103.432 209.169C104.26 209.738 105.213 210.12 106.219 210.288C107.225 210.456 108.259 210.405 109.241 210.138C111.433 209.531 113.477 208.519 115.254 207.16C116.612 206.14 117.875 205.011 119.03 203.785C121.048 201.634 122.886 199.336 124.526 196.913C126.108 194.598 127.495 192.233 128.829 189.867C129.464 188.664 130.087 187.471 130.668 186.248L131.529 184.412L131.948 183.484C132.077 183.158 132.142 182.801 131.411 182.047Z" fill="#263238"/>
<path opacity="0.4" d="M91.5464 178.804L85.6302 182.77L83.9307 186.604C84.2211 187.114 84.5008 187.624 84.8019 188.134C86.3186 190.652 88.0289 193.099 89.7715 195.516C91.5811 197.976 93.5611 200.32 95.6984 202.531C96.7741 203.551 97.8498 204.57 98.9254 205.59C96.0211 199.115 91.5464 178.804 91.5464 178.804Z" fill="black"/>
<path d="M38.6667 209.801C39.1292 219.998 37.4296 219.529 37.3866 227.421H89.8038C92.6543 203.347 91.3205 199.646 91.3743 183.668C91.3743 174.675 89.9221 165.498 80.4778 164.56C69.385 163.534 58.21 163.602 47.1321 164.764C45.4726 164.955 43.8702 165.459 42.4189 166.246C40.9676 167.032 39.6966 168.086 38.6806 169.344C37.6646 170.603 36.924 172.041 36.5023 173.574C36.0806 175.108 35.9863 176.705 36.2249 178.274C38.344 191.866 37.193 199.564 38.6667 209.801Z" fill="#263238"/>
<path opacity="0.9" d="M75.6911 164.182C68.7074 163.749 61.702 163.729 54.7156 164.121C54.8662 166.161 56.5012 171.259 68.4088 175.674C68.4088 175.674 71.0657 170.209 73.3031 172.666C73.3031 172.666 75.0994 169.525 78.9503 175.307C78.9503 175.307 84.6944 169.474 75.6911 164.182Z" fill="white"/>
<path opacity="0.4" d="M47.358 178.641C48.509 188.093 42.1411 203.897 38.7527 211.534C38.7527 211.004 38.7527 210.423 38.7527 209.801C37.8276 203.418 37.9352 198.014 37.677 191.57L47.358 178.641Z" fill="black"/>
<path d="M59.8573 146.094C60.0338 152.294 58.7705 158.456 56.157 164.142C56.0599 164.358 56.0358 164.598 56.0878 164.828C56.1397 165.058 56.2653 165.267 56.4474 165.427C60.8367 169.014 66.4651 170.945 72.2597 170.851C79.3053 170.933 78.8965 168.812 77.2293 166.497C76.9863 166.168 76.6706 165.893 76.3042 165.692C71.4852 162.979 71.3131 159.349 72.6684 157.157L59.8573 146.094Z" fill="#FF8B7B"/>
<path opacity="0.2" d="M59.868 146.094L72.6684 157.157C72.2408 157.854 71.9935 158.636 71.9468 159.441C71.9 160.246 72.0552 161.05 72.3995 161.786C69.6986 161.866 67.0661 160.974 65.0312 159.288C61.7289 156.627 60.6102 153.487 59.782 149.092C59.8465 148.133 59.868 147.114 59.868 146.094Z" fill="black"/>
<path d="M56.0494 140.343C56.6088 148.5 55.3933 149.805 59.7605 153.935C66.3328 160.145 77.0356 161.327 78.5523 153.068C79.9077 145.625 80.7037 132.155 72.2167 129.015C70.3464 128.31 68.3174 128.068 66.3213 128.314C64.3252 128.559 62.4282 129.283 60.8096 130.417C59.1911 131.551 57.9045 133.058 57.0715 134.795C56.2385 136.532 55.8867 138.441 56.0494 140.343Z" fill="#FF8B7B"/>
<path d="M76.9388 149.153C76.9388 149.153 73.9162 148.245 65.3432 147.899C66.2575 150.815 68.0538 153.242 72.4425 153.374C76.8313 153.507 76.9388 149.153 76.9388 149.153Z" fill="#263238"/>
<path d="M70.4848 150.999C72.211 150.973 73.8898 151.533 75.2178 152.579C74.4242 153.143 73.442 153.414 72.4533 153.344C70.7241 153.377 69.0414 152.811 67.7204 151.753C68.5154 151.193 69.4974 150.925 70.4848 150.999Z" fill="#FF5652"/>
<path d="M76.5516 149.02C76.2934 149.622 76.0245 150.234 75.164 150.397C72.6257 150.283 70.1046 149.942 67.6343 149.377C67.21 149.305 66.813 149.128 66.4828 148.865C66.1526 148.602 65.9007 148.262 65.7519 147.878C69.3811 147.945 72.9961 148.327 76.5516 149.02Z" fill="white"/>
<path d="M73.572 141.536C74.4785 143.057 75.6045 144.45 76.9173 145.676C76.5782 145.991 76.1701 146.23 75.722 146.378C75.2739 146.527 74.7969 146.579 74.325 146.532L73.572 141.536Z" fill="#FF5652"/>
<path d="M65.085 138.018C65.0115 138.009 64.9434 137.977 64.8914 137.927C64.8507 137.889 64.8184 137.844 64.7964 137.794C64.7744 137.744 64.763 137.69 64.763 137.636C64.763 137.582 64.7744 137.528 64.7964 137.479C64.8184 137.429 64.8507 137.383 64.8914 137.346C65.3372 136.85 65.9019 136.462 66.5382 136.215C67.1745 135.969 67.8639 135.87 68.5486 135.928C68.6627 135.944 68.7654 136.003 68.834 136.091C68.9026 136.179 68.9315 136.289 68.9144 136.397C68.8972 136.505 68.8355 136.603 68.7427 136.668C68.6499 136.733 68.5337 136.76 68.4196 136.744C67.8753 136.704 67.3289 136.788 66.8257 136.988C66.3224 137.188 65.8769 137.5 65.526 137.896C65.4722 137.954 65.4022 137.996 65.3242 138.018C65.2461 138.039 65.1632 138.04 65.085 138.018Z" fill="#263238"/>
<path d="M79.3698 139.466C79.2996 139.478 79.2275 139.473 79.1599 139.452C79.0923 139.43 79.0314 139.393 78.9826 139.344C78.6258 138.959 78.1771 138.66 77.6739 138.472C77.1706 138.284 76.6273 138.212 76.0891 138.263C75.9779 138.281 75.8638 138.257 75.7713 138.196C75.6788 138.135 75.6152 138.042 75.5942 137.937C75.5754 137.829 75.6021 137.718 75.6684 137.629C75.7348 137.539 75.8356 137.478 75.9492 137.458C76.6277 137.387 77.3142 137.47 77.952 137.701C78.5898 137.931 79.1606 138.302 79.6172 138.783C79.6579 138.821 79.6902 138.866 79.7122 138.916C79.7342 138.966 79.7456 139.02 79.7456 139.074C79.7456 139.128 79.7342 139.182 79.7122 139.231C79.6902 139.281 79.6579 139.327 79.6172 139.364C79.5477 139.422 79.4613 139.457 79.3698 139.466Z" fill="#263238"/>
<path d="M22.7038 211.463C22.7225 211.849 22.7838 212.231 22.8866 212.605C23.8585 215.865 25.1216 219.041 26.6622 222.098C27.4439 223.716 28.2506 225.306 29.0825 226.87C30.1906 227.23 31.3533 227.416 32.5246 227.42H44.131L42.9801 224.983C41.7 222.322 40.5168 219.651 39.4411 217.01C38.5452 214.868 37.7907 212.674 37.1822 210.443C37.3043 209.59 37.4876 208.745 37.7308 207.915C38.0643 206.691 38.5161 205.366 39.0324 204.02C40.108 201.338 41.2913 198.575 42.5821 195.862C43.8729 193.15 45.3035 190.367 46.7449 187.624C48.1863 184.881 49.6922 182.108 51.1874 179.518V179.426L51.2627 179.273C52.2384 177.468 52.4176 175.369 51.761 173.439C51.1044 171.509 49.6657 169.905 47.7614 168.98C45.8571 168.055 43.6433 167.885 41.6068 168.507C39.5704 169.13 37.8782 170.494 36.9026 172.299C35.2891 175.296 33.8369 178.162 32.374 181.129C30.9111 184.096 29.588 187.094 28.2972 190.153C27.0064 193.211 25.8447 196.301 24.7691 199.615C24.242 201.277 23.7687 202.99 23.3707 204.835C22.8759 206.936 22.6484 209.086 22.693 211.239L22.7038 211.463Z" fill="#263238"/>
<path d="M52.1447 145.808C52.8905 147.557 54.3094 148.971 56.114 149.765C58.4159 150.703 59.6852 148.572 59.1366 146.125C58.6525 143.932 56.8562 140.792 54.5005 140.894C52.1447 140.996 51.1659 143.565 52.1447 145.808Z" fill="#FF8B7B"/>
<path d="M67.118 140.792C67.118 141.495 67.4299 142.097 67.9355 142.128C68.4411 142.158 68.8606 141.608 68.8929 140.884C68.9251 140.16 68.5809 139.579 68.0861 139.548C67.5913 139.517 67.161 140.068 67.118 140.792Z" fill="#2E353A"/>
<path d="M75.6265 141.261C75.6265 141.975 75.9492 142.576 76.4333 142.607C76.9173 142.637 77.3584 142.077 77.4121 141.363C77.4659 140.649 77.0894 140.058 76.6054 140.027C76.1213 139.997 75.6696 140.547 75.6265 141.261Z" fill="#2E353A"/>
<path d="M100.238 9.02389H23.6934C20.8709 9.02659 18.1651 10.0913 16.1703 11.9841C14.1755 13.8769 13.0551 16.4429 13.0551 19.1183V74.3013C13.0536 75.6265 13.3278 76.9389 13.8618 78.1635C14.3958 79.3882 15.1791 80.5011 16.1671 81.4386C17.1551 82.3761 18.3284 83.1198 19.6198 83.6272C20.9112 84.1346 22.2954 84.3958 23.6934 84.3958H81.5319C82.0864 88.718 84.2907 92.6984 87.729 95.5856C91.1672 98.4728 95.6014 100.067 100.195 100.068C100.625 100.068 101.044 100.068 101.464 100.006C98.4736 96.2644 96.0211 90.8297 94.4291 84.3958H100.292C103.116 84.3958 105.824 83.3323 107.822 81.4392C109.819 79.5461 110.941 76.9785 110.941 74.3013V19.1183C110.939 17.7888 110.661 16.4726 110.122 15.2451C109.583 14.0177 108.794 12.9032 107.799 11.9654C106.805 11.0277 105.625 10.2851 104.328 9.78035C103.03 9.27558 101.64 9.01852 100.238 9.02389Z" fill="#C53F3F"/>
<path opacity="0.4" d="M100.238 9.02389H23.6934C20.8709 9.02659 18.1651 10.0913 16.1703 11.9841C14.1755 13.8769 13.0551 16.4429 13.0551 19.1183V74.3013C13.0536 75.6265 13.3278 76.9389 13.8618 78.1635C14.3958 79.3882 15.1791 80.5011 16.1671 81.4386C17.1551 82.3761 18.3284 83.1198 19.6198 83.6272C20.9112 84.1346 22.2954 84.3958 23.6934 84.3958H81.5319C82.0864 88.718 84.2907 92.6984 87.729 95.5856C91.1672 98.4728 95.6014 100.067 100.195 100.068C100.625 100.068 101.044 100.068 101.464 100.006C98.4736 96.2644 96.0211 90.8297 94.4291 84.3958H100.292C103.116 84.3958 105.824 83.3323 107.822 81.4392C109.819 79.5461 110.941 76.9785 110.941 74.3013V19.1183C110.939 17.7888 110.661 16.4726 110.122 15.2451C109.583 14.0177 108.794 12.9032 107.799 11.9654C106.805 11.0277 105.625 10.2851 104.328 9.78035C103.03 9.27558 101.64 9.01852 100.238 9.02389Z" fill="white"/>
<path d="M81.4781 84.3957C81.0393 78.4687 81.0393 72.5198 81.4781 66.5928C82.145 56.1517 78.8535 44.8642 76.3687 42.9371C72.7868 40.1331 69.4522 37.4922 68.269 41.0202C67.5805 43.0595 67.3762 46.4243 67.4192 50.1969C67.5268 59.3125 69.5705 70.6815 70.5386 75.9327C70.8936 77.7884 71.7864 84.4059 71.7864 84.4059L81.4781 84.3957Z" fill="#C53F3F"/>
<path d="M74.7875 43.3857C74.6649 42.6362 74.3164 41.9363 73.784 41.3701C73.2515 40.8039 72.5579 40.3956 71.7864 40.1943C69.0972 39.5111 64.4504 38.3997 60.223 37.6859C55.2415 36.9186 50.2094 36.4825 45.1637 36.3808C41.9367 36.2584 38.8388 36.3808 36.354 36.4828C36.0595 36.5047 35.7678 36.5524 35.4827 36.6255C34.9578 36.7666 34.4673 37.0043 34.0394 37.3251C33.6114 37.6459 33.2544 38.0435 32.9887 38.4952C32.7229 38.9469 32.5537 39.4439 32.4907 39.9576C32.4277 40.4713 32.4721 40.9918 32.6214 41.4892C39.0001 63.075 40.3232 73.404 40.6566 84.3957H71.7864C73.2385 74.4236 76.0891 66.2359 76.3472 60.373C76.5688 54.6712 76.0449 48.9654 74.7875 43.3857Z" fill="#C53F3F"/>
<path opacity="0.8" d="M74.7875 43.3857C74.6649 42.6362 74.3164 41.9363 73.784 41.3701C73.2515 40.8039 72.5579 40.3956 71.7864 40.1943C69.0972 39.5111 64.4504 38.3997 60.223 37.6859C55.2415 36.9186 50.2094 36.4825 45.1637 36.3808C41.9367 36.2584 38.8388 36.3808 36.354 36.4828C36.0595 36.5047 35.7678 36.5524 35.4827 36.6255C34.9578 36.7666 34.4673 37.0043 34.0394 37.3251C33.6114 37.6459 33.2544 38.0435 32.9887 38.4952C32.7229 38.9469 32.5537 39.4439 32.4907 39.9576C32.4277 40.4713 32.4721 40.9918 32.6214 41.4892C39.0001 63.075 40.3232 73.404 40.6566 84.3957H71.7864C73.2385 74.4236 76.0891 66.2359 76.3472 60.373C76.5688 54.6712 76.0449 48.9654 74.7875 43.3857Z" fill="white"/>
<path d="M61.9978 32.6999C59.9541 35.3204 58.4589 38.4303 61.6644 41.8767C62.3595 42.5957 62.7667 43.5229 62.8153 44.4971C62.8153 46.0572 61.901 47.5561 56.5442 44.5787C48.7779 40.2554 49.4341 35.4019 49.4341 35.4019C53.5108 34.2294 55.9526 26.1028 56.8992 21.4532L61.9978 32.6999Z" fill="#FFB573"/>
<path opacity="0.2" d="M57.3294 28.3971C56.7378 30.3752 58.9429 33.4953 60.621 34.7801C61.0118 34.0634 61.469 33.3809 61.9871 32.7408L58.9752 26.0621C58.2709 26.731 57.7118 27.5243 57.3294 28.3971Z" fill="black"/>
<path d="M77.7671 8.24894C80.4993 11.5322 74.3465 21.4227 73.6795 19.3528C72.6039 15.988 71.0334 9.15642 71.0549 6.35241C71.0979 1.92717 75.0456 4.9759 77.7671 8.24894Z" fill="#263238"/>
<path d="M55.1136 9.27867C55.8387 8.10878 56.7998 7.08579 57.9422 6.26813C59.0845 5.45047 60.3855 4.85416 61.771 4.51328C63.1565 4.1724 64.5993 4.09362 66.0169 4.28145C67.4346 4.46928 68.7993 4.92004 70.0331 5.60796C77.3583 9.62535 76.799 20.9026 74.1098 27.3875C71.1625 34.6168 61.2018 35.5446 56.0494 28.9679C52.5858 24.5835 53.0268 21.392 53.6399 13.8365C53.7471 12.2286 54.252 10.6673 55.1136 9.27867Z" fill="#FFB573"/>
<path d="M64.8484 17.6194C64.7946 18.2414 65.085 18.7716 65.5045 18.8124C65.924 18.8532 66.322 18.3842 66.3973 17.7928C66.4726 17.2014 66.1607 16.6406 65.7411 16.5998C65.3216 16.559 64.9452 17.079 64.8484 17.6194Z" fill="#263238"/>
<path d="M65.526 16.6917L67.1288 16.4164C67.1288 16.4164 66.2252 17.4564 65.526 16.6917Z" fill="#263238"/>
<path d="M73.0019 19.3833C73.0019 20.0053 73.2385 20.5355 73.658 20.5763C74.0776 20.617 74.4755 20.148 74.5508 19.5566C74.6261 18.9652 74.3142 18.4044 73.8947 18.3636C73.4752 18.3228 73.0987 18.8021 73.0019 19.3833Z" fill="#263238"/>
<path d="M73.6796 18.4147L75.2823 18.1394C75.2823 18.1394 74.3787 19.1794 73.6796 18.4147Z" fill="#263238"/>
<path d="M69.947 24.0431C70.3241 24.1884 70.73 24.2545 71.1366 24.2369C71.5433 24.2193 71.9411 24.1184 72.3027 23.9412C71.5288 22.6222 70.9497 21.2086 70.5816 19.7402L69.947 24.0431Z" fill="#ED893E"/>
<path d="M63.805 23.7883C63.7851 23.7446 63.7829 23.6955 63.7988 23.6503C63.8146 23.6052 63.8475 23.5672 63.891 23.5435C63.9367 23.5222 63.9894 23.5188 64.0378 23.5341C64.0861 23.5493 64.1261 23.5821 64.1492 23.6251C64.5464 24.2939 65.1057 24.8636 65.7808 25.2873C66.456 25.711 67.2277 25.9766 68.0323 26.062C68.0787 26.0739 68.1192 26.1008 68.1467 26.1381C68.1743 26.1753 68.1871 26.2206 68.1829 26.266C68.1804 26.2885 68.1729 26.3102 68.161 26.3299C68.1492 26.3495 68.1331 26.3666 68.1139 26.38C68.0947 26.3934 68.0727 26.4029 68.0494 26.4079C68.0261 26.4128 68.002 26.4131 67.9785 26.4087C67.669 26.3766 67.363 26.3186 67.0642 26.2354C66.3768 26.0529 65.7346 25.7426 65.175 25.3224C64.6155 24.9023 64.1497 24.3808 63.805 23.7883Z" fill="#263238"/>
<path d="M64.5687 13.6938C64.5088 13.6181 64.483 13.5229 64.4972 13.4292C64.5113 13.3355 64.5641 13.251 64.644 13.1942C65.2831 12.827 65.9975 12.5934 66.7395 12.509C67.4816 12.4246 68.234 12.4913 68.9466 12.7048C69.0412 12.7371 69.1188 12.8031 69.1629 12.8888C69.2071 12.9744 69.2144 13.073 69.1833 13.1636C69.1514 13.2525 69.0838 13.3259 68.9952 13.3679C68.9066 13.4099 68.8041 13.4171 68.71 13.3879C68.1158 13.2062 67.4879 13.145 66.8671 13.2083C66.2463 13.2715 65.6464 13.4578 65.1065 13.755C65.0438 13.8021 64.9661 13.8278 64.886 13.8278C64.8059 13.8278 64.7282 13.8021 64.6655 13.755L64.5687 13.6938Z" fill="#263238"/>
<path d="M76.3042 16.049C76.0458 15.6658 75.6939 15.3472 75.2783 15.12C74.8627 14.8929 74.3955 14.7638 73.9162 14.7438C73.8659 14.7452 73.8158 14.737 73.7688 14.7197C73.7219 14.7023 73.6791 14.6763 73.643 14.643C73.6069 14.6097 73.5782 14.5699 73.5586 14.5259C73.539 14.482 73.529 14.4347 73.529 14.387C73.5289 14.2914 73.5683 14.1995 73.6386 14.131C73.7089 14.0624 73.8046 14.0226 73.9055 14.0199C74.5099 14.04 75.1005 14.1967 75.6281 14.4769C76.1557 14.7572 76.6051 15.1528 76.9388 15.6309C76.9666 15.6695 76.9859 15.7129 76.9956 15.7587C77.0053 15.8045 77.0051 15.8516 76.995 15.8974C76.985 15.9431 76.9653 15.9864 76.9371 16.0247C76.909 16.063 76.873 16.0956 76.8313 16.1204C76.7753 16.155 76.7099 16.1735 76.643 16.1735C76.5762 16.1735 76.5108 16.155 76.4548 16.1204L76.3042 16.049Z" fill="#263238"/>
<path d="M66.5156 7.76963C65.314 7.98337 64.1773 8.4473 63.1877 9.12792C62.1981 9.80854 61.3803 10.6889 60.7931 11.7054C60.2445 12.6639 56.7163 14.7644 56.1139 15.7126C54.2208 18.7002 56.2861 27.204 55.3933 27.8464C54.5005 28.4887 54.8124 25.9702 53.9626 25.4808C53.061 25.095 52.1971 24.6344 51.381 24.1043C50.3054 23.2478 46.5728 14.02 51.1766 8.4324C53.4674 5.48506 56.8209 3.43843 60.5995 2.68162C64.4277 2.06494 68.3577 2.91194 71.5282 5.037C72.5286 5.72016 74.2819 7.5861 71.5282 8.42221C70.7753 8.64653 70.743 8.07552 69.9578 7.89199C68.8331 7.61646 67.6589 7.57472 66.5156 7.76963Z" fill="#263238"/>
<path d="M48.2078 15.7126C50.8647 13.2654 54.1777 13.2654 57.1036 13.2654C58.4938 13.3698 59.8922 13.221 61.2234 12.827C64.1707 11.6136 65.9778 7.62681 66.3113 6.32166C66.4895 5.78756 66.8081 5.3052 67.2372 4.91993C67.6662 4.53466 68.1915 4.25913 68.7638 4.11924C69.2295 4.09758 69.6942 4.17835 70.1215 4.35524C70.5489 4.53212 70.9272 4.80033 71.227 5.13889C71.7541 5.86283 71.7003 6.91306 71.0657 8.19781L71.4852 8.37115C72.1844 6.89267 72.2167 5.70989 71.6035 4.85339C71.2569 4.45642 70.8185 4.14046 70.3223 3.93004C69.8261 3.71961 69.2855 3.62037 68.7423 3.64001C68.0699 3.78216 67.4496 4.09128 66.9449 4.53564C66.4402 4.98001 66.0693 5.54364 65.8702 6.16872C65.569 7.37189 63.7942 11.2669 61.0405 12.3885C59.7672 12.7593 58.4306 12.8943 57.1036 12.7862C54.2423 12.7862 50.6496 12.7862 47.8959 15.3557L48.2078 15.7126Z" fill="#263238"/>
<path opacity="0.1" d="M48.2078 15.7126C50.8647 13.2654 54.1777 13.2654 57.1036 13.2654C58.4938 13.3698 59.8922 13.221 61.2234 12.827C64.1707 11.6136 65.9778 7.62681 66.3113 6.32166C66.4895 5.78756 66.8081 5.3052 67.2372 4.91993C67.6662 4.53466 68.1915 4.25913 68.7638 4.11924C69.2295 4.09758 69.6942 4.17835 70.1215 4.35524C70.5489 4.53212 70.9272 4.80033 71.227 5.13889C71.7541 5.86283 71.7003 6.91306 71.0657 8.19781L71.4852 8.37115C72.1844 6.89267 72.2167 5.70989 71.6035 4.85339C71.2569 4.45642 70.8185 4.14046 70.3223 3.93004C69.8261 3.71961 69.2855 3.62037 68.7423 3.64001C68.0699 3.78216 67.4496 4.09128 66.9449 4.53564C66.4402 4.98001 66.0693 5.54364 65.8702 6.16872C65.569 7.37189 63.7942 11.2669 61.0405 12.3885C59.7672 12.7593 58.4306 12.8943 57.1036 12.7862C54.2423 12.7862 50.6496 12.7862 47.8959 15.3557L48.2078 15.7126Z" fill="white"/>
<path d="M50.4882 18.5781C50.532 18.2544 50.6427 17.9421 50.8142 17.6591C50.9856 17.3762 51.2143 17.1281 51.4872 16.9291C51.76 16.7301 52.0717 16.5842 52.4042 16.4998C52.7367 16.4153 53.0835 16.3939 53.4248 16.4368C55.404 16.7223 56.3076 19.251 56.3076 20.9029C56.3076 22.728 54.8769 24.0841 53.1344 23.0543C51.8288 22.2651 50.9049 21.0192 50.5635 19.5875C50.4635 19.2598 50.4379 18.9158 50.4882 18.5781Z" fill="#FFB573"/>
<path d="M54.0056 45.4863C53.5861 50.7068 48.4982 70.4267 37.4727 70.9773C35.716 71.0239 34.0046 70.4455 32.6752 69.3561C23.7902 64.2579 30.7713 39.6845 32.5569 38.257C33.3322 37.6267 34.2618 37.1908 35.2608 36.989C36.2597 36.7872 37.2961 36.826 38.2752 37.1019C39.2542 37.3778 40.1447 37.8819 40.8651 38.5682C41.5856 39.2545 42.113 40.101 42.3992 41.0304C42.6314 40.2529 42.8145 39.463 42.9478 38.6649C43.4103 36.0036 44.9378 29.8042 47.756 29.3555C49.4556 29.0802 52.9515 28.9375 53.9626 30.2528C54.9737 31.5682 54.7048 36.8703 54.0056 45.4863Z" fill="#C53F3F"/>
<g opacity="0.2">
<path d="M53.4248 16.4366V16.8955L53.9303 21.4227V27.255L54.7694 23.7883C54.9823 22.885 55.0296 21.9537 54.9092 21.0352L54.3176 16.6916L53.4248 16.4366Z" fill="black"/>
</g>
<path d="M47.8959 30.4058L46.5728 21.3208L54.565 21.2596C54.565 21.2596 53.9088 28.081 51.9081 30.4364L47.8959 30.4058Z" fill="#FFB573"/>
<path d="M47.9819 15.111L53.8981 16.1L54.5327 21.239L46.5728 21.3206L47.9819 15.111Z" fill="#FFB573"/>
<path opacity="0.2" d="M39.9467 49.2997C39.9467 49.2997 35.16 59.7816 35.0094 55.6316C34.8588 51.1146 39.9467 49.2997 39.9467 49.2997Z" fill="black"/>
<path d="M334.98 110.59H305.378C304.023 110.59 302.723 111.1 301.765 112.009C300.807 112.917 300.269 114.149 300.269 115.434V133.502C300.271 134.784 300.811 136.014 301.769 136.92C302.727 137.826 304.025 138.335 305.378 138.335H313.886L317.684 143.045C317.976 143.409 318.352 143.704 318.784 143.906C319.216 144.109 319.692 144.215 320.174 144.215C320.656 144.215 321.131 144.109 321.563 143.906C321.995 143.704 322.372 143.409 322.664 143.045L326.461 138.335H334.98C336.333 138.335 337.629 137.825 338.586 136.919C339.542 136.013 340.079 134.783 340.079 133.502V115.434C340.079 114.151 339.542 112.92 338.586 112.012C337.63 111.104 336.334 110.593 334.98 110.59Z" fill="#C53F3F"/>
<path opacity="0.7" d="M334.98 110.59H305.378C304.023 110.59 302.723 111.1 301.765 112.009C300.807 112.917 300.269 114.149 300.269 115.434V133.502C300.271 134.784 300.811 136.014 301.769 136.92C302.727 137.826 304.025 138.335 305.378 138.335H313.886L317.684 143.045C317.976 143.409 318.352 143.704 318.784 143.906C319.216 144.109 319.692 144.215 320.174 144.215C320.656 144.215 321.131 144.109 321.563 143.906C321.995 143.704 322.372 143.409 322.664 143.045L326.461 138.335H334.98C336.333 138.335 337.629 137.825 338.586 136.919C339.542 136.013 340.079 134.783 340.079 133.502V115.434C340.079 114.151 339.542 112.92 338.586 112.012C337.63 111.104 336.334 110.593 334.98 110.59Z" fill="white"/>
<path d="M333.259 123.009L323.804 117.544V120.827H319.501C316.717 120.827 314.047 121.876 312.078 123.742C310.109 125.609 309.003 128.14 309.003 130.779C309.006 131.517 309.093 132.251 309.261 132.971C309.79 130.77 311.09 128.804 312.95 127.395C314.81 125.985 317.12 125.216 319.501 125.212H323.804V128.505L333.259 123.009Z" fill="#C53F3F"/>
<path d="M126.688 0H149.385C150.423 0 151.419 0.391032 152.154 1.08707C152.888 1.78311 153.3 2.72714 153.3 3.71149V17.6194C153.3 18.1063 153.199 18.5884 153.002 19.0382C152.805 19.4879 152.517 19.8964 152.153 20.2402C151.789 20.5841 151.357 20.8565 150.883 21.0419C150.408 21.2273 149.899 21.322 149.385 21.3207H142.856L139.951 24.9404C139.728 25.2193 139.439 25.4455 139.108 25.6011C138.776 25.7568 138.412 25.8378 138.042 25.8378C137.672 25.8378 137.308 25.7568 136.976 25.6011C136.645 25.4455 136.357 25.2193 136.133 24.9404L133.218 21.3207H126.688C126.175 21.322 125.667 21.2272 125.192 21.0417C124.718 20.8562 124.287 20.5836 123.924 20.2396C123.561 19.8957 123.274 19.4871 123.078 19.0374C122.882 18.5877 122.782 18.1058 122.784 17.6194V3.71149C122.782 3.22457 122.882 2.74218 123.078 2.29194C123.273 1.8417 123.561 1.43246 123.924 1.08769C124.286 0.742908 124.717 0.469358 125.192 0.282713C125.666 0.0960684 126.175 -1.84761e-06 126.688 0Z" fill="#C53F3F"/>
<path opacity="0.7" d="M126.688 0H149.385C150.423 0 151.419 0.391032 152.154 1.08707C152.888 1.78311 153.3 2.72714 153.3 3.71149V17.6194C153.3 18.1063 153.199 18.5884 153.002 19.0382C152.805 19.4879 152.517 19.8964 152.153 20.2402C151.789 20.5841 151.357 20.8565 150.883 21.0419C150.408 21.2273 149.899 21.322 149.385 21.3207H142.856L139.951 24.9404C139.728 25.2193 139.439 25.4455 139.108 25.6011C138.776 25.7568 138.412 25.8378 138.042 25.8378C137.672 25.8378 137.308 25.7568 136.976 25.6011C136.645 25.4455 136.357 25.2193 136.133 24.9404L133.218 21.3207H126.688C126.175 21.322 125.667 21.2272 125.192 21.0417C124.718 20.8562 124.287 20.5836 123.924 20.2396C123.561 19.8957 123.274 19.4871 123.078 19.0374C122.882 18.5877 122.782 18.1058 122.784 17.6194V3.71149C122.782 3.22457 122.882 2.74218 123.078 2.29194C123.273 1.8417 123.561 1.43246 123.924 1.08769C124.286 0.742908 124.717 0.469358 125.192 0.282713C125.666 0.0960684 126.175 -1.84761e-06 126.688 0Z" fill="white"/>
<path d="M128.033 9.5233L135.304 5.32239V7.8409H138.628C139.835 7.84406 141.025 8.10369 142.112 8.60066C143.198 9.09764 144.154 9.8193 144.907 10.7125C145.66 11.6058 146.193 12.6478 146.465 13.7619C146.738 14.8761 146.743 16.0339 146.481 17.1502C146.076 15.4626 145.079 13.9553 143.652 12.8753C142.225 11.7952 140.454 11.2066 138.628 11.2057H135.304V13.7242L128.033 9.5233Z" fill="#C53F3F"/>
</svg>
