<svg width="335" height="312" viewBox="0 0 335 312" fill="none" xmlns="http://www.w3.org/2000/svg">
<path d="M239.966 196.198H288.203V161.416H239.966V196.198Z" fill="#EBEBEB"/>
<path d="M243.411 193.159H249.225V187.019H243.411V193.159Z" fill="white"/>
<path d="M273.49 161.504H268.01V168.923H273.49V161.504Z" fill="#FAFAFA"/>
<path d="M273.49 188.673H268.01V196.092H273.49V188.673Z" fill="#FAFAFA"/>
<path d="M252.002 196.435C251.915 196.435 251.849 188.785 251.849 179.35C251.849 169.915 251.915 162.265 252.002 162.265C252.089 162.265 252.156 169.915 252.156 179.35C252.156 188.785 252.089 196.435 252.002 196.435Z" fill="#E0E0E0"/>
<path d="M220.294 256.09H303.522V196.08H220.294V256.09Z" fill="#EBEBEB"/>
<path d="M226.242 250.854H236.268V240.259H226.242V250.854Z" fill="white"/>
<path d="M278.129 196.236H268.677V209.04H278.129V196.236Z" fill="#FAFAFA"/>
<path d="M278.129 243.104H268.677V255.909H278.129V243.104Z" fill="#FAFAFA"/>
<path d="M241.068 256.501C240.921 256.501 240.801 243.304 240.801 227.024C240.801 210.744 240.921 197.546 241.068 197.546C241.215 197.546 241.328 210.744 241.328 227.024C241.328 243.304 241.215 256.501 241.068 256.501Z" fill="#E0E0E0"/>
<path d="M300.879 71.2671L305.338 79.7098L315.304 81.0639L308.095 87.6408L309.797 96.9197L300.879 92.5393L291.961 96.9197L293.663 87.6408L286.454 81.0639L296.42 79.7098L300.879 71.2671Z" fill="#EBEBEB"/>
<path d="M35.3937 180.317L38.204 185.64L44.4855 186.489L39.9396 190.632L41.0143 196.485L35.3937 193.721L29.7731 196.485L30.8478 190.632L26.3019 186.489L32.5834 185.64L35.3937 180.317Z" fill="#EBEBEB"/>
<path d="M38.8782 133.948L45.1197 145.766L59.0712 147.663L48.978 156.861L51.3611 169.853L38.8782 163.719L26.402 169.853L28.7851 156.861L18.6853 147.663L32.6368 145.766L38.8782 133.948Z" fill="#EBEBEB"/>
<path d="M296.907 109.4L299.597 114.498L305.612 115.315L301.259 119.278L302.287 124.875L296.907 122.235L291.527 124.875L292.555 119.278L288.203 115.315L294.217 114.498L296.907 109.4Z" fill="#EBEBEB"/>
<path d="M208.646 26.8757L211.336 31.9676L217.35 32.785L212.998 36.7537L214.026 42.3509L208.646 39.7052L203.265 42.3509L204.293 36.7537L199.941 32.785L205.956 31.9676L208.646 26.8757Z" fill="#EBEBEB"/>
<path d="M270.172 81.3759L271.935 84.708L275.873 85.2447L273.023 87.8405L273.697 91.5034L270.172 89.7749L266.655 91.5034L267.329 87.8405L264.478 85.2447L268.417 84.708L270.172 81.3759Z" fill="#EBEBEB"/>
<path d="M107.761 249.669L111.192 256.158L118.856 257.2L113.308 262.255L114.623 269.393L107.761 266.024L100.906 269.393L102.214 262.255L96.6667 257.2L104.337 256.158L107.761 249.669Z" fill="#EBEBEB"/>
<path d="M116.813 243.21L118.228 245.894L121.399 246.324L119.103 248.414L119.643 251.366L116.813 249.968L113.983 251.366L114.523 248.414L112.227 246.324L115.398 245.894L116.813 243.21Z" fill="#EBEBEB"/>
<path d="M243.411 218.35L246.428 224.06L253.17 224.977L248.291 229.42L249.445 235.697L243.411 232.733L237.383 235.697L238.538 229.42L233.658 224.977L240.4 224.06L243.411 218.35Z" fill="#FF725E"/>
<path d="M257.796 213.289L259.218 215.979L262.389 216.409L260.093 218.506L260.633 221.464L257.796 220.066L254.953 221.464L255.5 218.506L253.197 216.409L256.374 215.979L257.796 213.289Z" fill="#FF725E"/>
<path d="M238.945 64.6838L241.322 57.7824C239.057 53.5188 238.369 48.6735 239.366 44.0054C240.363 39.3373 242.988 35.1103 246.831 31.9865C250.673 28.8627 255.516 27.0186 260.599 26.7432C265.683 26.4678 270.721 27.7766 274.924 30.4645C279.127 33.1525 282.257 37.0677 283.824 41.5969C285.391 46.1261 285.307 51.0132 283.584 55.4928C281.861 59.9723 278.598 63.7911 274.304 66.351C270.011 68.9108 264.931 70.067 259.859 69.6384C254.911 69.3233 250.228 67.4288 246.595 64.272L238.945 64.6838Z" fill="#FAFAFA"/>
<path d="M238.945 64.6839L239.452 64.6464L240.928 64.5466L246.595 64.1847C249.404 66.6134 252.864 68.2866 256.608 69.0269C257.764 69.267 258.938 69.4235 260.119 69.4949L261.988 69.5636C262.616 69.5636 263.263 69.4949 263.911 69.4637C269.767 68.967 275.193 66.3816 279.064 62.244C281.245 59.9457 282.865 57.2308 283.81 54.288C284.778 51.1435 284.975 47.8351 284.384 44.6098C284.237 43.7806 284.032 42.9614 283.77 42.1575C283.652 41.7503 283.507 41.3502 283.336 40.9594C283.169 40.56 283.022 40.1607 282.842 39.7676C282.099 38.1805 281.158 36.6809 280.039 35.2997C279.481 34.6112 278.877 33.9568 278.23 33.3404C277.916 33.0261 277.581 32.7301 277.228 32.4543C276.888 32.1735 276.561 31.8677 276.2 31.6119L275.105 30.8506L274.558 30.4762L273.971 30.1517L272.816 29.5277C272.422 29.3218 272.008 29.1658 271.608 28.9786C268.54 27.6214 265.185 26.9247 261.791 26.9398C258.397 26.9549 255.049 27.6815 251.995 29.066C246.703 31.4417 242.594 35.6319 240.521 40.766C240.407 41.053 240.3 41.34 240.193 41.6208C240.073 41.8979 239.977 42.1838 239.906 42.4757C239.753 43.0498 239.606 43.6176 239.459 44.173C239.256 45.2612 239.118 46.359 239.045 47.4615C238.896 51.0277 239.699 54.5726 241.382 57.7762L239.593 62.8805L239.119 64.2034C239.012 64.5029 238.952 64.6589 238.952 64.6589C238.952 64.6589 238.992 64.5154 239.092 64.2221L239.519 62.9117L241.235 57.7388V57.7887C239.507 54.5792 238.671 51.0148 238.805 47.424C238.868 46.3092 238.999 45.1987 239.199 44.0981C239.346 43.5365 239.499 42.9624 239.646 42.3821C239.717 42.0871 239.811 41.7972 239.926 41.5148C240.04 41.2277 240.147 40.9407 240.26 40.6474C241.375 37.8482 243.099 35.2958 245.324 33.1519C247.549 31.0079 250.226 29.3191 253.185 28.1923C256.144 27.0655 259.321 26.5253 262.516 26.6059C265.71 26.6864 268.851 27.386 271.741 28.6604C272.148 28.8413 272.569 29.0036 272.969 29.2157L274.144 29.8709L274.732 30.2016L275.292 30.5823L276.401 31.3498C276.768 31.6181 277.101 31.9239 277.449 32.2047C277.804 32.4864 278.143 32.7864 278.463 33.1032C279.119 33.7322 279.732 34.3991 280.299 35.1C281.44 36.4891 282.401 37.9993 283.163 39.5991C283.343 39.9984 283.49 40.4103 283.657 40.8096C283.834 41.2164 283.983 41.6333 284.104 42.0576C284.368 42.8759 284.573 43.7098 284.718 44.5536C285.321 47.8269 285.12 51.1854 284.131 54.3754C283.182 57.3741 281.544 60.1428 279.331 62.4874C275.401 66.6641 269.905 69.2691 263.978 69.7632C263.31 69.7632 262.643 69.8506 262.028 69.8506L260.139 69.7757C258.946 69.6977 257.761 69.535 256.595 69.289C252.837 68.5198 249.375 66.8068 246.582 64.3344H246.635L240.914 64.6152L239.459 64.6776C239.105 64.6839 238.945 64.6839 238.945 64.6839Z" fill="#263238"/>
<path d="M248.871 47.4241L252.656 44.354L259.031 50.4754L273.33 39.3433L276.354 42.8689L258.037 56.809L248.871 47.4241Z" fill="#FF725E"/>
<path d="M199.34 218.082L71.3337 244.752C70.5929 244.91 69.8258 244.93 69.0767 244.81C68.3276 244.69 67.6113 244.432 66.9691 244.052C66.3269 243.672 65.7714 243.177 65.3348 242.596C64.8981 242.015 64.5888 241.358 64.4248 240.664L22.9108 66.4123C22.7454 65.7219 22.7273 65.0078 22.8577 64.3108C22.988 63.6138 23.2642 62.9477 23.6704 62.3507C24.0765 61.7537 24.6047 61.2374 25.2246 60.8315C25.8446 60.4256 26.5441 60.138 27.2831 59.9851L155.29 33.3154C156.029 33.1607 156.793 33.1438 157.539 33.2656C158.285 33.3873 158.998 33.6454 159.637 34.025C160.277 34.4046 160.829 34.8984 161.264 35.4779C161.699 36.0575 162.008 36.7115 162.172 37.4026L203.713 211.655C203.878 212.345 203.896 213.059 203.766 213.756C203.635 214.453 203.359 215.119 202.953 215.716C202.547 216.313 202.019 216.83 201.399 217.235C200.779 217.641 200.079 217.929 199.34 218.082Z" fill="#E0E0E0"/>
<path d="M199.34 218.082L199.767 217.969C200.182 217.843 200.583 217.678 200.962 217.476C201.585 217.134 202.135 216.688 202.584 216.16C203.197 215.436 203.6 214.576 203.753 213.664C203.849 213.112 203.849 212.549 203.753 211.998C203.646 211.417 203.479 210.806 203.332 210.169C203.025 208.921 202.665 207.499 202.331 205.989C201.605 202.964 200.771 199.484 199.828 195.549C196.069 179.843 190.636 157.117 183.92 129.031C180.583 114.991 176.898 99.6091 172.953 83.0919C170.986 74.8384 168.95 66.3104 166.845 57.5079C165.799 53.1066 164.735 48.645 163.654 44.1231C163.106 41.8642 162.566 39.5866 162.012 37.2965C161.711 36.155 161.008 35.1413 160.017 34.4181C159.025 33.695 157.802 33.3044 156.545 33.3091C155.918 33.3221 155.294 33.4059 154.689 33.5587L152.82 33.9456L149.062 34.7319L141.478 36.3106L126.045 39.5304L94.2436 46.176L27.3299 60.1037C25.9154 60.3967 24.6762 61.1878 23.8694 62.3127C23.0626 63.4375 22.7504 64.8096 22.9976 66.144C23.605 68.796 24.2592 71.4543 24.88 74.1C26.1439 79.3832 27.3966 84.6352 28.6382 89.856L35.9811 120.688C40.8007 140.899 45.4468 160.368 49.8725 178.963C54.2983 197.558 58.4971 215.155 62.4355 231.697C62.925 233.777 63.4124 235.824 63.8974 237.838C64.1444 238.848 64.3647 239.872 64.625 240.864C64.9054 241.841 65.48 242.723 66.2805 243.404C67.0759 244.075 68.0563 244.524 69.1109 244.702C69.6339 244.781 70.1658 244.796 70.6929 244.745C71.2136 244.683 71.741 244.564 72.2616 244.452L78.4764 243.16L102.06 238.256L173.233 223.473L192.591 219.467L197.625 218.431L199.34 218.082L197.631 218.456L192.598 219.517L173.24 223.567L102.08 238.437L78.5231 243.36L72.3084 244.658C71.7877 244.764 71.267 244.889 70.7196 244.957C70.1723 245.01 69.62 244.993 69.0775 244.908C67.9731 244.728 66.9465 244.258 66.1186 243.551C65.2908 242.845 64.6961 241.932 64.4048 240.92C64.1377 239.916 63.9175 238.905 63.6705 237.894C63.1854 235.868 62.6959 233.821 62.2019 231.754C58.2634 215.236 54.0513 197.59 49.6189 179.019C45.1864 160.449 40.5404 140.955 35.7141 120.744L28.3712 89.9184C27.1296 84.7018 25.8769 79.4456 24.613 74.1499C23.9855 71.5042 23.338 68.8584 22.7239 66.1815C22.4669 64.7836 22.7958 63.3469 23.6424 62.1697C24.4889 60.9926 25.788 60.1656 27.2698 59.8603L94.1902 45.9139L126.012 39.312L141.438 36.0984L149.021 34.5197L152.786 33.696L154.655 33.3091C155.273 33.1596 155.907 33.08 156.545 33.072C157.848 33.0749 159.112 33.483 160.14 34.2321C161.167 34.9811 161.898 36.0285 162.219 37.2091C162.766 39.5055 163.313 41.7768 163.854 44.0419C164.944 48.568 166.017 53.0234 167.072 57.408C169.159 66.2064 171.19 74.7344 173.166 82.992C177.098 99.5093 180.756 114.891 184.1 128.937C190.776 157.017 196.183 179.762 199.921 195.474C200.849 199.399 201.677 202.894 202.398 205.914C202.751 207.43 203.065 208.822 203.386 210.101C203.532 210.725 203.699 211.349 203.799 211.929C203.899 212.487 203.899 213.056 203.799 213.614C203.647 214.543 203.238 215.418 202.611 216.154C202.156 216.681 201.601 217.127 200.976 217.47C200.591 217.672 200.184 217.834 199.761 217.951L199.34 218.082Z" fill="#263238"/>
<g opacity="0.3">
<path d="M77.8222 238.58L194.454 213.658L190.769 192.292L184.154 180.317L72.582 221.283L77.8222 238.58Z" fill="black"/>
</g>
<g opacity="0.3">
<path d="M126.519 39.7052L130.931 46.513L131.786 50.126L128.795 50.75L126.519 39.7052Z" fill="black"/>
</g>
<path d="M29.5527 67.4232L70.0187 237.151L196.857 210.731L189.621 180.38L156.391 40.9968L29.5527 67.4232Z" fill="white"/>
<path d="M29.5528 67.4232L156.384 40.897H156.491V41.0031C167.746 88.1712 181.784 147.033 196.977 210.731V210.862H196.844L70.0121 237.276H69.8919V237.157C46.0676 136.931 29.7931 68.4403 29.5461 67.4295C29.7931 68.4653 46.1744 136.937 70.1389 237.157L69.9853 237.07L196.817 210.631L196.71 210.787C181.537 147.102 167.512 88.2399 156.278 41.0592L156.411 41.1403L29.5528 67.4232Z" fill="#263238"/>
<path d="M65.2691 47.2279L121.206 35.5784C122.299 35.3506 123.445 35.5383 124.391 36.1003C125.337 36.6622 126.005 37.5523 126.249 38.5749L129.48 52.1327L65.282 65.5028L62.0535 51.9572C61.9306 51.4492 61.9164 50.9235 62.0118 50.4104C62.1071 49.8972 62.31 49.4068 62.6088 48.9672C62.9077 48.5277 63.2966 48.1477 63.7532 47.8492C64.2097 47.5507 64.7249 47.3396 65.2691 47.2279Z" fill="#263238"/>
<path d="M99.8509 33.1656L83.5163 36.5664L88.5428 49.2586L100.846 46.694L99.8509 33.1656Z" fill="#263238"/>
<path d="M121.205 35.568C121.205 35.6366 108.716 38.3011 93.2756 41.5209C77.8356 44.7408 65.2926 47.3054 65.2725 47.2368C65.2525 47.1681 77.7621 44.5037 93.2156 41.2838C108.669 38.064 121.165 35.5181 121.205 35.568Z" fill="#455A64"/>
<path d="M66.0669 62.4C65.9935 62.4 65.346 59.9664 64.625 56.9338C63.9041 53.9011 63.3701 51.4239 63.4502 51.4051C63.5303 51.3864 64.1711 53.8387 64.892 56.8776C65.613 59.9165 66.1403 62.4 66.0669 62.4Z" fill="#455A64"/>
<path d="M126.419 48.4474C125.882 46.8059 125.437 45.1397 125.084 43.4554C124.642 41.8091 124.29 40.143 124.029 38.4634C124.564 40.0946 125.01 41.7504 125.364 43.4242C125.807 45.0807 126.159 46.7573 126.419 48.4474Z" fill="#455A64"/>
<path d="M123.875 51.4114C123.875 51.48 111.052 54.2131 95.2048 57.5141C79.3575 60.815 66.5008 63.4421 66.4674 63.3672C66.434 63.2923 79.2841 60.5654 95.1714 57.2645C111.059 53.9635 123.835 51.3427 123.875 51.4114Z" fill="#455A64"/>
<path d="M90.0915 100.782C90.0915 100.857 81.4469 102.717 70.733 104.951C60.0191 107.184 51.3745 108.925 51.3278 108.857C51.281 108.788 60.0057 106.922 70.6863 104.695C81.3668 102.467 90.0715 100.714 90.0915 100.782Z" fill="#263238"/>
<path d="M154.649 93.9868C154.649 94.0617 132.039 98.8353 104.116 104.651C76.1934 110.467 53.5306 115.128 53.5173 115.059C53.5039 114.991 76.12 110.211 104.056 104.395C131.993 98.5795 154.635 93.9182 154.649 93.9868Z" fill="#263238"/>
<path d="M156.044 99.8401C156.044 99.9087 133.428 104.682 105.505 110.504C77.5819 116.326 54.9257 120.981 54.9057 120.906C54.8857 120.831 77.5151 116.064 105.445 110.248C133.374 104.433 156.024 99.7527 156.044 99.8401Z" fill="#263238"/>
<path d="M157.432 105.656C157.432 105.724 134.823 110.498 106.9 116.314C78.977 122.129 56.3142 126.797 56.2942 126.722C56.2742 126.647 78.9036 121.88 106.84 116.058C134.776 110.236 157.412 105.587 157.432 105.656Z" fill="#263238"/>
<path d="M158.821 111.49C158.821 111.559 136.211 116.332 108.288 122.148C80.3655 127.964 57.7027 132.625 57.6893 132.556C57.676 132.488 80.2921 127.714 108.228 121.892C136.165 116.07 158.808 111.415 158.821 111.49Z" fill="#263238"/>
<path d="M160.216 117.312C160.216 117.387 137.6 122.16 109.677 127.976C81.754 133.792 59.0845 138.459 59.0845 138.391C59.0845 138.322 81.6939 133.549 109.624 127.727C137.553 121.905 160.196 117.25 160.216 117.312Z" fill="#263238"/>
<path d="M78.69 158.377C78.6629 158.315 78.6428 158.25 78.6299 158.184L78.4831 157.629C78.3562 157.123 78.176 156.418 77.9557 155.538C77.5085 153.735 76.881 151.201 76.1334 148.169L76.2802 148.256L65.3326 150.552C65.3326 150.552 65.5329 150.259 65.4394 150.396V150.44V150.528L65.4795 150.702L65.5663 151.052L65.7265 151.744C65.84 152.206 65.9468 152.662 66.0536 153.117C66.2672 154.016 66.4808 154.902 66.6811 155.763C67.0883 157.479 67.4688 159.101 67.8225 160.593L67.6757 160.505L75.586 158.914L77.8356 158.477L78.4363 158.371L78.65 158.334C78.65 158.334 78.5966 158.334 78.4631 158.39L77.8956 158.521L75.6928 159.008L67.7625 160.774H67.6423V160.661L66.4808 155.838C66.2739 154.977 66.0603 154.091 65.8133 153.192C65.7065 152.736 65.593 152.281 65.4862 151.819C65.4261 151.595 65.3727 151.357 65.3193 151.127L65.2325 150.777L65.1925 150.602V150.515V150.471V150.44C65.099 150.584 65.3193 150.253 65.2993 150.284L76.2535 148.019H76.3737V148.131L78.0959 155.619C78.2895 156.493 78.443 157.192 78.5565 157.691C78.6032 157.916 78.6366 158.09 78.67 158.234C78.6833 158.281 78.6901 158.329 78.69 158.377Z" fill="#263238"/>
<path d="M160.063 133.149L83.6873 149.056L85.107 155.012L161.483 139.106L160.063 133.149Z" fill="#E0E0E0"/>
<path d="M82.9222 176.136C82.897 176.071 82.877 176.005 82.8621 175.937C82.822 175.793 82.7753 175.606 82.7152 175.381C82.5884 174.876 82.4082 174.177 82.1879 173.297C81.7406 171.488 81.1131 168.929 80.3655 165.922L80.5124 166.009L69.5648 168.305C69.5648 168.343 69.7651 168.012 69.6716 168.155V168.187V168.23V168.318L69.7116 168.492L69.7984 168.842C69.8518 169.079 69.9052 169.31 69.9653 169.541L70.2857 170.907C70.4993 171.812 70.713 172.692 70.9132 173.553C71.3204 175.269 71.7009 176.891 72.0547 178.383L71.9078 178.295L79.8248 176.711L82.0677 176.274L82.6685 176.161C82.7382 176.143 82.8099 176.133 82.8821 176.13L82.7019 176.18L82.1278 176.311L79.9249 176.804L71.9612 178.52H71.8411V178.408L70.6796 173.584C70.4726 172.723 70.259 171.837 70.012 170.939C69.9052 170.489 69.7918 170.027 69.6849 169.572C69.6315 169.341 69.5715 169.11 69.5181 168.873L69.4313 168.524L69.3912 168.349V168.262V168.187L69.498 168.024L80.4456 165.791H80.5658V165.897C81.2734 168.973 81.9008 171.513 82.288 173.385C82.4816 174.258 82.6351 174.957 82.7486 175.456C82.7953 175.681 82.8287 175.856 82.8621 175.999C82.8884 176.042 82.9086 176.088 82.9222 176.136Z" fill="#263238"/>
<path d="M164.292 150.909L87.9162 166.815L89.3359 172.772L165.712 156.865L164.292 150.909Z" fill="#E0E0E0"/>
<path d="M87.1543 193.889C87.1543 193.889 87.1543 193.814 87.0943 193.69C87.0342 193.565 87.0075 193.359 86.9474 193.134C86.8206 192.629 86.6403 191.93 86.42 191.05C85.9728 189.247 85.3453 186.682 84.5977 183.674L84.7445 183.762L73.7703 186.058C73.7703 186.096 73.9705 185.765 73.8771 185.908V185.952V185.996V186.083L73.9171 186.258L74.0039 186.607C74.0573 186.844 74.1107 187.075 74.1708 187.306L74.4912 188.673C74.7048 189.577 74.9184 190.457 75.1187 191.318L76.2602 196.148L76.1133 196.067L84.0303 194.476L86.2732 194.039L86.874 193.927C86.945 193.919 87.0166 193.919 87.0876 193.927L86.9073 193.977L86.3333 194.108L84.1304 194.601L76.1667 196.317H76.0466V196.204C75.6928 194.719 75.2989 193.084 74.885 191.381C74.6781 190.52 74.4645 189.64 74.2175 188.735C74.1107 188.286 73.9972 187.83 73.8904 187.368C73.837 187.138 73.7769 186.907 73.7235 186.676L73.6434 186.326L73.5967 186.152V186.058V185.952C73.5032 186.089 73.7235 185.759 73.7035 185.796L84.6577 183.531H84.7779V183.643L86.5002 191.131C86.6937 192.005 86.8473 192.704 86.9607 193.209C87.0075 193.428 87.0475 193.602 87.0742 193.746C87.1079 193.79 87.1349 193.838 87.1543 193.889Z" fill="#263238"/>
<path d="M168.529 168.668L92.1532 184.574L93.5729 190.531L169.949 174.624L168.529 168.668Z" fill="#E0E0E0"/>
<path d="M68.1697 154.715L69.3178 153.024L72.7289 154.796L77.1213 148.606L78.8169 149.704L73.1562 157.504L68.1697 154.715Z" fill="#FF725E"/>
<path d="M72.2617 171.875L73.4098 170.184L76.8209 171.956L81.2066 165.766L82.9088 166.864L77.2415 174.658L72.2617 171.875Z" fill="#FF725E"/>
<path d="M76.4604 189.465L77.6086 187.78L81.013 189.552L85.4054 183.362L87.101 184.454L81.4403 192.254L76.4604 189.465Z" fill="#FF725E"/>
<path d="M111.419 211.536C111.419 211.611 104.984 213.015 97.0138 214.656C89.0435 216.297 82.5684 217.601 82.555 217.533C82.5417 217.464 88.9834 216.06 96.9537 214.413C104.924 212.765 111.399 211.474 111.419 211.536Z" fill="#263238"/>
<path d="M125.798 208.329C124.056 208.83 122.286 209.247 120.498 209.577C118.736 209.986 116.954 210.313 115.157 210.556C116.898 210.056 118.665 209.639 120.451 209.308C123.381 208.703 125.785 208.26 125.798 208.329Z" fill="#263238"/>
<path d="M173.42 194.32C173.42 194.388 167.632 195.661 160.463 197.153C153.294 198.644 147.459 199.799 147.446 199.73C147.433 199.661 153.227 198.395 160.403 196.897C167.579 195.399 173.407 194.251 173.42 194.32Z" fill="#263238"/>
<path d="M167.225 210.744C167.225 210.744 167.285 210.575 167.352 210.251C167.44 209.771 167.413 209.278 167.272 208.809C167.034 208.067 166.726 207.347 166.351 206.656C165.818 205.74 165.506 204.727 165.436 203.686C165.452 203.046 165.611 202.416 165.903 201.837C166.195 201.257 166.614 200.742 167.132 200.323C167.739 199.852 168.465 199.534 169.241 199.399C170.017 199.265 170.817 199.319 171.564 199.555C172.385 199.789 173.117 200.237 173.674 200.847C173.97 201.176 174.146 201.585 174.174 202.014C174.182 202.245 174.11 202.471 173.969 202.661C173.829 202.851 173.627 202.994 173.393 203.068C172.957 203.2 172.51 203.303 172.058 203.374L170.723 203.63C169.829 203.798 168.921 203.948 167.986 204.061C166.176 204.305 164.339 204.315 162.526 204.092C161.707 203.927 160.851 204.056 160.129 204.454C159.556 204.994 159.07 205.61 158.687 206.282C158.455 206.613 158.132 206.88 157.753 207.056C157.367 207.215 156.931 207.233 156.531 207.106C155.845 206.82 155.191 206.469 154.582 206.057C154.299 205.882 153.977 205.768 153.641 205.727C153.326 205.694 153.009 205.767 152.746 205.933C152.285 206.327 151.902 206.797 151.618 207.318C151.315 207.765 150.9 208.137 150.409 208.402C149.919 208.667 149.367 208.817 148.801 208.84C147.945 208.872 147.108 208.595 146.465 208.067C146.06 207.74 145.743 207.33 145.537 206.869C145.465 206.71 145.413 206.545 145.383 206.376C145.383 206.376 145.443 206.544 145.59 206.85C145.807 207.291 146.129 207.679 146.532 207.985C147.159 208.482 147.966 208.737 148.788 208.697C149.328 208.671 149.853 208.523 150.318 208.265C150.783 208.008 151.174 207.648 151.458 207.218C151.752 206.672 152.15 206.182 152.633 205.77C152.937 205.573 153.306 205.482 153.674 205.514C154.04 205.565 154.39 205.686 154.702 205.87C155.302 206.267 155.941 206.607 156.611 206.887C156.954 206.995 157.328 206.979 157.659 206.844C157.999 206.686 158.284 206.441 158.48 206.138C158.877 205.449 159.381 204.818 159.976 204.266C160.345 204.02 160.778 203.869 161.231 203.83C161.674 203.786 162.122 203.786 162.566 203.83C164.359 204.047 166.176 204.036 167.966 203.798C168.887 203.686 169.788 203.53 170.683 203.368L172.018 203.118C172.447 203.044 172.87 202.946 173.286 202.825C173.469 202.771 173.628 202.662 173.739 202.516C173.85 202.369 173.907 202.193 173.901 202.014C173.87 201.64 173.716 201.285 173.46 200.997C172.933 200.411 172.238 199.978 171.457 199.749C170.749 199.524 169.992 199.471 169.256 199.596C168.52 199.72 167.831 200.018 167.252 200.46C166.754 200.856 166.351 201.344 166.069 201.895C165.786 202.445 165.629 203.045 165.61 203.655C165.67 204.672 165.961 205.665 166.464 206.569C166.834 207.269 167.131 208 167.352 208.753C167.483 209.235 167.494 209.739 167.385 210.226C167.354 210.404 167.3 210.577 167.225 210.744Z" fill="#263238"/>
<path d="M181.023 202.756C180.911 202.799 180.794 202.832 180.676 202.856L179.661 203.081L175.936 203.886C172.799 204.572 168.46 205.533 163.687 206.663C158.914 207.792 154.609 208.884 151.505 209.683L147.82 210.631L146.812 210.881C146.696 210.915 146.578 210.94 146.458 210.956C146.566 210.901 146.68 210.859 146.799 210.831L147.787 210.538C148.648 210.282 149.896 209.914 151.445 209.508C154.549 208.659 158.841 207.542 163.62 206.388C168.4 205.234 172.739 204.323 175.896 203.692C177.472 203.374 178.753 203.125 179.641 202.962L180.663 202.781C180.782 202.763 180.902 202.755 181.023 202.756Z" fill="#263238"/>
<path d="M126.27 65.8366L74.4258 76.6339L76.596 85.7395L128.441 74.9421L126.27 65.8366Z" fill="#E0E0E0"/>
<path d="M175.316 213.601L192.064 296.319L207.371 269.88L236.382 285.798L205.588 205.252L175.316 213.601Z" fill="#FF725E"/>
<g opacity="0.3">
<path d="M180.95 241.419C182.544 241.7 184.188 241.615 185.739 241.17C187.29 240.725 188.703 239.935 189.855 238.867C191.383 237.394 192.398 235.385 194.32 234.399C196.049 233.513 198.179 233.638 200.081 234.131C201.984 234.624 203.773 235.441 205.675 235.903C207.552 236.35 209.506 236.444 211.422 236.178C213.338 235.912 215.179 235.293 216.836 234.356L212.003 221.813L189.574 219.192L178.894 231.204L180.95 241.419Z" fill="black"/>
</g>
<path d="M206.283 266.598C206.189 266.598 203.693 258.024 200.709 247.41C197.725 236.796 195.368 228.159 195.475 228.141C195.582 228.122 198.059 236.702 201.043 247.329C204.026 257.955 206.376 266.573 206.283 266.598Z" fill="#263238"/>
<path d="M177.766 217.901L161.017 300.618L145.71 274.186L116.699 290.098L147.493 209.552L177.766 217.901Z" fill="#FF725E"/>
<g opacity="0.3">
<path d="M138.281 233.644C138.281 233.644 143.047 237.307 148.728 235.622C154.408 233.938 157.94 233.576 161.017 235.622C164.094 237.669 172.419 244.327 172.419 244.327L174.348 234.786L163.167 220.434L151.498 222.637L143.194 223.392L140.103 228.864L138.281 233.644Z" fill="black"/>
</g>
<path d="M275.967 143.233C275.967 149.167 267.856 154.278 266.668 159.887C265.446 165.666 270.827 173.285 268.47 178.607C266.114 183.93 256.455 185.84 253.03 190.651C249.606 195.462 251.408 204.472 247.022 208.578C242.637 212.684 233.004 210.956 227.844 214.194C222.684 217.433 220.748 226.381 214.961 228.627C209.273 230.83 201.123 225.801 194.935 226.942C188.927 228.053 183.466 235.635 177.118 235.635C170.77 235.635 165.296 228.053 159.295 226.942C153.113 225.801 144.963 230.83 139.269 228.627C133.575 226.425 131.539 217.395 126.392 214.194C121.245 210.993 111.606 212.678 107.207 208.578C102.808 204.478 104.664 195.474 101.199 190.651C97.7347 185.827 88.1623 184.018 85.7658 178.607C83.3694 173.197 88.7898 165.672 87.5682 159.887C86.38 154.271 78.2628 149.167 78.2628 143.233C78.2628 137.299 86.38 132.182 87.5682 126.572C88.7898 120.794 83.4028 113.175 85.7658 107.852C88.1289 102.529 97.7815 100.62 101.199 95.8151C104.617 91.0103 102.821 81.9935 107.207 77.8813C111.593 73.7692 121.225 75.5039 126.392 72.2653C131.559 69.0268 133.481 60.0786 139.269 57.8385C145.056 55.5983 153.107 60.6652 159.295 59.5233C165.303 58.4125 170.77 50.8247 177.118 50.8247C183.466 50.8247 188.933 58.4125 194.935 59.5233C201.116 60.6652 209.266 55.6295 214.961 57.8385C220.748 60.0786 222.697 69.0705 227.844 72.2653C232.991 75.4602 242.63 73.7817 247.022 77.8813C251.415 81.981 249.566 90.9854 253.03 95.8151C256.495 100.645 266.067 102.442 268.47 107.852C270.873 113.262 265.446 120.788 266.668 126.572C267.856 132.182 275.967 137.28 275.967 143.233Z" fill="#FF725E"/>
<path d="M153.988 91.4347C153.988 91.4347 153.914 91.3535 153.808 91.1788C153.701 91.0041 153.534 90.7233 153.354 90.4175C152.96 89.7561 152.419 88.7827 151.778 87.5721C150.49 85.151 148.821 81.7439 147.212 77.9001C145.604 74.0563 144.369 70.487 143.561 67.9161C143.16 66.6119 142.853 65.5574 142.66 64.7961C142.573 64.4591 142.5 64.1721 142.446 63.9475C142.412 63.8509 142.394 63.7498 142.393 63.6479C142.445 63.7389 142.485 63.8353 142.513 63.935L142.787 64.7649C143.047 65.5324 143.387 66.5683 143.795 67.8225C144.662 70.3996 145.937 73.9377 147.533 77.8065C149.128 81.6753 150.77 85.0511 151.999 87.4972L153.474 90.3864L153.868 91.1726C153.916 91.2564 153.956 91.3441 153.988 91.4347Z" fill="#263238"/>
<path d="M162.786 88.3085C162.669 88.0907 162.582 87.8601 162.526 87.6221C162.386 87.1728 162.199 86.5176 161.978 85.7064C161.538 84.0903 160.99 81.8314 160.496 79.3229C160.002 76.8144 159.655 74.5243 159.455 72.8645C159.348 72.0346 159.281 71.3607 159.241 70.8927C159.211 70.6522 159.211 70.4093 159.241 70.1688C159.318 70.4005 159.37 70.6388 159.395 70.8802L159.715 72.8333C159.982 74.4869 160.383 76.7645 160.857 79.2667C161.331 81.769 161.858 84.0279 162.232 85.6565C162.412 86.4178 162.559 87.0667 162.679 87.5909C162.74 87.8262 162.776 88.0666 162.786 88.3085Z" fill="#263238"/>
<path d="M178.306 86.8671C178.206 86.8671 177.959 79.8658 177.752 71.2359C177.545 62.6059 177.452 55.5984 177.545 55.5922C177.639 55.5859 177.892 62.5872 178.099 71.2296C178.306 79.872 178.4 86.8671 178.306 86.8671Z" fill="#263238"/>
<path d="M193.927 72.4838C194.02 72.4838 192.939 76.0094 191.517 80.3025C190.095 84.5956 188.847 88.0463 188.78 88.0214C188.713 87.9964 189.768 84.4958 191.19 80.2027C192.611 75.9095 193.826 72.4588 193.927 72.4838Z" fill="#263238"/>
<path d="M200.295 90.5735C200.308 90.4702 200.337 90.3693 200.382 90.274L200.682 89.4503C200.949 88.739 201.35 87.7156 201.884 86.4551C202.932 83.9591 204.427 80.471 206.136 76.6646C207.845 72.8582 209.433 69.4324 210.602 66.9614C211.176 65.7633 211.65 64.7774 212.01 64.041L212.404 63.2548C212.504 63.0801 212.557 62.9865 212.571 62.9927C212.546 63.0909 212.513 63.187 212.471 63.2798L212.13 64.091L210.828 67.055C209.687 69.5884 208.158 73.0079 206.456 76.7956C204.754 80.5833 203.245 84.0028 202.11 86.5425L200.809 89.5002L200.442 90.299C200.405 90.3958 200.356 90.488 200.295 90.5735Z" fill="#263238"/>
<path d="M208.612 94.642C208.714 94.4213 208.841 94.212 208.993 94.018C209.26 93.6187 209.66 93.0508 210.154 92.3582C211.156 90.9791 212.597 89.0947 214.273 87.0854C215.949 85.0761 217.557 83.3414 218.745 82.0934C219.34 81.4694 219.834 80.9764 220.181 80.6395C220.348 80.4525 220.538 80.2849 220.748 80.1403C220.619 80.3531 220.462 80.5502 220.281 80.7268C219.92 81.1387 219.466 81.6441 218.946 82.2431C217.804 83.5286 216.236 85.307 214.56 87.3163C212.885 89.3255 211.423 91.1788 210.368 92.5267L209.12 94.1179C208.971 94.3086 208.8 94.4843 208.612 94.642Z" fill="#263238"/>
<path d="M220.775 103.94C220.708 103.877 225.995 99.1847 232.57 93.4627C239.145 87.7406 244.539 83.1542 244.586 83.2166C244.633 83.279 239.372 87.9777 232.79 93.6998C226.209 99.4219 220.842 104.008 220.775 103.94Z" fill="#263238"/>
<path d="M241.989 105.88C241.345 106.261 240.677 106.603 239.986 106.904C238.732 107.528 237.029 108.395 235.147 109.4C233.264 110.404 231.529 111.24 230.24 111.802C229.573 112.083 229.079 112.301 228.705 112.426C228.523 112.515 228.327 112.578 228.124 112.613C228.768 112.233 229.437 111.891 230.127 111.59C231.382 110.966 233.084 110.098 234.967 109.094C236.849 108.089 238.585 107.222 239.873 106.691C240.541 106.411 241.035 106.192 241.408 106.067C241.59 105.976 241.786 105.913 241.989 105.88Z" fill="#263238"/>
<path d="M261.608 113.487C261.641 113.574 255.353 115.721 247.59 118.285C239.826 120.85 233.465 122.853 233.438 122.772C233.411 122.691 239.686 120.538 247.456 117.973C255.226 115.409 261.575 113.406 261.608 113.487Z" fill="#263238"/>
<path d="M267.856 146.852C267.856 146.939 261.014 146.409 252.596 145.66C244.179 144.911 237.356 144.231 237.37 144.138C237.383 144.044 244.205 144.587 252.63 145.336C261.054 146.085 267.863 146.765 267.856 146.852Z" fill="#263238"/>
<path d="M262.83 176.779C262.79 176.86 256.401 174.115 248.564 170.658C240.727 167.201 234.406 164.324 234.446 164.243C234.486 164.162 240.874 166.901 248.711 170.364C256.548 173.828 262.87 176.698 262.83 176.779Z" fill="#263238"/>
<path d="M241.816 205.252C241.742 205.308 237.143 200.31 231.529 194.095C225.915 187.88 221.429 182.782 221.516 182.726C221.603 182.67 226.189 187.662 231.802 193.883C237.416 200.104 241.889 205.19 241.816 205.252Z" fill="#263238"/>
<path d="M224.273 209.04C224.065 208.824 223.88 208.59 223.719 208.341C223.378 207.879 222.898 207.199 222.324 206.357C221.162 204.666 219.607 202.301 217.965 199.649C216.322 196.997 214.921 194.551 213.959 192.785C213.472 191.893 213.078 191.169 212.825 190.663C212.674 190.406 212.548 190.137 212.451 189.858C212.639 190.091 212.805 190.34 212.945 190.601C213.265 191.15 213.679 191.849 214.18 192.679C215.214 194.432 216.656 196.853 218.292 199.505C219.927 202.157 221.449 204.535 222.557 206.251C223.078 207.074 223.518 207.755 223.859 208.291C224.026 208.526 224.165 208.777 224.273 209.04Z" fill="#263238"/>
<path d="M213.379 223.33C213.379 223.33 213.312 223.248 213.205 223.074L212.771 222.312C212.391 221.645 211.877 220.671 211.262 219.461C210.034 217.033 208.452 213.626 206.95 209.77C205.448 205.914 204.313 202.357 203.612 199.786C203.245 198.488 202.945 197.427 202.798 196.697C202.725 196.36 202.665 196.073 202.611 195.849C202.585 195.751 202.569 195.65 202.564 195.549C202.619 195.638 202.657 195.735 202.678 195.836L202.932 196.666C203.165 197.44 203.472 198.469 203.846 199.724C204.634 202.301 205.802 205.845 207.304 209.708C208.806 213.57 210.341 216.959 211.516 219.411L212.918 222.3C213.065 222.612 213.192 222.874 213.298 223.086C213.336 223.164 213.363 223.246 213.379 223.33Z" fill="#263238"/>
<path d="M191.31 213.289C191.165 212.572 191.069 211.847 191.023 211.118C190.869 209.776 190.622 207.923 190.262 205.895C189.901 203.867 189.481 202.045 189.16 200.728C188.95 200.023 188.79 199.306 188.68 198.582C188.779 198.755 188.855 198.94 188.907 199.131C189.04 199.493 189.207 200.017 189.401 200.672C189.781 201.976 190.235 203.792 190.602 205.845C190.922 207.585 191.144 209.338 191.27 211.099C191.316 211.773 191.343 212.347 191.343 212.703C191.36 212.899 191.349 213.096 191.31 213.289Z" fill="#263238"/>
<path d="M176.871 231.254C176.856 231.149 176.856 231.042 176.871 230.936C176.871 230.687 176.871 230.381 176.871 230.019C176.871 229.22 176.871 228.066 176.871 226.643C176.924 223.791 177.065 219.86 177.305 215.523C177.545 211.187 177.846 207.255 178.093 204.416C178.213 202.993 178.326 201.845 178.413 201.053C178.46 200.691 178.493 200.385 178.52 200.142C178.528 200.033 178.55 199.927 178.587 199.823C178.602 199.931 178.602 200.04 178.587 200.148C178.587 200.391 178.587 200.697 178.54 201.065C178.486 201.908 178.42 203.043 178.333 204.429C178.153 207.318 177.912 211.224 177.665 215.536C177.418 219.848 177.245 223.804 177.131 226.649C177.078 228.035 177.031 229.145 176.998 230.019C176.998 230.387 176.958 230.687 176.944 230.936C176.937 231.045 176.912 231.152 176.871 231.254Z" fill="#263238"/>
<path d="M165.136 199.823C165.131 200.361 165.064 200.897 164.935 201.421C164.762 202.394 164.482 203.736 164.114 205.202C163.747 206.669 163.36 207.992 163.053 208.946C162.92 209.468 162.725 209.975 162.472 210.456C162.532 209.923 162.646 209.397 162.813 208.884L163.774 205.14C164.121 203.736 164.442 202.463 164.695 201.396C164.788 200.86 164.935 200.333 165.136 199.823Z" fill="#263238"/>
<path d="M143.915 190.32C143.04 191.672 142.065 192.964 140.998 194.189C140.018 195.477 138.95 196.705 137.8 197.864C138.673 196.511 139.648 195.218 140.717 193.995C141.692 192.704 142.761 191.476 143.915 190.32Z" fill="#263238"/>
<path d="M132.787 183.306C132.854 183.362 128.715 187.911 123.535 193.459C118.355 199.006 114.089 203.443 114.016 203.399C113.942 203.355 118.088 198.794 123.268 193.247C128.448 187.699 132.714 183.244 132.787 183.306Z" fill="#263238"/>
<path d="M127.213 175.562C125.576 177.038 123.858 178.434 122.066 179.743C119.163 181.977 116.76 183.737 116.726 183.668C118.364 182.195 120.082 180.802 121.873 179.494C123.581 178.1 125.364 176.788 127.213 175.562Z" fill="#263238"/>
<path d="M120.698 163.887C120.738 163.969 114.971 166.652 107.808 169.872C100.645 173.091 94.8176 175.644 94.7709 175.562C94.7242 175.481 100.498 172.804 107.661 169.578C114.824 166.352 120.658 163.806 120.698 163.887Z" fill="#263238"/>
<path d="M118.081 158.065C117.89 158.144 117.688 158.199 117.48 158.228C117.087 158.315 116.519 158.427 115.818 158.546C114.41 158.796 112.447 159.07 110.271 159.276C108.095 159.482 106.112 159.569 104.677 159.588C103.963 159.588 103.382 159.588 102.982 159.588C102.773 159.601 102.563 159.582 102.361 159.532C103.126 159.434 103.898 159.377 104.67 159.363C106.099 159.282 108.068 159.157 110.238 158.952C112.407 158.746 114.363 158.508 115.778 158.328C116.538 158.189 117.308 158.102 118.081 158.065Z" fill="#263238"/>
<path d="M115.965 144.618C115.576 144.648 115.186 144.648 114.797 144.618L111.619 144.468C108.949 144.344 105.238 144.231 101.146 144.25C97.0539 144.269 93.3424 144.425 90.6656 144.575L87.4948 144.756C87.1071 144.797 86.7164 144.81 86.3266 144.793C86.7058 144.708 87.0922 144.654 87.4814 144.631C88.2291 144.55 89.3105 144.45 90.6456 144.344C93.3157 144.138 97.0405 143.951 101.139 143.926C105.238 143.901 108.956 144.057 111.64 144.238C112.975 144.331 114.063 144.419 114.81 144.493C115.198 144.51 115.584 144.551 115.965 144.618Z" fill="#263238"/>
<path d="M117.273 132.812C117.273 132.9 112.928 131.845 107.621 130.46C102.314 129.074 98.0351 127.889 98.0618 127.801C98.0885 127.714 102.407 128.762 107.714 130.148C113.021 131.533 117.3 132.725 117.273 132.812Z" fill="#263238"/>
<path d="M120.07 122.928C119.963 122.922 119.857 122.901 119.757 122.866L118.869 122.616C118.108 122.391 117.006 122.042 115.665 121.586C112.159 120.383 108.723 119.008 105.371 117.468C102.021 115.926 98.761 114.218 95.6053 112.351C94.3971 111.634 93.4291 111.035 92.775 110.604L92.0273 110.099C91.8604 109.98 91.7737 109.918 91.7803 109.905C91.8813 109.943 91.9775 109.991 92.0674 110.049L92.8551 110.498C93.5226 110.897 94.5105 111.465 95.7321 112.158C98.182 113.543 101.613 115.371 105.525 117.15C109.437 118.928 113.081 120.376 115.752 121.349C117.087 121.83 118.161 122.21 118.916 122.473L119.777 122.778C119.879 122.82 119.977 122.871 120.07 122.928Z" fill="#263238"/>
<path d="M126.352 112.944C126.299 113.013 122.921 110.879 118.809 108.17C114.697 105.462 111.406 103.21 111.466 103.135C111.526 103.06 114.897 105.2 119.016 107.908C123.134 110.616 126.405 112.888 126.352 112.944Z" fill="#263238"/>
<path d="M113.075 82.63C113.075 82.63 113.168 82.6799 113.328 82.7985L113.996 83.3476L116.459 85.3818L124.543 92.1273L132.66 98.8353L135.117 100.876L135.784 101.444C135.865 101.506 135.937 101.577 135.998 101.656C135.998 101.656 135.904 101.612 135.737 101.494L135.07 100.976C134.463 100.52 133.601 99.8462 132.54 99.01C130.417 97.3377 127.52 94.9977 124.349 92.3706C121.179 89.7436 118.342 87.3225 116.339 85.5503C115.324 84.6642 114.51 83.9467 113.949 83.435L113.315 82.8484C113.155 82.7111 113.061 82.6362 113.075 82.63Z" fill="#263238"/>
<path d="M133.895 83.1979C133.895 83.1979 134.075 83.3352 134.349 83.6284C134.623 83.9217 135.017 84.3523 135.477 84.8764C136.405 85.9622 137.64 87.4972 138.922 89.2444C140.203 90.9916 141.278 92.6265 142.019 93.8308C142.393 94.4548 142.687 94.9228 142.873 95.266C142.989 95.4368 143.079 95.6215 143.14 95.8152C142.651 95.2197 142.205 94.5943 141.805 93.9432C141.011 92.77 139.903 91.1664 138.628 89.4192C137.353 87.672 136.151 86.1307 135.29 85.0137C134.787 84.4349 134.321 83.8285 133.895 83.1979Z" fill="#263238"/>
<g opacity="0.2">
<path d="M107.214 77.8877L136.258 101.656L143.474 96.2583L126.626 72.1219C126.626 72.1219 125.331 73.008 121.953 73.9066C118.729 74.7739 109.15 75.0048 107.214 77.8877Z" fill="black"/>
</g>
<g opacity="0.2">
<path d="M139.542 57.7823L153.721 90.9604L162.786 88.3084L159.762 59.5295C159.762 59.5295 158.207 59.8727 154.742 59.4609C151.385 59.0615 143.247 56.0851 139.542 57.7823Z" fill="black"/>
</g>
<g opacity="0.3">
<path d="M177.352 50.8373L178.306 86.867L186.797 87.2477L195.395 59.592C193.609 59.2604 191.91 58.6031 190.395 57.6576C187.458 55.8979 181.464 50.544 177.352 50.8373Z" fill="black"/>
</g>
<g opacity="0.2">
<path d="M214.386 57.6451L200.295 90.8607L207.945 94.2864L227.337 71.9098C225.879 70.7596 224.636 69.391 223.659 67.86C221.829 65.0957 218.679 58.7496 214.386 57.6451Z" fill="black"/>
</g>
<g opacity="0.2">
<path d="M247.483 78.3682L221.235 103.952L227.083 111.322L252.73 95.3222C251.885 93.8682 251.314 92.2895 251.041 90.6547C250.427 87.5347 250.34 81.8688 247.483 78.3682Z" fill="black"/>
</g>
<g opacity="0.2">
<path d="M268.203 107.234L232.857 120.831L235.788 129.274L266.541 126.154C266.541 126.154 266.347 125.268 266.755 122.029C267.142 118.891 270.693 111.877 268.203 107.234Z" fill="black"/>
</g>
<g opacity="0.2">
<path d="M276.033 143.233L237.497 144.481L237.176 152.424L266.548 160.462C266.743 159.318 267.135 158.212 267.709 157.186C269.899 153.367 276.033 147.975 276.033 143.233Z" fill="black"/>
</g>
<g opacity="0.2">
<path d="M268.924 177.291L233.445 164.368L229.86 171.6L254.005 189.465C255.274 188.329 256.678 187.332 258.19 186.495C261.127 184.741 268.11 181.902 268.924 177.291Z" fill="black"/>
</g>
<g opacity="0.2">
<path d="M216.743 176.779L207.958 183.643C208.626 184.267 220.328 202.887 227.544 214.381C227.637 214.306 227.735 214.235 227.837 214.169C232.583 211.199 241.034 212.391 245.801 209.452L216.743 176.779Z" fill="black"/>
<path d="M200.602 189.808L187.491 193.989L193.7 227.261C194.103 227.128 194.515 227.022 194.934 226.943C201.116 225.801 209.266 230.83 214.961 228.627C215.74 228.315 216.465 227.894 217.11 227.379L200.602 189.808Z" fill="black"/>
<path d="M176.664 235.622L178.753 192.155L167.405 189.465L158.974 226.905L159.281 226.955C165.156 228.022 170.503 235.248 176.664 235.622Z" fill="black"/>
<path d="M148.16 184.773C148.16 184.773 133.181 203.53 125.344 213.626C125.707 213.797 126.059 213.987 126.399 214.194C131.545 217.414 133.488 226.381 139.275 228.627C139.542 228.727 139.816 228.808 140.09 228.883L161.017 191.855L148.16 184.773Z" fill="black"/>
<path d="M132.787 169.672L100.839 190.195C100.959 190.345 101.092 190.489 101.199 190.645C104.67 195.487 102.821 204.466 107.207 208.572C107.612 208.944 108.06 209.272 108.542 209.552C119.83 197.658 140.097 176.305 140.831 175.562L132.787 169.672Z" fill="black"/>
<path d="M125.464 155.014L87.6883 160.717C88.2958 166.383 83.5162 173.534 85.7658 178.601C85.9014 178.911 86.0644 179.209 86.2531 179.494C99.4703 173.341 127.086 160.543 128.234 160.474L125.464 155.014Z" fill="black"/>
<path d="M123.401 135.346L87.695 125.717C87.6616 126.004 87.6216 126.291 87.5682 126.572C86.38 132.188 78.2628 137.299 78.2628 143.233C78.2646 143.628 78.3003 144.022 78.3696 144.412H121.953L123.401 135.346Z" fill="black"/>
<path d="M85.9127 107.596C99.2634 114.279 125.344 127.801 125.344 127.801L131.766 116.401L101.606 95.1849C101.473 95.4033 101.346 95.628 101.199 95.8089C97.8015 100.545 88.5028 102.392 85.9127 107.596Z" fill="black"/>
</g>
<path d="M275.967 143.233L275.927 142.834C275.911 142.442 275.852 142.053 275.753 141.673C275.364 140.177 274.686 138.76 273.75 137.492C272.602 135.77 270.867 133.842 269.078 131.402C268.067 130.104 267.292 128.66 266.781 127.127C266.347 125.339 266.347 123.481 266.781 121.692C267.155 119.789 267.763 117.83 268.29 115.752C268.817 113.674 269.311 111.428 268.817 109.131C268.538 107.969 267.968 106.885 267.155 105.968C266.283 105.034 265.287 104.207 264.191 103.509C261.975 102.036 259.425 100.863 256.989 99.3282C255.728 98.5685 254.583 97.6534 253.584 96.6076C252.604 95.4725 251.892 94.1561 251.495 92.7451C250.64 89.9059 250.447 86.8732 249.799 83.8406C249.516 82.2964 248.959 80.8074 248.15 79.4351C247.272 78.0536 245.94 76.9745 244.352 76.3588C242.713 75.7431 240.997 75.3238 239.246 75.1108C237.477 74.8363 235.661 74.6428 233.845 74.3433C231.985 74.0925 230.181 73.5593 228.505 72.7646C226.843 71.8307 225.435 70.5491 224.393 69.0206C223.285 67.5355 222.33 65.938 221.316 64.3593C220.344 62.744 219.179 61.2368 217.844 59.8665C216.469 58.4803 214.592 57.6199 212.577 57.4516C210.519 57.3804 208.461 57.6056 206.476 58.1193C204.474 58.5748 202.418 59.1302 200.315 59.4983C198.189 59.9666 195.972 59.928 193.866 59.386C191.814 58.6334 189.895 57.5963 188.172 56.3097C186.39 55.0617 184.654 53.8137 182.752 52.703C180.85 51.5923 178.693 50.7873 176.45 51.0244H176.03C175.89 51.0244 175.756 51.0806 175.623 51.1055C175.349 51.1679 175.069 51.2116 174.802 51.2865C174.264 51.4464 173.738 51.6381 173.226 51.8606C172.194 52.3196 171.203 52.8559 170.262 53.4643C168.367 54.7123 166.571 56.0726 164.622 57.3081C163.651 57.9431 162.624 58.4985 161.551 58.9679C160.452 59.4277 159.275 59.7043 158.073 59.7854C155.665 59.7998 153.267 59.4823 150.957 58.8431C148.632 58.2225 146.26 57.7657 143.861 57.4766C142.664 57.3664 141.455 57.4423 140.283 57.7012C139.117 58.0044 138.041 58.5554 137.139 59.3111C135.297 60.815 134.015 62.8367 132.734 64.8211C131.524 66.8989 130.109 68.8668 128.508 70.6991C127.661 71.6068 126.643 72.3618 125.504 72.9268C124.342 73.4404 123.122 73.8297 121.866 74.0875C119.356 74.6054 116.793 74.8238 114.263 75.2481C111.733 75.6724 109.15 76.3401 107.321 77.9999C106.438 78.879 105.756 79.9173 105.318 81.0513C104.876 82.195 104.552 83.3756 104.35 84.5769C103.883 86.9855 103.682 89.4566 103.015 91.8839C102.728 93.1159 102.249 94.3017 101.593 95.4033C100.902 96.4947 99.996 97.4539 98.923 98.23C96.8136 99.815 94.4171 100.988 92.1208 102.298C90.9703 102.946 89.8665 103.663 88.8165 104.445C87.7719 105.225 86.8933 106.182 86.2265 107.266C85.5906 108.369 85.2688 109.607 85.2919 110.86C85.3155 112.119 85.4743 113.374 85.7659 114.604C86.3266 117.1 87.1744 119.552 87.6283 122.092C87.8974 123.395 87.9514 124.729 87.7885 126.048C87.599 127.363 87.1461 128.633 86.4534 129.792C85.0583 132.07 83.2426 134.073 81.6338 136.194C80.8076 137.24 80.088 138.355 79.4844 139.526C78.823 140.668 78.4766 141.947 78.4766 143.245C78.4766 144.544 78.823 145.822 79.4844 146.964C80.087 148.136 80.8067 149.252 81.6338 150.297C83.2426 152.418 85.0583 154.421 86.4534 156.699C87.1333 157.836 87.5858 159.079 87.7885 160.368C87.9581 161.669 87.9131 162.986 87.655 164.274C87.2077 166.839 86.36 169.297 85.7926 171.793C85.5034 173.024 85.3447 174.278 85.3186 175.537C85.2923 176.792 85.6118 178.032 86.2465 179.138C86.9082 180.225 87.7849 181.184 88.8298 181.965C89.8799 182.747 90.9837 183.464 92.1341 184.111C94.4305 185.422 96.8069 186.607 98.943 188.18C100.014 188.958 100.92 189.916 101.613 191.006C102.274 192.104 102.753 193.288 103.035 194.519C103.662 196.953 103.876 199.424 104.37 201.833C104.577 203.034 104.904 204.214 105.345 205.358C105.773 206.492 106.443 207.532 107.314 208.416C109.163 210.094 111.766 210.762 114.263 211.187C116.76 211.611 119.356 211.81 121.866 212.347C123.124 212.606 124.346 212.995 125.511 213.508C126.648 214.075 127.665 214.83 128.515 215.735C130.1 217.571 131.501 219.538 132.7 221.614C133.982 223.598 135.264 225.62 137.106 227.123C138.006 227.878 139.079 228.429 140.243 228.733C141.425 229.012 142.647 229.105 143.861 229.008C146.256 228.707 148.623 228.242 150.944 227.616C153.255 226.972 155.655 226.653 158.067 226.668C159.268 226.753 160.445 227.031 161.544 227.492C162.617 227.962 163.644 228.518 164.615 229.151C166.564 230.399 168.353 231.779 170.256 232.989C171.192 233.602 172.181 234.14 173.213 234.599C173.725 234.82 174.251 235.012 174.788 235.173C175.062 235.242 175.336 235.292 175.609 235.354L176.023 235.435H176.437C178.687 235.672 180.85 234.811 182.745 233.757C184.641 232.702 186.383 231.373 188.159 230.15C189.884 228.863 191.805 227.826 193.86 227.074C195.966 226.535 198.182 226.496 200.308 226.961C202.411 227.336 204.44 227.891 206.47 228.347C208.458 228.854 210.517 229.08 212.577 229.014C214.59 228.839 216.462 227.977 217.838 226.593C219.168 225.217 220.332 223.709 221.309 222.094C222.317 220.522 223.271 218.924 224.379 217.433C225.428 215.907 226.837 214.626 228.498 213.689C230.173 212.893 231.978 212.362 233.838 212.116C235.661 211.811 237.47 211.617 239.239 211.349C240.992 211.126 242.708 210.696 244.345 210.07C245.932 209.452 247.263 208.373 248.144 206.993C248.947 205.619 249.502 204.131 249.786 202.588C250.453 199.555 250.627 196.516 251.488 193.677C251.881 192.266 252.593 190.951 253.577 189.821C254.573 188.772 255.719 187.857 256.982 187.1C259.418 185.565 261.968 184.392 264.178 182.919C265.279 182.222 266.278 181.394 267.148 180.454C267.961 179.54 268.528 178.457 268.804 177.297C269.037 176.176 269.071 175.027 268.904 173.896C268.766 172.812 268.557 171.737 268.277 170.676C267.743 168.598 267.142 166.639 266.768 164.736C266.333 162.947 266.333 161.09 266.768 159.301C267.281 157.769 268.057 156.326 269.064 155.026C270.873 152.587 272.616 150.658 273.737 148.936C274.673 147.669 275.352 146.252 275.74 144.755C275.84 144.375 275.898 143.986 275.913 143.595L275.953 143.202C275.953 143.202 275.953 143.333 275.953 143.595C275.94 143.988 275.887 144.379 275.793 144.762C275.413 146.27 274.734 147.699 273.79 148.974C272.649 150.708 270.92 152.643 269.118 155.083C268.116 156.372 267.352 157.808 266.855 159.332C266.42 161.102 266.42 162.941 266.855 164.711C267.229 166.583 267.836 168.561 268.377 170.639C268.668 171.707 268.891 172.791 269.044 173.884C269.21 175.029 269.177 176.193 268.944 177.328C268.665 178.515 268.089 179.623 267.262 180.561C266.382 181.51 265.375 182.349 264.265 183.057C262.035 184.542 259.492 185.721 257.069 187.25C255.831 188.001 254.709 188.906 253.731 189.939C252.767 191.052 252.07 192.346 251.688 193.733C250.841 196.541 250.654 199.574 249.999 202.625C249.717 204.193 249.155 205.705 248.337 207.099C247.436 208.52 246.069 209.631 244.439 210.269C242.785 210.904 241.051 211.34 239.279 211.567C237.503 211.842 235.688 212.035 233.879 212.341C232.042 212.586 230.26 213.111 228.605 213.895C226.99 214.811 225.62 216.059 224.6 217.545C223.505 219.024 222.55 220.615 221.536 222.2C220.554 223.831 219.381 225.355 218.038 226.743C216.619 228.174 214.683 229.063 212.604 229.239C210.515 229.316 208.425 229.09 206.409 228.571C204.373 228.116 202.344 227.567 200.261 227.198C198.182 226.743 196.014 226.78 193.953 227.304C191.93 228.05 190.038 229.074 188.339 230.343C186.57 231.56 184.828 232.871 182.906 233.969C182.405 234.218 181.931 234.512 181.41 234.718C181.15 234.83 180.896 234.948 180.636 235.048L179.828 235.317C178.733 235.668 177.57 235.796 176.417 235.691L175.983 235.66C175.843 235.66 175.703 235.604 175.556 235.579C175.276 235.516 174.989 235.466 174.715 235.391C174.16 235.231 173.618 235.035 173.093 234.805C172.045 234.34 171.04 233.796 170.089 233.176C168.173 231.928 166.377 230.568 164.448 229.339C163.49 228.717 162.478 228.17 161.424 227.704C160.358 227.26 159.217 226.992 158.053 226.911C155.673 226.901 153.305 227.219 151.024 227.854C148.679 228.499 146.284 228.976 143.861 229.283C142.624 229.396 141.374 229.318 140.163 229.052C138.95 228.736 137.831 228.163 136.892 227.379C134.997 225.826 133.702 223.785 132.42 221.795C131.232 219.736 129.842 217.784 128.268 215.966C127.448 215.087 126.461 214.358 125.357 213.814C124.22 213.308 123.024 212.927 121.793 212.678C119.309 212.166 116.753 211.948 114.203 211.517C112.918 211.318 111.656 211.008 110.431 210.594C109.189 210.168 108.054 209.51 107.094 208.659C106.182 207.75 105.484 206.672 105.044 205.496C104.594 204.333 104.261 203.134 104.05 201.914C103.582 199.486 103.382 197.015 102.715 194.619C102.437 193.419 101.969 192.264 101.326 191.194C100.65 190.135 99.7672 189.206 98.7227 188.454C96.6534 186.9 94.2636 185.727 91.9606 184.411C90.7987 183.755 89.6838 183.03 88.6229 182.239C87.5431 181.43 86.6371 180.437 85.9528 179.313C85.2936 178.162 84.9625 176.873 84.9915 175.569C85.0074 174.277 85.1685 172.991 85.4721 171.731C86.0395 169.235 86.8873 166.739 87.3279 164.243C87.5799 162.986 87.6227 161.7 87.4547 160.43C87.2525 159.169 86.7997 157.954 86.1197 156.849C84.7846 154.602 82.9422 152.612 81.3201 150.471C80.4747 149.405 79.7352 148.269 79.1105 147.077C78.4315 145.89 78.0763 144.566 78.0763 143.22C78.0763 141.875 78.4315 140.55 79.1105 139.364C79.7266 138.176 80.4596 137.043 81.3001 135.982C82.9222 133.842 84.7312 131.851 86.093 129.611C86.7723 128.503 87.2251 127.286 87.428 126.023C87.5838 124.753 87.5388 123.468 87.2945 122.21C86.8473 119.714 85.9995 117.218 85.4321 114.722C85.1339 113.464 84.9751 112.18 84.9581 110.891C84.9315 109.586 85.2649 108.297 85.9261 107.147C86.6148 106.027 87.5203 105.037 88.5962 104.227C89.6555 103.434 90.7705 102.708 91.9339 102.055C94.2369 100.738 96.6066 99.5591 98.696 98.0116C99.7385 97.2596 100.62 96.3302 101.293 95.2722C101.933 94.1986 102.399 93.042 102.675 91.8402C103.295 89.4441 103.509 86.9793 104.01 84.5519C104.218 83.3317 104.549 82.1325 104.998 80.9702C105.4 79.7804 106.101 78.6976 107.041 77.8119C107.982 76.9263 109.135 76.2634 110.405 75.8783C111.629 75.4637 112.891 75.1545 114.176 74.9548C116.726 74.5243 119.283 74.3308 121.766 73.8004C122.995 73.5435 124.19 73.1627 125.331 72.6647C126.431 72.1161 127.415 71.3845 128.234 70.5057C129.809 68.6876 131.199 66.7364 132.386 64.6775C133.668 62.687 134.963 60.6465 136.866 59.099C137.809 58.3032 138.938 57.7242 140.163 57.4079C141.375 57.1447 142.623 57.0667 143.861 57.1771C146.269 57.478 148.65 57.9452 150.984 58.5748C153.264 59.2147 155.633 59.5343 158.013 59.5233C159.166 59.4373 160.295 59.1672 161.351 58.7246C162.408 58.2641 163.42 57.717 164.375 57.0897C166.311 55.8417 168.106 54.4751 170.022 53.2583C170.972 52.6368 171.977 52.0919 173.026 51.6297C173.551 51.401 174.09 51.203 174.641 51.0369C174.922 50.962 175.209 50.9183 175.489 50.8559L175.91 50.7686H176.344C177.496 50.6668 178.659 50.7944 179.755 51.143L180.563 51.4113C180.823 51.5111 181.077 51.6297 181.337 51.742C181.864 51.9542 182.338 52.2412 182.832 52.4908C184.761 53.5891 186.497 54.8995 188.273 56.1163C189.97 57.3842 191.859 58.4084 193.88 59.1551C195.94 59.6829 198.109 59.7194 200.188 59.2612C202.271 58.8993 204.3 58.3502 206.336 57.8947C208.352 57.3764 210.441 57.1491 212.531 57.2207C214.609 57.3992 216.544 58.2879 217.964 59.7167C219.309 61.1074 220.484 62.633 221.469 64.2657C222.484 65.8444 223.432 67.4419 224.526 68.9145C225.545 70.4035 226.915 71.6544 228.532 72.5711C230.186 73.3576 231.968 73.8826 233.805 74.1249C235.614 74.4307 237.43 74.6241 239.205 74.8987C240.977 75.1283 242.71 75.5643 244.365 76.1966C245.995 76.8342 247.364 77.9429 248.271 79.3603C249.086 80.7553 249.648 82.2672 249.933 83.8343C250.6 86.8857 250.774 89.9183 251.615 92.7263C252.001 94.1117 252.697 95.4048 253.658 96.5202C254.633 97.557 255.756 98.464 256.995 99.2159C259.418 100.745 261.968 101.924 264.191 103.409C265.302 104.117 266.309 104.956 267.189 105.905C268.016 106.841 268.595 107.946 268.877 109.131C269.11 110.269 269.144 111.434 268.977 112.582C268.824 113.673 268.601 114.754 268.31 115.821C267.776 117.905 267.162 119.858 266.788 121.755C266.354 123.525 266.354 125.364 266.788 127.134C267.285 128.658 268.05 130.094 269.051 131.383C270.847 133.829 272.576 135.751 273.724 137.492C274.665 138.768 275.344 140.196 275.726 141.704C275.82 142.087 275.874 142.478 275.886 142.871C275.967 143.096 275.967 143.233 275.967 143.233Z" fill="#263238"/>
<path d="M158.547 229.008C158.641 229.008 156.177 238.368 153.047 249.862C149.916 261.356 147.299 270.66 147.206 270.641C147.112 270.623 149.576 261.281 152.706 249.781C155.837 238.281 158.48 228.958 158.547 229.008Z" fill="#263238"/>
<path d="M177.118 199.88C210.586 199.88 237.717 174.518 237.717 143.233C237.717 111.948 210.586 86.5862 177.118 86.5862C143.65 86.5862 116.519 111.948 116.519 143.233C116.519 174.518 143.65 199.88 177.118 199.88Z" fill="white"/>
<path d="M139.803 123.602C138.968 124.382 134.376 132.194 133.955 138.64C133.535 145.086 134.529 181.266 134.529 181.266L134.709 183.668C145.617 195.593 185.269 213.339 220.982 183.606L222.984 161.348L217.09 114.229L196.597 109.543L191.797 102.274L159.809 109.275L156.952 115.577L139.803 123.602Z" fill="#455A64"/>
<path d="M189.601 83.329C191.009 78.4306 192.391 73.501 192.878 68.4528C193.366 63.4047 192.919 58.188 190.769 53.533C190.442 52.8279 187.738 48.1167 186.924 48.2352C186.343 48.3164 188.092 52.7468 187.825 53.2272C185.255 57.8885 184.788 63.361 185.529 68.5589C186.293 73.6067 187.659 78.5587 189.601 83.3227" fill="#263238"/>
<path d="M189.067 63.985C188.813 51.2741 180.683 40.8221 167.098 41.4149L165.843 41.5397C159.767 42.1385 154.155 44.8532 150.123 49.1439C146.091 53.4346 143.934 58.9869 144.082 64.6963C144.375 75.7099 144.843 87.8779 145.584 93.7311C147.112 105.843 160.269 106.454 160.269 106.454L160.877 114.423L166.451 120.083L192.291 105.107L189.067 63.985Z" fill="#FFBF9D"/>
<path d="M160.303 106.548C160.303 106.548 168.533 106.192 176.671 100.214C176.671 100.214 173.947 111.203 160.877 111.384L160.303 106.548Z" fill="#FF9A6C"/>
<path d="M151.551 74.5742C151.597 75.0297 151.833 75.45 152.208 75.7443C152.583 76.0386 153.066 76.1831 153.554 76.1467C153.792 76.1411 154.026 76.0912 154.242 75.9998C154.459 75.9085 154.654 75.7776 154.816 75.6148C154.977 75.452 155.102 75.2606 155.184 75.0519C155.265 74.8432 155.301 74.6214 155.29 74.3995C155.242 73.9446 155.006 73.5252 154.632 73.2313C154.257 72.9373 153.775 72.7922 153.287 72.827C153.049 72.8317 152.815 72.881 152.598 72.9721C152.381 73.0631 152.185 73.194 152.023 73.357C151.862 73.52 151.736 73.7117 151.655 73.9208C151.574 74.1299 151.539 74.3521 151.551 74.5742Z" fill="#263238"/>
<path d="M147.426 69.4574C147.68 69.6571 148.975 68.5526 150.971 68.3592C152.967 68.1658 154.529 68.9832 154.722 68.7024C154.816 68.5963 154.535 68.2094 153.848 67.835C152.922 67.3635 151.864 67.1696 150.817 67.2797C149.78 67.3796 148.803 67.7837 148.027 68.4341C147.459 68.9395 147.299 69.3638 147.426 69.4574Z" fill="#263238"/>
<path d="M169.168 73.1764C169.213 73.6319 169.449 74.0523 169.824 74.3466C170.199 74.6408 170.682 74.7854 171.17 74.7489C171.408 74.7434 171.642 74.6934 171.858 74.6021C172.075 74.5108 172.27 74.3798 172.432 74.217C172.593 74.0543 172.719 73.8629 172.8 73.6542C172.882 73.4454 172.918 73.2236 172.906 73.0017C172.86 72.5457 172.624 72.1248 172.25 71.8295C171.875 71.5343 171.392 71.3883 170.903 71.423C170.665 71.4294 170.431 71.4801 170.215 71.5721C169.998 71.6641 169.803 71.7956 169.641 71.9589C169.48 72.1222 169.355 72.314 169.273 72.523C169.192 72.7321 169.156 72.9542 169.168 73.1764Z" fill="#263238"/>
<path d="M167.045 68.2842C167.299 68.4902 168.6 67.3794 170.59 67.186C172.579 66.9926 174.154 67.81 174.341 67.5355C174.435 67.4231 174.161 67.0362 173.473 66.6681C172.547 66.1941 171.485 66.0001 170.436 66.1127C169.398 66.2084 168.42 66.613 167.646 67.2671C167.085 67.7663 166.925 68.1969 167.045 68.2842Z" fill="#263238"/>
<path d="M161.504 83.3165C161.504 83.2104 160.243 83.1293 158.207 83.0856C157.693 83.0856 157.199 83.0419 157.079 82.7237C156.978 82.2373 157.041 81.7337 157.259 81.2822L158.354 77.5382C159.862 72.1718 160.897 67.7789 160.67 67.7227C160.443 67.6666 159.021 71.9722 157.513 77.3448L156.485 81.12C156.233 81.719 156.214 82.3813 156.431 82.992C156.522 83.1545 156.652 83.2953 156.811 83.4035C156.969 83.5117 157.152 83.5844 157.346 83.616C157.636 83.6493 157.93 83.6493 158.22 83.616C160.256 83.5349 161.511 83.4226 161.504 83.3165Z" fill="#263238"/>
<path d="M167.519 84.0278C167.192 84.0278 167.419 86.062 165.73 87.6844C164.041 89.3068 161.725 89.3068 161.725 89.5939C161.725 89.7187 162.279 89.9371 163.26 89.8622C164.524 89.7513 165.706 89.2277 166.598 88.3833C167.449 87.5664 167.928 86.4724 167.933 85.332C167.966 84.4771 167.666 84.0028 167.519 84.0278Z" fill="#263238"/>
<path d="M166.304 60.7089C166.558 61.1957 168.52 60.7589 170.89 60.7963C173.26 60.8337 175.222 61.2393 175.476 60.7526C175.589 60.5217 175.209 60.0787 174.388 59.6606C173.299 59.167 172.104 58.9105 170.893 58.9105C169.683 58.9105 168.488 59.167 167.399 59.6606C166.558 60.035 166.19 60.4781 166.304 60.7089Z" fill="#263238"/>
<path d="M147.553 63.18C147.947 63.5669 149.275 62.9928 150.924 62.8056C152.573 62.6184 154.008 62.8056 154.262 62.3189C154.382 62.088 154.115 61.6949 153.461 61.3455C152.584 60.9459 151.601 60.7984 150.635 60.9217C149.668 61.045 148.763 61.4336 148.034 62.0381C147.513 62.5311 147.373 62.9866 147.553 63.18Z" fill="#263238"/>
<path d="M189.02 73.0766C189.234 72.9643 197.658 69.7319 198.312 78.0686C198.966 86.4052 189.921 85.2695 189.861 85.0324C189.801 84.7953 189.02 73.0766 189.02 73.0766Z" fill="#FFBF9D"/>
<path d="M192.331 81.694C192.371 81.694 192.491 81.7814 192.765 81.875C193.145 81.998 193.562 81.9779 193.927 81.8188C194.841 81.4319 195.522 79.9843 195.448 78.4804C195.418 77.7651 195.215 77.0655 194.854 76.4337C194.75 76.1799 194.581 75.9536 194.363 75.7743C194.144 75.5949 193.882 75.4679 193.599 75.4041C193.419 75.3707 193.231 75.3981 193.07 75.4814C192.909 75.5648 192.784 75.6987 192.718 75.8596C192.611 76.103 192.685 76.2652 192.638 76.2839C192.591 76.3027 192.438 76.1529 192.478 75.8097C192.513 75.5987 192.624 75.4051 192.792 75.2606C193.024 75.0717 193.326 74.9753 193.633 74.9923C194.004 75.0332 194.356 75.1634 194.657 75.3701C194.958 75.5769 195.196 75.853 195.348 76.1716C195.787 76.8656 196.034 77.6502 196.069 78.4555C196.143 80.134 195.348 81.7689 194.067 82.1995C193.833 82.2816 193.583 82.3136 193.335 82.2931C193.086 82.2726 192.846 82.2001 192.631 82.0809C192.364 81.8937 192.304 81.7065 192.331 81.694Z" fill="#FF9A6C"/>
<path d="M148.895 50.544C147.406 49.8825 151.431 45.2587 154.902 43.5427C160.103 40.9531 168.18 39.0624 173.206 40.0733C179.261 41.3213 184.387 43.7549 187.718 48.6345C191.049 53.5142 192.578 59.3361 192.805 65.1206C192.872 66.8865 192.805 68.7336 191.897 70.2811C190.782 72.1968 188.473 73.5009 188.753 76.0344C188.82 76.4918 188.788 76.9571 188.66 77.4029C188.531 77.8487 188.309 78.266 188.005 78.6302C186.483 80.3525 184.387 78.9485 183.366 77.4758C181.183 74.3558 180.696 70.4558 180.269 66.7243C179.962 64.0785 179.661 61.3704 180.269 58.7745C180.603 57.3581 181.217 56.004 181.47 54.575C181.724 53.1461 181.57 51.5549 180.556 50.4566C180.319 50.2263 180.06 50.0173 179.781 49.8326C178.468 48.8903 176.91 48.2929 175.267 48.102C173.624 47.9112 171.956 48.1338 170.436 48.7469C165.53 50.7062 157.139 53.7014 154.789 52.2413C151.418 50.1446 150.537 48.672 150.537 48.672L148.895 50.544Z" fill="#263238"/>
<path d="M139.803 123.602C139.289 124.27 131.993 126.535 129.222 130.847C126.452 135.158 123.715 154.515 123.715 154.515L121.953 167.232C125.424 172.361 130.084 179.157 135.023 183.949L139.803 123.602Z" fill="#455A64"/>
<g opacity="0.3">
<path d="M194.627 142.272C194.824 144.882 195.353 147.461 196.203 149.953C197.157 152.406 198.833 154.715 201.283 155.981C202.304 156.505 203.459 156.855 204.32 157.604C205.181 158.352 205.702 159.563 206.536 160.443C207.58 161.411 208.868 162.117 210.281 162.496C214.258 163.859 218.477 164.494 222.711 164.368C222.844 163.032 222.851 158.128 222.984 156.786L194.627 142.272Z" fill="black"/>
</g>
<path d="M217.09 114.229C217.09 114.229 226.289 116.775 228.985 120.438C231.682 124.101 236.455 138.303 237.436 140.937C238.418 143.57 237.557 149.673 235.721 154.041C233.885 158.409 230.694 162.209 225.187 162.777C219.68 163.344 210.975 160.374 209.013 158.409C207.05 156.443 206.243 152.094 206.243 152.094C208.688 151.693 211.1 151.128 213.459 150.403" fill="#455A64"/>
<path d="M213.459 150.446L213.345 150.49L212.998 150.609C212.691 150.708 212.23 150.852 211.623 151.02C209.868 151.511 208.085 151.911 206.283 152.219L206.356 152.125C206.58 153.197 206.895 154.251 207.297 155.276C207.517 155.857 207.783 156.423 208.092 156.967C208.409 157.549 208.826 158.078 209.327 158.533C209.892 158.987 210.515 159.372 211.182 159.682C211.887 160.027 212.611 160.338 213.352 160.611C214.94 161.205 216.574 161.689 218.238 162.059C220.035 162.471 221.876 162.691 223.725 162.714C224.207 162.718 224.688 162.697 225.167 162.652C225.65 162.6 226.13 162.521 226.602 162.415C227.572 162.211 228.504 161.872 229.366 161.41C231.162 160.439 232.669 159.064 233.752 157.41C234.896 155.692 235.773 153.831 236.355 151.882C236.83 150.384 237.185 148.855 237.416 147.308C237.665 145.81 237.745 144.291 237.657 142.777C237.604 142.049 237.445 141.331 237.183 140.643C236.929 139.944 236.682 139.252 236.442 138.565L235.007 134.553C234.059 131.945 233.124 129.48 232.19 127.19C231.369 125.059 230.381 122.988 229.233 120.994C228.702 120.146 227.993 119.407 227.15 118.822C226.415 118.275 225.633 117.785 224.813 117.356C223.497 116.653 222.134 116.028 220.735 115.484C219.587 115.041 218.679 114.729 218.065 114.523L217.364 114.292C217.28 114.271 217.2 114.242 217.123 114.204C217.208 114.215 217.291 114.234 217.37 114.261L218.085 114.46C218.712 114.648 219.633 114.941 220.795 115.365C222.206 115.886 223.582 116.488 224.914 117.168C225.748 117.598 226.545 118.088 227.297 118.635C228.165 119.231 228.896 119.984 229.446 120.85C230.62 122.855 231.629 124.941 232.463 127.09C233.418 129.374 234.359 131.845 235.314 134.453C235.788 135.757 236.268 137.099 236.762 138.466C237.009 139.146 237.256 139.838 237.503 140.537C237.778 141.249 237.946 141.992 238.004 142.746C238.099 144.283 238.02 145.824 237.77 147.345C237.534 148.909 237.175 150.455 236.696 151.969C236.099 153.951 235.2 155.843 234.025 157.585C232.912 159.283 231.361 160.693 229.513 161.685C228.623 162.158 227.662 162.505 226.662 162.714C226.176 162.822 225.684 162.904 225.187 162.958C224.693 162.958 224.199 163.039 223.719 163.02C221.843 162.988 219.978 162.758 218.158 162.334C216.478 161.957 214.832 161.463 213.232 160.855C212.486 160.573 211.758 160.254 211.049 159.9C210.362 159.578 209.721 159.178 209.14 158.708C208.623 158.23 208.195 157.676 207.871 157.067C207.562 156.514 207.296 155.941 207.077 155.351C206.686 154.307 206.38 153.237 206.162 152.15V152.069H206.249C208.599 151.688 210.401 151.258 211.623 150.946L213.011 150.577L213.365 150.484C213.419 150.446 213.459 150.44 213.459 150.446Z" fill="#263238"/>
<path d="M230.341 145.847C230.274 145.847 230.06 144.787 229.293 143.202C228.284 141.141 226.876 139.273 225.141 137.692C224.179 136.836 223.091 136.113 221.91 135.545L221.102 135.208C220.835 135.096 220.555 135.046 220.301 134.965C219.821 134.824 219.326 134.727 218.826 134.678L218.492 134.634H217.584C217.271 134.63 216.958 134.655 216.649 134.709C216.381 134.759 216.109 134.787 215.835 134.79C216.088 134.692 216.352 134.623 216.623 134.584C216.933 134.502 217.254 134.458 217.577 134.453H218.178H218.505L218.852 134.491C219.37 134.524 219.882 134.608 220.381 134.74C220.661 134.806 220.937 134.885 221.209 134.977L222.05 135.314C223.275 135.88 224.4 136.616 225.388 137.498C227.161 139.101 228.567 141.025 229.52 143.152C229.69 143.514 229.837 143.885 229.96 144.263C230.063 144.547 230.148 144.836 230.214 145.13C230.28 145.365 230.323 145.605 230.341 145.847Z" fill="#263238"/>
<path d="M235.36 138.129C234.981 137.22 234.517 136.345 233.972 135.514C232.589 133.54 230.518 132.074 228.111 131.364C225.287 130.559 222.544 130.809 220.628 130.978L218.338 131.233C218.061 131.28 217.779 131.303 217.497 131.302C217.761 131.206 218.037 131.141 218.318 131.109C218.852 131.009 219.653 130.878 220.601 130.753C223.131 130.34 225.727 130.442 228.211 131.052C229.571 131.435 230.834 132.071 231.923 132.924C232.814 133.632 233.576 134.471 234.179 135.408C234.592 136.023 234.921 136.683 235.16 137.374C235.258 137.617 235.325 137.871 235.36 138.129Z" fill="#263238"/>
<path d="M228.425 128.9C224.826 128.107 221.065 128.245 217.544 129.299C218.006 129.017 218.513 128.807 219.046 128.675C220.309 128.312 221.617 128.102 222.938 128.051C224.258 128.007 225.579 128.12 226.869 128.388C227.412 128.485 227.937 128.657 228.425 128.9Z" fill="#263238"/>
<path d="M213.539 116.376C213.592 116.376 213.459 117.256 213.352 118.666C213.072 122.278 213.405 125.909 214.34 129.424L214.099 129.499C213.826 128.781 213.612 128.195 213.472 127.783C213.385 127.582 213.322 127.373 213.285 127.159C213.421 127.352 213.529 127.562 213.605 127.783C213.786 128.176 214.033 128.75 214.34 129.461L214.099 129.53C213.571 127.803 213.22 126.034 213.051 124.245C212.877 122.394 212.895 120.532 213.105 118.685C213.192 117.98 213.292 117.437 213.372 117.019C213.394 116.798 213.45 116.582 213.539 116.376Z" fill="#263238"/>
<path d="M200.528 100.37C200.528 100.37 195.756 100.37 195.155 105.731C194.694 109.849 195.155 113.843 195.155 115.652C195.155 117.462 194.307 123.87 194.307 123.87C194.307 123.87 191.049 126.572 191.103 129.817C191.156 133.062 193.639 134.073 193.639 134.073C193.223 135.078 193.131 136.176 193.376 137.229C193.62 138.283 194.19 139.247 195.015 140.001C195.015 140.001 193.633 142.99 194.768 144.993C195.422 145.989 196.442 146.728 197.638 147.071C197.442 147.465 197.339 147.894 197.336 148.329C197.332 148.763 197.429 149.194 197.619 149.591C197.809 149.987 198.087 150.342 198.436 150.629C198.785 150.917 199.196 151.131 199.641 151.258C201.244 151.722 202.924 151.914 204.6 151.825L208.165 151.763L211.302 153.385C211.302 153.385 216.683 151.195 216.816 148.231L216.956 145.267C216.956 145.267 215.414 140.4 215.288 138.84C215.161 137.28 216.529 133.555 215.701 131.882C214.874 130.21 211.983 129.224 212.257 126.89C212.531 124.557 211.983 123.259 210.742 121.967C209.5 120.675 204.02 118.104 204.02 118.104C204.02 118.104 202.611 114.36 202.611 111.796C202.611 109.231 205.355 101.35 200.528 100.37Z" fill="#FFBF9D"/>
<path d="M203.746 119.078C203.336 119.392 202.888 119.66 202.411 119.877C201.57 120.338 200.408 120.95 199.073 121.611C197.738 122.273 196.577 122.859 195.736 123.265C195.281 123.522 194.797 123.731 194.294 123.889C194.703 123.571 195.151 123.301 195.629 123.084C196.47 122.622 197.631 122.011 198.966 121.349C200.302 120.688 201.463 120.101 202.304 119.696C202.758 119.439 203.242 119.231 203.746 119.078Z" fill="#FF9A6C"/>
<path d="M206.883 129.168C206.883 129.168 206.75 129.311 206.463 129.517C206.064 129.81 205.65 130.083 205.221 130.335C203.812 131.179 202.313 131.886 200.749 132.444C199.185 133.011 197.563 133.429 195.909 133.692C195.242 133.786 194.754 133.842 194.4 133.86C194.215 133.893 194.025 133.893 193.84 133.86C193.84 133.811 194.614 133.711 195.842 133.467C197.462 133.149 199.053 132.715 200.602 132.169C202.147 131.611 203.642 130.939 205.074 130.16C205.659 129.801 206.263 129.47 206.883 129.168Z" fill="#FF9A6C"/>
<path d="M210.982 125.954C211.069 125.986 210.889 126.578 210.315 127.034C209.74 127.489 209.126 127.627 209.106 127.546C209.086 127.464 209.58 127.227 210.081 126.791C210.582 126.354 210.889 125.917 210.982 125.954Z" fill="#FF9A6C"/>
<path d="M209.013 137.998C208.372 138.289 207.701 138.519 207.01 138.684C205.368 139.141 203.696 139.497 202.004 139.751C200.312 140.009 198.604 140.159 196.89 140.2C196.18 140.251 195.466 140.231 194.761 140.138C195.462 140.045 196.169 139.99 196.877 139.976C198.212 139.888 199.981 139.726 201.95 139.433C203.92 139.139 205.675 138.759 206.943 138.459C207.623 138.268 208.314 138.114 209.013 137.998Z" fill="#FF9A6C"/>
<path d="M213.378 137.28C213.48 136.955 213.602 136.636 213.746 136.325C214.01 135.563 214.099 134.757 214.006 133.96C213.9 133.164 213.608 132.399 213.151 131.72C212.935 131.449 212.737 131.165 212.557 130.871C212.557 130.84 212.938 131.071 213.358 131.589C213.898 132.274 214.239 133.077 214.346 133.922C214.454 134.766 214.325 135.622 213.973 136.406C213.699 136.974 213.412 137.28 213.378 137.28Z" fill="#FF9A6C"/>
<path d="M209.28 147.033C208.733 147.222 208.164 147.347 207.584 147.408C206.198 147.612 204.796 147.714 203.392 147.713C201.985 147.711 200.581 147.6 199.193 147.383C198.614 147.321 198.044 147.194 197.498 147.002C198.078 147.011 198.656 147.064 199.227 147.158C200.61 147.304 202 147.381 203.392 147.389C204.781 147.386 206.17 147.315 207.551 147.177C208.122 147.086 208.7 147.038 209.28 147.033Z" fill="#FF9A6C"/>
<path d="M200.789 111.858C200.789 111.896 200.569 112.064 200.121 112.214C199.532 112.398 198.907 112.457 198.291 112.388C197.675 112.319 197.082 112.123 196.557 111.814C196.156 111.571 195.969 111.359 195.996 111.328C196.734 111.674 197.52 111.922 198.332 112.064C199.157 112.105 199.985 112.036 200.789 111.858Z" fill="#FF9A6C"/>
<path d="M214.366 137.636C214.427 137.789 214.454 137.953 214.447 138.116C214.447 138.56 214.391 139.002 214.28 139.433C214.153 139.976 213.933 140.606 213.719 141.305C213.46 142.036 213.376 142.811 213.472 143.576C213.585 144.369 214.22 145.005 214.32 145.81C214.388 146.49 214.202 147.172 213.792 147.738C213.544 148.114 213.255 148.465 212.931 148.786C212.704 149.017 212.564 149.13 212.544 149.117C212.524 149.105 213.005 148.568 213.579 147.626C213.924 147.095 214.072 146.472 213.999 145.854C213.919 145.174 213.278 144.537 213.125 143.632C213.023 142.819 213.121 141.996 213.412 141.224C213.645 140.519 213.886 139.901 214.039 139.352C214.193 138.788 214.303 138.214 214.366 137.636Z" fill="#FF9A6C"/>
<path d="M216.162 141.554C216.271 141.737 216.348 141.935 216.389 142.141C216.509 142.522 216.67 143.083 216.816 143.782C216.998 144.604 217.105 145.439 217.137 146.278C217.194 147.327 216.988 148.374 216.536 149.336C216.011 150.256 215.314 151.082 214.48 151.775C213.816 152.341 213.109 152.86 212.364 153.329C211.73 153.735 211.196 154.034 210.822 154.228C210.638 154.344 210.438 154.436 210.228 154.502C210.194 154.459 210.995 153.984 212.23 153.142C212.947 152.655 213.629 152.125 214.273 151.557C215.066 150.879 215.73 150.079 216.236 149.192C216.663 148.274 216.866 147.279 216.83 146.278C216.814 145.452 216.734 144.628 216.589 143.813C216.329 142.422 216.109 141.567 216.162 141.554Z" fill="#263238"/>
<path d="M165.797 120.781C165.519 120.629 165.259 120.449 165.022 120.245L163.02 118.679L161.631 117.587C161.394 117.379 161.129 117.201 160.843 117.056C160.705 116.99 160.552 116.955 160.396 116.955C160.241 116.955 160.087 116.99 159.949 117.056C159.375 117.337 158.988 118.023 158.5 118.597C158.013 119.171 157.533 119.845 157.025 120.469C156.224 121.48 155.443 122.447 154.729 123.346L154.295 123.883L154.435 123.221C154.818 121.366 155.374 119.545 156.097 117.78C156.364 117.156 156.605 116.619 156.765 116.276C156.84 116.092 156.941 115.918 157.065 115.758C157.019 115.949 156.955 116.134 156.872 116.314C156.731 116.669 156.525 117.187 156.284 117.849C155.631 119.622 155.121 121.439 154.756 123.284L154.455 123.159L156.745 120.276L158.22 118.404L158.928 117.524C159.152 117.212 159.455 116.955 159.809 116.775C159.994 116.699 160.196 116.664 160.398 116.671C160.601 116.679 160.799 116.729 160.977 116.819C161.28 116.979 161.561 117.174 161.811 117.399L163.146 118.523L165.096 120.164C165.346 120.352 165.581 120.559 165.797 120.781Z" fill="#263238"/>
<path d="M193.98 115.509C193.903 115.591 193.815 115.664 193.72 115.727L192.932 116.301L189.988 118.367L180.169 125.125L180.022 125.224L179.922 125.081C179.842 124.969 179.761 124.844 179.675 124.725L174.748 117.449L174.928 117.505C173.03 118.21 171.199 119.064 169.455 120.058C168.827 120.413 168.34 120.682 168.006 120.913C167.844 121.027 167.669 121.125 167.485 121.206C167.627 121.068 167.784 120.945 167.953 120.838C168.273 120.619 168.747 120.301 169.368 119.92C171.09 118.872 172.914 117.978 174.815 117.25L174.928 117.206L174.995 117.3C176.444 119.402 178.146 121.892 179.968 124.55C180.055 124.669 180.135 124.794 180.215 124.906L179.962 124.862L189.848 118.186L192.852 116.195L193.68 115.671C193.873 115.552 193.973 115.496 193.98 115.509Z" fill="#263238"/>
<path d="M134.069 140.325C134.099 140.469 134.113 140.615 134.109 140.762C134.109 141.086 134.109 141.504 134.142 142.01C134.142 143.139 134.202 144.718 134.236 146.652C134.316 150.571 134.483 156.012 134.703 161.972C134.923 167.931 135.05 173.372 135.063 177.297C135.063 179.263 135.063 180.848 135.063 181.946C135.063 182.464 135.063 182.888 135.03 183.194C135.037 183.342 135.026 183.491 134.997 183.637C134.987 183.489 134.987 183.341 134.997 183.194C134.997 182.876 134.997 182.451 134.956 181.946C134.956 180.81 134.903 179.231 134.863 177.303C134.79 173.378 134.616 167.943 134.402 161.978C134.189 156.012 134.055 150.577 134.042 146.652C134.042 144.693 134.042 143.102 134.042 142.01C134.042 141.486 134.042 141.068 134.042 140.762C134.041 140.616 134.05 140.47 134.069 140.325Z" fill="#263238"/>
<path d="M166.017 196.685C165.995 196.629 165.981 196.57 165.977 196.51C165.977 196.373 165.977 196.198 165.917 195.98C165.863 195.487 165.79 194.807 165.703 193.939C165.516 192.167 165.303 189.571 165.089 186.42C164.875 183.269 164.695 179.45 164.582 175.244C164.468 171.038 164.455 166.402 164.582 161.516C164.709 156.63 164.942 152.031 165.249 147.832C165.556 143.632 165.917 139.851 166.277 136.687C166.638 133.524 166.945 130.959 167.238 129.199C167.372 128.332 167.472 127.658 167.546 127.171C167.586 126.953 167.612 126.778 167.639 126.641C167.642 126.581 167.656 126.522 167.679 126.466C167.689 126.526 167.689 126.587 167.679 126.647C167.679 126.784 167.646 126.959 167.626 127.177C167.566 127.664 167.485 128.344 167.379 129.212C167.152 130.984 166.858 133.542 166.531 136.7C166.204 139.857 165.863 143.645 165.576 147.844C165.289 152.044 165.069 156.668 164.949 161.522C164.829 166.377 164.862 171.001 164.949 175.207C165.036 179.412 165.203 183.194 165.389 186.37C165.576 189.546 165.743 192.123 165.89 193.896C165.95 194.763 166.004 195.449 166.037 195.942C166.037 196.161 166.037 196.335 166.07 196.473C166.059 196.545 166.041 196.616 166.017 196.685Z" fill="#263238"/>
<path d="M146.124 94.5484L145.417 94.9852L143.334 96.2332C142.413 96.7886 141.331 97.5811 140.063 98.4547C139.396 98.904 138.781 99.4468 138.061 99.996L136.972 100.851C136.599 101.15 136.245 101.475 135.864 101.818C132.172 105.037 128.929 108.679 126.212 112.657L125.024 114.442C124.603 115.034 124.283 115.69 123.895 116.314C123.508 116.938 123.128 117.611 122.781 118.298C122.434 118.984 122.113 119.689 121.753 120.401C121.586 120.756 121.399 121.106 121.239 121.474C121.078 121.842 120.938 122.217 120.785 122.597C120.484 123.346 120.164 124.101 119.87 124.881C119.376 126.46 118.749 128.057 118.375 129.761C116.472 137.131 116.154 144.782 117.44 152.268C119.114 161.909 123.432 170.979 129.974 178.594C136.516 186.209 145.058 192.109 154.767 195.717C164.476 199.326 175.019 200.52 185.369 199.184C195.718 197.848 205.521 194.026 213.819 188.092C215.914 186.587 217.907 184.961 219.787 183.225L221.122 181.902C221.576 181.465 222.016 181.022 222.457 180.554L223.725 179.188C224.126 178.714 224.52 178.239 224.92 177.771C230.958 170.501 234.987 161.952 236.649 152.88C237.039 150.774 237.305 148.649 237.443 146.515C237.51 145.461 237.51 144.419 237.55 143.395C237.59 142.372 237.47 141.33 237.43 140.313C237.43 139.807 237.383 139.295 237.363 138.79C237.343 138.285 237.243 137.792 237.189 137.292C237.056 136.3 236.929 135.314 236.802 134.341C236.675 133.367 236.402 132.419 236.202 131.471C236.034 130.53 235.811 129.599 235.534 128.681L234.706 125.979C234.576 125.536 234.418 125.101 234.232 124.675C234.059 124.245 233.885 123.814 233.718 123.39C233.364 122.547 233.051 121.686 232.67 120.894C232.29 120.101 231.876 119.296 231.482 118.516C228.579 112.875 224.684 107.728 219.96 103.291C216.381 99.9663 212.387 97.0563 208.065 94.6233L205.515 93.2568C205.13 93.0458 204.733 92.8542 204.327 92.6827L203.205 92.1835L201.203 91.2974C200.602 91.0104 200.008 90.8481 199.507 90.6734L197.184 89.8372L196.396 89.5377L197.197 89.806L199.527 90.6172C200.034 90.8044 200.629 90.9667 201.236 91.2412L203.239 92.1148L204.367 92.614C204.776 92.7812 205.174 92.9687 205.562 93.1756L208.118 94.536C212.469 96.9535 216.488 99.8578 220.087 103.185C224.84 107.619 228.761 112.768 231.689 118.416C232.083 119.209 232.483 120.001 232.891 120.813C233.298 121.624 233.558 122.479 233.945 123.309L234.466 124.594C234.652 125.022 234.81 125.459 234.94 125.904C235.22 126.803 235.501 127.702 235.781 128.619C236.07 129.54 236.304 130.475 236.482 131.421C236.682 132.369 236.922 133.293 237.096 134.297C237.27 135.302 237.35 136.269 237.483 137.267C237.543 137.767 237.63 138.266 237.663 138.771C237.697 139.277 237.71 139.788 237.73 140.3C237.77 141.323 237.83 142.353 237.857 143.42C237.884 144.487 237.824 145.511 237.75 146.54C237.068 157.963 232.684 168.921 225.181 177.959L223.966 179.381L222.684 180.76C222.27 181.228 221.823 181.678 221.349 182.114L220.014 183.45C218.123 185.196 216.116 186.83 214.006 188.342C205.667 194.3 195.819 198.138 185.422 199.479C175.025 200.821 164.433 199.622 154.679 195.998C144.925 192.374 136.343 186.45 129.767 178.803C123.192 171.155 118.848 162.046 117.16 152.362C116.483 148.459 116.259 144.498 116.492 140.55C116.661 136.908 117.222 133.291 118.168 129.755C118.542 128.045 119.176 126.447 119.67 124.856C119.97 124.082 120.297 123.321 120.605 122.566C120.758 122.192 120.912 121.817 121.058 121.443C121.205 121.068 121.412 120.725 121.579 120.363C121.933 119.652 122.247 118.953 122.614 118.26C122.981 117.568 123.375 116.925 123.742 116.27C124.109 115.615 124.456 114.966 124.877 114.367L126.078 112.582C128.81 108.598 132.079 104.959 135.804 101.756C136.185 101.425 136.539 101.088 136.912 100.788L138.007 99.9336C138.728 99.3907 139.342 98.854 140.01 98.4048C141.311 97.5312 142.379 96.7512 143.307 96.202L145.41 94.954C145.864 94.6795 146.124 94.5484 146.124 94.5484Z" fill="#263238"/>
</svg>
